<svg width="162" height="164" viewBox="0 0 162 164" fill="none" xmlns="http://www.w3.org/2000/svg">
<rect width="162" height="164" rx="81" fill="#ECEBEB"/>
<path d="M40.9642 26.5673C41.7825 26.5673 43.0582 28.9807 43.2889 29.6153C44.2067 32.1393 46.7087 34.2194 48.3775 36.3053C52.5132 41.475 52.9993 46.8449 51.7613 53.1725C50.2848 60.7191 46.1996 66.5721 44.0122 73.7592C42.9366 77.2932 41.7037 81.0259 40.2926 84.453C39.4188 86.5751 38.5508 91.3182 39.3369 93.5194C40.3252 96.2866 40.4401 98.6771 41.8941 101.423C43.1014 103.704 45.0341 106.061 46.8019 107.933C50.1508 111.479 52.8293 115.772 55.61 119.789C56.8851 121.631 59.0971 126.685 59.0971 128.855C59.0971 130.505 59.562 131.878 59.562 133.505C59.562 134.102 60.3463 134.838 59.9236 135.261C59.4669 135.718 59.0971 134.16 59.0971 133.97" stroke="#1E1E1E" stroke-width="3.98339" stroke-linecap="round" stroke-linejoin="round"/>
<path d="M41.894 26.5673C44.0697 26.5673 48.2535 26.7097 50.4697 26.0765C51.6335 25.744 53.5177 24.8349 53.5177 26.7998C53.5177 28.5103 53.8012 29.1302 54.8092 30.3902C56.1868 32.1121 58.1878 35.8431 58.6579 37.9584C59.2664 40.6966 61.4217 43.2527 61.4217 46.095C61.4217 49.3402 59.7738 52.4645 59.0712 55.6263C58.3333 58.9468 57.2989 62.5028 55.7391 65.6226C54.3409 68.4189 53.7019 72.1163 53.0269 75.154C52.7104 76.5784 51.7371 77.681 51.6579 79.106C51.6101 79.9671 50.9031 82.7893 50.4955 83.523C49.2912 85.6909 50.3049 92.2464 51.2963 94.4492C52.543 97.2196 52.8332 99.5217 54.9125 102.121C56.6239 104.26 57.8969 106.794 59.6653 108.759C61.2682 110.54 63.7465 114.163 63.7465 116.534C63.7465 117.912 65.1394 123.273 65.9679 124.309C67.0268 125.633 67.466 131.134 67.466 132.807C67.466 136.368 68.4023 138.851 64.2114 139.084C63.2868 139.135 61.4416 140.018 60.6985 139.523C60.2456 139.221 60.0852 136.149 59.562 135.364" stroke="#1E1E1E" stroke-width="3.98339" stroke-linecap="round" stroke-linejoin="round"/>
<path d="M60.4917 20.9879C59.2959 22.1837 61.8381 26.1921 62.9197 27.3938C64.6198 29.2827 65.4693 32.9395 65.6061 35.4012C65.7785 38.5039 66.536 41.6027 66.536 44.7001C66.536 47.327 66.071 50.3996 66.071 53.3274C66.071 60.1241 61.8865 66.9504 61.8865 73.7591C61.8865 76.3668 60.0267 79.3286 60.0267 82.1281C60.0267 83.9104 60.0267 85.6927 60.0267 87.475C60.0267 89.2336 60.7746 90.4861 60.9566 92.1244C61.3041 95.2513 64.3043 98.4292 65.7094 100.958C67.5647 104.298 70.8567 106.372 72.4769 109.792C75.7434 116.688 76.2998 124.26 76.2998 131.877C76.2998 134.223 74.4359 137.689 76.9972 137.689C80.4489 137.689 83.7847 136.759 87.3552 136.759C91.6122 136.759 95.7295 136.069 100.012 136.294C101.562 136.376 108.846 137.578 108.846 136.527C108.846 125.562 105.386 112.072 95.3625 106.176C84.3396 99.6921 83.0345 79.58 90.4548 70.0396C92.5708 67.3189 94.2164 62.4025 95.1301 59.1134C96.2455 55.0975 97.6872 50.4192 97.6872 46.3016C97.6872 43.0778 96.7574 39.831 96.7574 36.5636C96.7574 33.8104 97.01 28.2004 95.9308 25.6374C95.4487 24.4924 95.6741 22.8921 95.3367 21.7112C95.2532 21.419 94.3471 21.9178 93.9677 21.9178C93.0378 21.9178 92.1079 21.9178 91.178 21.9178C88.1711 21.9178 84.9359 22.8477 81.6467 22.8477C78.4072 22.8477 75.3347 22.8477 72.3736 22.8477C70.2792 22.8477 64.2588 24.3138 63.2814 22.8477" stroke="#1E1E1E" stroke-width="3.98339" stroke-linecap="round" stroke-linejoin="round"/>
<path d="M103.732 19.5931C103.732 17.4498 105.127 23.7265 105.127 25.8698C105.127 28.6646 104.662 31.5336 104.662 34.213C104.662 39.4787 102.802 44.8408 102.802 50.1761C102.802 55.197 101.384 59.5903 100.503 64.4344C99.5077 69.9084 94.4328 74.9299 94.4328 80.5008C94.4328 84.0875 95.1737 87.0167 95.8018 90.4713C96.3837 93.6716 98.6362 94.6244 100.012 97.0322C101.346 99.3664 105.593 99.3067 107.451 100.958C109.433 102.72 111.479 105.105 111.636 107.933C111.958 113.734 113.496 119.437 113.496 125.368C113.496 127.545 114.302 129.428 114.425 131.645C114.614 135.039 115.442 134.434 118.713 134.434C121.347 134.434 124.189 134.978 124.189 131.412C124.189 129.016 124.654 126.464 124.654 123.973C124.654 118.904 121.667 113.935 121.4 108.862C121.278 106.543 120.014 104.234 119.075 102.121C118.6 101.052 115.768 97.5892 114.632 97.2647C109.685 95.8512 107.451 88.6798 107.451 84.2204C107.451 81.352 108.846 78.8012 108.846 76.0839C108.846 73.5524 111.22 71.1789 111.61 68.6447C112.63 62.0157 114.425 55.7635 114.425 48.9879C114.425 43.5304 115.056 35.4607 112.798 30.4935C111.622 27.9064 111.171 24.2873 111.171 21.4529C111.171 17.7 110.331 18.1982 106.986 18.1982" stroke="#1E1E1E" stroke-width="3.98339" stroke-linecap="round" stroke-linejoin="round"/>
<path d="M50.728 32.6116C52.071 31.2685 50.7648 30.567 52.0195 33.0765C55.0279 39.0934 51.4084 32.4868 51.6579 32.6116" stroke="#FEABF1" stroke-width="3.98339" stroke-linecap="round" stroke-linejoin="round"/>
<path d="M52.1228 33.5415C51.448 33.5415 49.7947 33.2359 51.1929 34.1097C52.07 34.6579 53.2689 36.5474 51.4253 34.7038C50.6496 33.9282 49.0448 30.5768 49.6947 31.6817C50.0932 32.3592 52.5718 35.6133 51.8645 34.7038C51.5761 34.3332 49.7811 31.5752 50.4954 32.1467C52.1388 33.4614 51.754 33.8076 50.8312 32.1467C49.8177 30.3223 48.7703 30.2869 50.4954 30.2869C51.9065 30.2869 54.1412 31.5456 52.1228 30.6485C51.4956 30.3698 50.8778 30.2327 50.263 29.9252C49.7371 29.6623 50.5377 30.2285 50.1596 30.6485C49.3483 31.55 47.5705 31.3875 46.7759 30.7518C44.8438 29.2063 48.7375 32.2708 49.2298 32.6116C51.7933 34.3864 50.306 32.915 49.798 31.0101C48.573 26.4161 50.3341 30.6027 51.5545 32.7149C52.1223 33.6976 55.171 39.5863 54.2408 37.726C53.6165 36.4773 51.199 28.5885 53.156 33.1799C54.2388 35.7204 56.4989 43.685 55.3774 41.1614C54.5848 39.3782 52.9937 33.7426 53.7759 35.5304C54.6256 37.4725 55.1829 39.9573 55.3515 42.0655C55.4189 42.9077 56.042 45.2283 55.4807 44.5968C54.875 43.9155 53.9034 37.3127 54.215 37.3127C55.1073 37.3127 56.8317 45.1432 56.7722 46.095C56.6108 48.6779 55.0977 41.1853 54.5508 38.6559C53.6383 34.4357 56.475 42.2748 56.7722 43.5378C56.9183 44.1589 57.0781 46.4428 56.1006 44.9068C55.8231 44.4707 55.8135 42.3804 55.8423 42.8404C56.0241 45.749 54.9124 48.5142 54.9124 51.416C54.9124 51.9286 55.6564 46.9155 56.0489 45.6817C57.45 41.2785 54.9123 50.2927 54.4475 51.571C52.7375 56.2736 54.6311 52.585 55.584 50.0729C55.9954 48.9883 58.3061 40.8805 57.5988 44.3385C56.933 47.5934 54.9554 57.3485 55.8681 54.154C56.7232 51.1615 60.803 42.9423 58.7353 45.2684C56.0895 48.245 55.6164 53.9986 54.6799 57.7444C54.0951 60.0837 53.9825 61.8386 53.9825 58.6485" stroke="#FEABF1" stroke-width="3.98339" stroke-linecap="round" stroke-linejoin="round"/>
<path d="M56.7722 51.6743C53.7263 54.7202 53.0412 61.3226 51.8903 65.2869C51.6389 66.1525 49.764 71.4773 50.9604 68.154C51.7669 65.9137 52.142 63.5211 53.0268 61.309C54.8329 56.7935 47.6499 80.0025 49.1006 75.3607C49.4992 74.0852 49.4542 72.6279 49.6947 71.3053C49.7103 71.2196 49.8416 69.311 50.0046 69.4197C50.7138 69.8925 48.2234 79.0767 47.9641 79.9843C46.8259 83.968 47.6221 82.7814 48.0415 79.4677C48.4824 75.985 51.3679 65.9441 49.798 69.0839C48.2378 72.2043 48.7403 76.8972 47.9382 80.2942C47.7062 81.2768 45.6553 88.7997 46.4401 84.7887C47.2426 80.687 47.2048 76.4026 48.0415 72.3385C48.7144 69.0704 46.8571 78.9095 46.0784 82.154C45.2829 85.4688 43.9334 89.1749 43.7537 92.5894C43.6626 94.3198 44.0897 91.2454 44.2187 90.7297" stroke="#FEABF1" stroke-width="3.98339" stroke-linecap="round" stroke-linejoin="round"/>
<path d="M45.6136 84.2204C45.6136 82.8669 44.0864 86.8333 43.9862 87.2942C43.8233 88.0436 42.2972 95.3274 43.9604 95.3274C45.9253 95.3274 45.7428 86.6634 45.3553 85.6669C44.8516 84.3716 43.9438 84.6484 43.6505 85.8219C43.128 87.9119 43.5105 90.253 44.0121 92.3311C44.5767 94.6701 45.4457 97.0147 46.1818 93.416C46.6535 91.1098 46.4981 89.0272 46.0527 86.7259C45.9704 86.301 44.8133 81.9943 44.322 83.6521C43.2072 87.4145 44.2782 93.8382 46.0785 97.2388C47.6317 100.173 47.4863 92.2997 47.0084 91.1946C45.1593 86.9187 46.3185 96.0989 46.7759 97.4713C47.2064 98.7627 47.7945 102.434 48.4032 101.217C49.094 99.8352 47.6243 96.2535 47.215 94.9141C47.0114 94.2476 45.7341 90.0064 44.6837 90.0064C43.6799 90.0064 45.0648 95.4236 45.1745 95.844C45.4868 97.0413 49.8312 107.103 48.6099 102.043C47.9936 99.4903 46.981 97.049 45.6394 94.785C45.4782 94.513 43.7538 91.7316 43.7538 93.1577C43.7538 95.0331 45.29 97.0388 46.0527 98.6595C47.0454 100.769 47.6303 103.44 49.3331 105.143C50.2898 106.1 49.1538 102.339 49.1006 102.121C48.4781 99.5615 47.0795 97.6466 46.0785 95.2757C44.0532 90.4789 45.768 95.3001 46.5434 97.2389" stroke="#FEABF1" stroke-width="3.98339" stroke-linecap="round" stroke-linejoin="round"/>
<path d="M44.2188 94.9141C43.4523 94.9141 46.4251 100.176 46.6986 100.648C47.3122 101.708 48.4034 105.128 48.4034 103.903C48.4034 101.772 47.2066 100.149 46.1045 98.427C44.6851 96.2093 41.9093 93.9713 43.3923 98.272C43.9373 99.8527 47.414 104.549 45.872 100.648C45.4407 99.5576 44.8004 96.9422 43.9864 96.1281C42.894 95.0357 44.7278 99.202 45.6137 100.468C46.2998 101.448 48.5586 105.648 47.9126 102.095C47.1454 97.8755 48.7777 102.317 50.7281 104.213C54.8569 108.227 53.9776 102.453 52.0196 100.028C47.2566 94.1314 53.185 105.341 54.4476 107.235C54.7687 107.717 57.0712 111.644 56.2816 109.276C55.3046 106.345 52.7452 103.89 51.3738 101.088C50.2409 98.7723 47.2564 91.7517 47.6801 94.2942C48.2559 97.749 50.4655 101.139 52.0196 104.213C53.5616 107.263 56.7525 111.048 57.2373 114.442C57.4911 116.218 54.9824 111.644 53.9827 110.154C51.9083 107.062 50.3964 103.589 47.9642 100.752C47.5902 100.315 49.2266 104.144 49.5657 104.704C51.4317 107.787 53.7965 110.856 55.3259 114.106C56.1325 115.82 54.2354 112.511 53.9569 112.065C51.989 108.917 50.3238 105.687 48.5067 102.457C46.8362 99.4868 49.7401 103.586 50.1598 104.316C52.0294 107.568 54.3914 110.648 56.1008 113.977C56.9383 115.608 56.7694 114.904 55.8425 113.977" stroke="#FEABF1" stroke-width="3.98339" stroke-linecap="round" stroke-linejoin="round"/>
<path d="M56.3074 111.187C56.3074 108.254 56.3106 110.731 57.0306 112.582C58.7034 116.884 61.037 121.417 62.2483 125.859C63.245 129.514 59.0148 118.941 58.193 115.243C57.4818 112.043 60.5919 121.371 61.3184 124.567C61.9859 127.504 60.8523 123.738 60.4919 122.811C58.9896 118.948 58.2079 114.87 57.4955 110.8C57.106 108.574 56.9742 108.103 57.8055 110.464C59.2712 114.627 60.1884 119.04 60.9568 123.379C61.3128 125.389 61.4477 131.334 62.0933 129.398C63.008 126.654 60.9373 122.165 60.2852 119.556C59.7092 117.252 58.6321 114.354 58.6321 111.962C58.6321 109.026 60.0215 117.67 60.8535 120.486C61.7296 123.451 62.0731 126.573 63.0491 129.501C63.4302 130.644 63.8576 133.344 63.2815 130.896C62.5898 127.956 61.4773 125.142 61.4218 122.088C61.3493 118.101 62.5447 124.048 62.8166 125.136C63.0503 126.071 65.1712 134.576 63.9531 130.922C63.3369 129.073 62.8166 127.472 62.8166 125.497C62.8166 124.196 62.8166 127.954 62.8166 128.39C62.8166 130.838 62.3516 133.272 62.3516 135.597C62.3516 136.389 63.0335 136.532 63.3849 135.829C63.519 135.561 63.8708 133.246 64.2114 133.246C65.15 133.246 64.0945 135.134 64.2372 136.062C64.274 136.301 64.9082 138.621 65.1155 137.896C65.5398 136.41 64.5431 133.77 63.7465 132.575" stroke="#FEABF1" stroke-width="3.98339" stroke-linecap="round" stroke-linejoin="round"/>
<path d="M109.197 24.1589C109.768 23.0174 109.651 24.7469 109.573 25.3113C109.36 26.8529 108.569 31.4408 108.997 29.9444C109.448 28.3669 108.778 26.3544 108.456 24.7821C108.411 24.5644 108.008 22.6518 107.927 22.9359C107.483 24.4902 107.45 26.1329 107.551 27.7337C107.582 28.2407 107.901 31.5152 107.668 30.9322C107.318 30.0574 107.414 28.8974 107.292 27.9689C107.051 26.1325 106.816 24.2387 106.669 22.395C106.534 20.7098 107.246 23.3497 107.292 23.759C107.429 24.9966 107.503 26.1943 107.503 27.4397C107.503 27.5349 107.473 29.3422 107.339 29.1918C107.003 28.8144 107.292 27.1041 107.292 26.6518C107.292 25.2634 107.097 23.8982 107.08 22.5126C107.076 22.1789 107.269 20.8351 107.292 21.8776C107.334 23.829 107.334 25.8002 107.174 27.7454C106.774 32.6001 106.065 37.8736 106.551 42.7385C106.56 42.8244 106.868 44.6585 106.868 43.9379C106.868 42.3938 107.263 40.7935 107.339 39.2342C107.494 36.057 107.927 26.5282 107.927 29.7092C107.927 35.3197 106.812 41.0282 106.034 46.572C105.739 48.6686 105.15 51.0915 105.493 53.216C105.769 54.9271 106.167 51.564 106.233 51.1346C107.252 44.5647 108.139 37.7699 108.139 31.1086C108.139 25.4209 107.819 42.4876 108.033 48.1713C108.153 51.3818 108.154 54.6252 108.456 57.8256C108.571 59.0442 108.578 60.0259 108.562 58.0961C108.498 50.6571 107.694 43.1417 108.186 35.7065C108.22 35.1851 108.535 33.5755 108.726 35.0479C109.191 38.6243 109.134 42.3956 109.185 45.9958C109.245 50.224 109.343 54.5093 109.079 58.7311C108.998 60.0275 108.37 63.8135 108.891 62.6234C109.517 61.1938 109.369 59.127 109.397 57.614C109.494 52.2867 109.6 46.9613 109.62 41.6331C109.63 39.1095 109.668 36.5427 109.996 34.0366C110.131 33.0142 110.043 37.2428 110.043 37.5997C110.043 41.8847 110.223 46.1355 110.573 50.4055C110.747 52.5368 111.452 58.9037 111.055 56.8026C110.531 54.0365 110.667 51.0437 110.42 48.2418C110.026 43.7782 109.719 39.3096 109.456 34.8363C109.441 34.5826 109.253 30.7819 109.361 30.8146C110.243 31.0789 110.492 35.6025 110.596 36.3415C111.073 39.7176 111.741 43.1274 111.925 46.5367C111.966 47.2986 112.241 48.8565 111.937 49.6177C111.516 50.6705 111.197 47.4645 110.996 46.3486C110.355 42.7988 109.679 38.8258 110.091 35.2126C110.703 29.8411 110.136 46.0597 109.408 51.4168C108.908 55.1018 108.228 58.8226 107.033 62.353C106.644 63.5038 105.81 67.0017 105.81 65.7867C105.81 60.5364 106.835 55.0836 108.044 50.0057C109.488 43.9414 107.37 62.4891 106.245 68.6206C105.864 70.7009 105.345 72.7606 104.764 74.7943C104.215 76.7129 104.799 70.803 104.869 68.8088C105.032 64.2431 105.41 59.7352 106.233 55.2386C106.469 53.9541 106.701 52.6598 107.068 51.4051C107.11 51.2623 107.304 50.0843 107.292 50.8524C107.25 53.3863 106.638 55.9058 106.139 58.3783C105.21 62.9927 104.172 67.6253 102.518 72.0426C102.353 72.4833 100.886 77.134 100.354 77.1931C100.31 77.198 100.467 76.098 100.471 76.0643C100.633 74.7241 100.84 73.3944 101.083 72.0661C101.841 67.9194 102.792 63.75 104.54 59.8953C104.757 59.4177 107.268 55.1483 107.268 56.1911C107.268 58.9255 106.055 61.9849 105.281 64.5519C104.06 68.6023 102.523 72.3759 100.918 76.2759C100.44 77.4383 99.1083 80.9525 99.4131 79.7332C100.001 77.3813 100.362 74.9758 100.989 72.6305C101.728 69.8647 102.614 67.1226 103.693 64.4696C104.515 62.45 103.414 65.9669 103.258 66.4099C101.599 71.1404 100.053 75.9302 98.7428 80.768C98.5278 81.5621 98.6313 82.1158 98.931 81.0502C99.3974 79.3918 99.2485 77.6031 99.2485 75.8996C99.2485 74.174 99.4016 77.4524 99.4602 77.8517C99.7506 79.8335 99.9997 81.8227 100.307 83.8019C100.339 84.0103 100.708 86.7205 101.153 86.0126C101.85 84.906 101.096 82.1967 100.918 81.0267C100.662 79.3441 100.612 76.3111 99.4602 74.9118C99.0239 74.3822 99.1194 78.1076 99.1544 78.4631C99.4981 81.9493 99.5348 86.35 101.153 89.5874C102.306 91.8915 100.166 84.5239 99.4484 82.0497C99.312 81.5792 98.3073 78.3365 98.2019 80.3917C98.082 82.7308 98.4445 84.9915 98.8722 87.2826C99.1398 88.7162 99.4113 90.6041 100.518 91.6806C101.177 92.3207 101.655 91.5867 101.741 90.9045C101.955 89.2212 101.292 87.2498 100.777 85.6833C100.416 84.583 99.3611 80.027 97.9197 79.839C96.5627 79.662 99.9516 91.1583 100.518 92.292C102.652 96.559 102.966 91.3762 103.106 89.2346C103.284 86.4897 102.843 83.6636 102.423 80.9561C102.355 80.5114 101.263 76.8393 101.201 77.1696C100.797 79.2879 101.564 82.1575 101.836 84.2722C102.211 87.1896 102.586 90.3455 103.47 93.1622C103.888 94.4943 104.235 94.1947 104.328 92.9623C104.571 89.7437 104.499 86.578 104.376 83.355C104.263 80.4397 104.071 77.539 103.905 74.6296C103.836 73.4183 103.693 77.05 103.693 78.2632C103.693 81.1687 103.784 84.0883 103.588 86.9886C103.556 87.4508 103.681 90.5037 103.788 90.2459C104.508 88.4963 103.94 85.4969 104.023 83.6843C104.142 81.0869 104.292 78.4831 104.693 75.9114C104.982 74.0573 105.202 71.059 106.398 69.4791C107.267 68.3307 106.274 72.3651 106.022 73.783C105.555 76.4063 104.966 78.9438 104.211 81.497C103.76 83.023 104.039 83.3291 104.328 81.5911C104.977 77.7027 105.977 73.8973 107.621 70.3022C108.219 68.9949 108.824 67.6842 109.467 66.3981C109.616 66.1006 109.94 65.2551 110.032 65.575C110.336 66.639 109.331 68.3625 108.997 69.3144C108.395 71.03 107.405 72.4766 106.445 74.0064C106.32 74.2061 104.548 76.821 104.963 75.4998C105.432 74.0123 105.814 72.5045 106.328 71.0313C106.78 69.7341 107.35 65.9283 108.644 65.1517C108.645 65.151 108.46 66.1866 108.456 66.21C108.259 67.2852 108.128 68.3667 108.033 69.4555C107.6 74.4051 107.009 79.3365 106.445 84.2722" stroke="#FEABF1" stroke-width="3.98339" stroke-linecap="round" stroke-linejoin="round"/>
<path d="M106.445 90.6222C105.667 90.6222 108.38 96.28 108.574 96.6547C109.137 97.7469 110.447 99.8587 108.985 97.6072C107.522 95.3527 105.958 92.4412 103.729 90.8809C102.998 90.3692 103.459 91.7721 103.529 91.9745C104.168 93.821 105.167 95.4734 106.28 97.0663C107.285 98.5041 110.722 102.492 109.702 101.064C108.042 98.7394 106.236 96.4357 104.375 94.2676C103.487 93.2328 102.577 91.7256 101.412 90.975C100.536 90.4106 101.394 91.9705 101.494 92.1274C102.84 94.2338 104.817 96.3952 106.974 97.6896C107.765 98.1639 108.827 98.7382 109.761 98.842C110.182 98.8887 108.654 97.2747 108.562 97.1839C106.299 94.947 103.698 92.9141 100.648 91.9158C100.079 91.7296 99.1412 91.3387 98.5429 91.6806C98.4369 91.7411 100.467 93.3448 100.683 93.4915C102.912 95.0047 105.409 95.9535 107.833 97.1016C108.955 97.6333 110.04 98.2899 111.078 98.9713C111.681 99.3666 112.073 99.5737 111.266 99.0419C110.119 98.2853 107.515 95.7807 107.327 94.3734C107.306 94.2119 108.817 96.1948 108.973 96.4548C110.156 98.4176 111.334 100.372 112.63 102.264C113.816 103.994 117.546 108.954 115.923 107.626C114.113 106.146 112.748 103.326 111.654 101.347C111.587 101.224 110.591 99.0986 110.808 99.7004C111.459 101.51 112.07 103.361 112.536 105.227C113.274 108.179 113.512 111.187 114.053 114.164C114.733 117.902 112.391 99.2685 113.865 102.77C116.408 108.809 119.507 128.366 117.969 121.996C116.99 117.939 116.442 113.644 116.099 109.496C116.094 109.425 115.876 106.413 116.099 107.132C116.756 109.248 117.109 111.487 117.452 113.67C118.2 118.429 118.833 123.096 118.522 127.911C118.471 128.694 118.319 128.153 118.181 127.687C117.574 125.645 117.394 123.519 117.193 121.408C116.818 117.466 115.968 105.619 116.405 109.555C116.931 114.285 117.142 119.03 117.405 123.783C117.466 124.899 118.015 128.428 117.311 125.547C116.366 121.683 116.147 118.278 116.393 114.329" stroke="#FEABF1" stroke-width="3.98339" stroke-linecap="round" stroke-linejoin="round"/>
<path d="M115.97 100.994C114.496 100.257 115.318 101.092 115.782 102.123C116.576 103.888 117.24 105.721 118.087 107.462C118.155 107.602 118.954 109.379 118.816 109.319C118.158 109.037 117.584 107.816 117.193 107.297C115.99 105.7 115.219 103.791 113.877 102.299C113.305 101.664 113.283 101.695 113.736 102.523C114.789 104.449 115.646 106.467 116.711 108.39C117.418 109.668 118.269 110.928 118.804 112.295C119.18 113.256 118.41 112.218 118.251 111.954C116.868 109.648 118.311 113.485 118.498 114.329C119.005 116.609 119.227 118.979 119.568 121.29C119.734 122.417 119.723 124.276 120.321 125.3C120.621 125.815 120.292 123.202 120.274 123.101C119.939 121.198 119.465 119.279 119.58 117.328C119.68 115.623 120.323 116.897 120.627 117.763C121.262 119.575 121.262 121.416 121.262 123.313C121.262 123.478 121.18 126.018 120.932 125.841C120.057 125.216 120.094 122.967 119.992 122.09C119.744 119.982 119.701 117.872 119.992 115.764C120.485 112.183 121.327 123.017 120.732 126.582C120.652 127.065 119.687 130.717 119.568 130.51C118.997 129.511 117.688 128.965 116.699 128.511C116.244 128.302 115.531 128.167 115.029 128.311C114.868 128.357 116.54 129.42 116.77 129.522C117.266 129.741 120.777 130.921 118.933 129.945C117.901 129.399 121.187 130.556 122.32 130.839" stroke="#FEABF1" stroke-width="3.98339" stroke-linecap="round" stroke-linejoin="round"/>
<path d="M101.153 76.6522C103.051 76.6522 101.452 83.0752 101.377 84.2722C101.22 86.7879 101.375 83.8529 101.365 82.9786C101.358 82.3858 100.942 76.9931 100.201 77.1578C99.7039 77.2682 99.6043 79.8371 99.5541 80.1799C99.2591 82.1914 98.8223 84.178 98.5193 86.1889C98.3911 87.0394 98.0929 87.9991 98.2018 88.87C98.2552 89.2973 98.9967 87.541 99.0367 87.3531C99.6344 84.5439 100.289 80.4383 98.7192 77.781C98.1461 76.8112 97.8867 79.3172 97.8725 79.4274C97.5711 81.7717 97.5409 84.0976 97.555 86.4594C97.5605 87.3839 97.6011 90.6543 99.0837 88.8348C101.149 86.2998 101.7 82.7673 100.918 79.639C100.604 78.3823 100.106 76.9158 99.2836 75.8878C98.9717 75.498 98.6197 79.4036 98.6133 79.8977C98.5696 83.3098 98.5019 87.2225 99.6717 90.4811C100.465 92.6912 101.441 89.6822 101.788 88.6701C102.363 86.9956 102.458 85.2308 102.118 83.4961C101.947 82.626 101.645 80.0153 100.636 79.5567C100.179 79.349 100.404 82.0973 100.412 82.2378C100.563 84.7135 100.464 87.1888 100.73 89.6579C100.814 90.4385 101.501 96.1492 102.847 93.2327C104.04 90.6467 104.425 87.6961 104.175 84.8719C104.015 83.0485 103.627 81.0702 102.953 79.3568C102.24 77.5476 102.212 80.3934 102.212 80.862C102.212 84.8864 102.592 88.9272 103.682 92.8094C103.742 93.024 104.005 94.8348 104.54 94.491C105.469 93.8939 105.592 91.1204 105.716 90.1753C106.169 86.7206 106.473 81.4135 104.54 78.2985C103.806 77.1164 103.502 78.8553 103.388 79.4391C102.894 81.9672 102.991 84.5991 103.317 87.1414C103.574 89.145 103.754 91.2755 104.375 93.2092C104.429 93.3766 104.926 94.9327 105.293 94.2323C105.954 92.9696 105.838 91.1887 105.916 89.8108C106.086 86.7826 105.861 83.7844 105.598 80.7679C105.443 78.9799 105.112 77.3217 104.634 75.5938C104.483 75.0491 104.218 74.0649 104.07 75.147C103.496 79.3349 103.331 83.8446 103.493 88.0704C103.615 91.2353 104.717 89.3297 105.175 87.4237C106.303 82.7272 107.298 77.5419 107.492 72.701C107.536 71.5946 107.524 71.54 107.386 72.7246C107.125 74.9626 106.84 77.1847 106.445 79.4038C105.963 82.1119 104.176 90.0849 105.304 87.5765C105.958 86.123 106.222 84.463 106.574 82.9199C107.37 79.4321 108.304 75.9768 109.103 72.4894C109.472 70.8758 109.84 69.226 109.996 67.574C110.089 66.5941 109.051 69.6648 108.95 69.9847C107.613 74.217 106.307 78.4491 105.187 82.7435C104.417 85.6933 105.62 82.7656 105.857 81.497C106.721 76.8667 107.508 72.2698 108.021 67.5858C108.107 66.7962 108.454 65.2008 108.021 64.4578C107.872 64.2029 107.667 64.9422 107.574 65.2222C106.958 67.0707 106.504 68.9693 105.975 70.8431C104.668 75.4665 103.429 80.1844 101.835 84.719C101.135 86.7115 102.69 81.8844 102.764 81.544C103.911 76.3077 105.631 71.225 106.821 65.9983C106.9 65.6529 107.651 62.1064 106.21 63.4583C105.222 64.3853 104.533 65.7461 103.881 66.9037C102.378 69.5739 100.987 72.315 99.5893 75.0411C98.0435 78.0563 96.6703 81.1496 95.1561 84.1781C95.1352 84.2199 94.082 86.1066 94.5093 86.1066C95.0352 86.1066 96 84.137 96.1909 83.7783C97.453 81.4071 98.373 78.8708 99.2013 76.3229C100.48 72.3908 102.475 67.3434 101.671 63.0937C101.448 61.9184 100.982 64.2443 100.93 64.446C100.179 67.3575 99.5243 70.3068 98.872 73.242C98.438 75.1952 97.9785 77.1425 97.555 79.0981C97.4865 79.4144 96.709 82.0714 97.0493 82.3436C97.3817 82.6096 100.796 73.8301 101.036 73.1949C102.28 69.8973 103.609 66.6271 104.54 63.2231C105.098 61.182 106.506 58.0442 106.104 55.8735C105.946 55.0178 105.463 56.1831 105.375 56.4027C104.351 58.9615 103.934 61.8113 103.223 64.4696C102.82 65.9761 102.319 67.5686 102.47 69.1498C102.492 69.3758 102.519 70.3087 102.941 69.9494C103.824 69.1964 104.108 67.6685 104.493 66.6333C105.596 63.6683 106.356 60.5535 107.151 57.4963C107.771 55.1097 108.374 52.7204 108.644 50.2644C108.765 49.1652 109.198 46.044 108.562 46.9482C107.659 48.2308 107.538 50.5067 107.245 51.9812C106.637 55.0344 105.929 58.0669 105.504 61.1534C105.38 62.0543 104.676 67.4635 105.857 63.9757C107.787 58.2757 108.749 52.0254 109.502 46.0663C109.682 44.6431 110.082 42.8581 109.726 41.4332C109.505 40.551 109.403 43.2238 109.291 44.126C108.776 48.2567 108.278 52.3897 107.762 56.5203C107.726 56.8111 107.38 59.4831 107.715 57.6727C108.04 55.9128 108.328 54.1487 108.679 52.3928C109.237 49.6027 109.909 46.8278 110.549 44.0555C110.894 42.5583 110.945 40.6431 111.513 39.2224C112.271 37.3289 111.01 43.2723 110.643 45.2784C109.742 50.209 108.567 55.1216 107.927 60.0951C107.921 60.1355 107.648 62.4996 107.927 62.3294C108.769 61.8146 109.3 58.8543 109.549 58.0725C110.547 54.9519 111.528 51.7612 112.231 48.5593C112.461 47.5105 112.972 44.1987 112.583 47.207C111.881 52.6396 110.704 57.9449 109.009 63.1525C108.909 63.4568 108.719 64.5338 108.785 63.5759C108.926 61.5264 109.376 59.4916 109.785 57.4846C110.127 55.8016 110.123 52.5892 111.219 51.2051C111.446 50.9185 111.313 51.9333 111.302 52.2987C111.26 53.5981 111.137 54.8922 110.878 56.1675C110.706 57.0194 110.148 60.6974 108.773 60.3538" stroke="#FEABD9" stroke-width="3.98339" stroke-linecap="round" stroke-linejoin="round"/>
<path d="M109.62 38.1289C109.079 36.5067 109.033 39.0045 108.973 39.6341C108.884 40.5748 107.701 50.7985 107.339 50.7583C107.283 50.7521 107.05 40.035 106.974 39.3518C106.868 38.3968 106.992 35.4843 106.233 34.7657C105.872 34.4236 105.884 35.7067 105.822 36.2004C105.557 38.3177 105.569 40.468 105.493 42.5974C105.483 42.8565 105.144 51.3698 105.598 51.3698C105.971 51.3698 105.81 40.7107 105.81 40.0456C105.81 37.5873 105.554 30.2506 105.975 32.6726C106.34 34.7709 106.007 37.2162 105.904 39.3166C105.767 42.115 105.557 44.9236 105.175 47.7009C104.978 49.1343 104.752 50.5524 104.752 52.0048C104.752 53.4091 105.394 51.2866 105.481 50.9465C106.835 45.6526 106.991 39.8264 107.456 34.413C107.614 32.5762 107.927 30.6628 107.927 28.8155C107.927 27.9319 107.615 30.0883 107.609 30.1561C107.281 34.3612 107.164 38.9158 107.515 43.1266C107.656 44.8181 107.558 39.7291 107.456 38.0348C107.316 35.6955 107.094 33.3723 107.08 31.0263C107.072 29.7205 106.552 25.969 107.186 27.1104C107.561 27.7854 107.543 29.1484 107.715 29.9092C108.184 31.9841 108.41 34.1061 108.773 36.2004C108.864 36.7217 109.653 42.4193 109.62 39.2578C109.577 35.1045 109.197 30.9657 109.197 26.7929C109.197 26.7728 109.251 24.5502 109.091 25.1584C108.637 26.8815 109.062 29.0591 109.197 30.7911C109.456 34.1275 109.582 37.5454 110.055 40.857C110.445 43.5887 109.756 35.3463 109.62 32.5903C109.487 29.897 109.197 21.8151 109.197 24.5116C109.197 26.7492 109.527 28.7636 109.938 30.9557C110.1 31.8242 110.872 34.8803 110.42 32.3668C109.822 29.0475 109.374 25.2243 108.091 22.0892C106.493 18.1814 106.382 25.8767 107.339 25.6641C107.978 25.5221 106.986 16.2328 106.445 20.5605C106.194 22.5681 106.022 24.531 106.022 26.5578C106.022 27.8297 106.356 26.9479 106.551 26.1462C106.857 24.8877 107.417 21.8946 107.927 24.8644C108.5 28.2049 108.209 31.8741 107.503 35.1655" stroke="#FEABD9" stroke-width="3.98339" stroke-linecap="round" stroke-linejoin="round"/>
<path d="M108.138 99.0889C108.871 99.8221 109.963 100.092 110.725 100.829C111.39 101.472 111.758 102.456 112.054 103.31C112.472 104.519 112.148 103.745 111.525 103.111C110.084 101.643 108.58 100.235 107.221 98.6891C106.68 98.0733 105.958 97.3865 105.587 96.643C105.574 96.6178 106.656 97.8589 106.868 98.1952C108.499 100.777 113.966 108.068 111.807 105.909C110.631 104.733 109.729 102.955 108.797 101.605C107.207 99.3025 105.439 96.8692 104.446 94.2206C103.452 91.5692 105.102 93.5105 105.975 94.6909C107.957 97.3745 109.696 100.179 111.302 103.099C112.466 105.216 113.326 107.415 113.971 109.743C114.413 111.341 112.448 108.273 112.278 107.955C112.092 107.609 110.48 104.767 110.937 104.31C111.104 104.143 112.305 108.545 112.325 108.684C112.731 111.607 113.007 114.52 113.007 117.469C113.007 117.656 113.076 120.239 113.265 119.103C113.662 116.722 113.11 114.232 112.795 111.871C112.572 110.198 112.39 108.523 112.278 106.838C112.246 106.368 111.768 103.651 112.207 103.252C112.299 103.168 113.004 104.844 113.007 104.851C113.689 106.537 114.348 108.24 114.888 109.978C115.821 112.98 116.375 116.072 116.981 119.15C117.045 119.475 117.582 122.412 117.334 121.702C116.627 119.683 116.231 117.501 115.747 115.423C115.341 113.682 114.903 111.948 114.524 110.201C114.505 110.117 114.176 107.494 114.324 107.626C115.128 108.344 115.438 110.477 115.711 111.413C116.309 113.456 116.859 115.535 117.228 117.633C117.73 120.488 117.749 123.362 118.087 126.229C118.445 129.274 117.911 125.76 117.663 124.771C116.792 121.284 116.017 117.727 115.453 114.176C115.383 113.739 115.298 113.13 115.57 114.023C116.044 115.581 116.353 117.208 116.558 118.821C117.023 122.486 116.601 126.182 116.922 129.851C116.966 130.344 116.822 131.477 117.075 131.921C117.34 132.384 117.206 130.85 117.134 130.322C116.8 127.849 116.761 125.287 116.558 122.796C116.467 121.68 116.291 120.574 116.229 119.456C116.227 119.433 116.128 117.182 116.523 118.033C117.527 120.196 117.698 122.73 118.251 125.03C118.305 125.255 118.914 128.272 119.251 127.934C120.162 127.023 120.066 123.941 120.203 122.749C120.376 121.254 120.458 119.751 120.627 118.257C120.701 117.598 121.049 115.688 121.673 117.28C123.001 120.666 123.098 131.723 123.167 128.087C123.203 126.135 122.88 124.209 122.743 122.266C122.71 121.791 122.584 117.709 123.002 119.174C123.881 122.249 123.248 125.547 122.532 128.581C122.23 129.857 122.048 126.961 121.991 126.57C121.786 125.164 121.189 123.766 121.05 122.372C120.898 120.849 121.581 125.395 121.661 126.923C121.72 128.038 121.666 131.352 121.908 130.263C122.265 128.66 121.934 127.043 121.638 125.453C120.827 121.101 119.708 116.766 118.51 112.506C117.787 109.937 117.142 107.099 115.97 104.686C115.346 103.402 117.012 107.346 117.569 108.661C118.661 111.237 119.772 113.853 121.215 116.257C121.841 117.301 120.346 113.977 119.768 112.906C118.149 109.906 116.559 106.826 115.1 103.746C114.413 102.296 115.205 103.988 115.382 104.381C116.04 105.841 116.741 107.273 117.452 108.708C118.133 110.083 118.869 111.313 119.662 112.612C120.291 113.64 119.557 111.571 119.474 111.366C118.489 108.929 117.127 106.615 116.005 104.239C115.677 103.544 113.827 99.5091 115.347 102.193C116.282 103.846 117.234 105.427 118.345 106.968C118.95 107.807 119.377 108.189 118.792 106.979C118.068 105.483 117.119 103.978 116.229 102.57C115.078 100.751 115.992 103.553 116.182 104.169" stroke="#FEABD9" stroke-width="3.98339" stroke-linecap="round" stroke-linejoin="round"/>
<path d="M51.6234 30.0856C50.9783 30.0856 50.6498 30.2763 50.9413 30.9323C51.7225 32.6899 50.5804 31.6715 49.7066 31.3438C48.8893 31.0373 47.968 30.5465 47.2254 30.0856C46.2046 29.452 47.4789 31.4191 47.6017 31.6613C48.4632 33.3611 51.4307 38.2162 50.224 36.7413C49.394 35.7269 48.5172 34.8986 47.8604 33.731C47.3882 32.8915 45.8468 30.6014 46.6727 31.0969C47.4136 31.5414 48.1504 33.1388 48.7776 33.8015C49.2612 34.3125 49.5819 34.9267 50.0359 35.4596C50.0629 35.4913 50.7799 36.3415 50.7297 36.3415C50.0961 36.3415 48.4719 31.7733 48.4719 31.2027C48.4719 29.8982 49.6243 33.5447 50.1417 34.7423C51.1402 37.0536 52.226 39.3766 53.4343 41.5862C54.3234 43.2119 52.9087 39.9991 52.7875 39.5989C52.292 37.9614 51.7732 36.3077 51.835 34.5776C51.8652 33.7317 52.7786 35.7796 52.811 35.8712C53.6454 38.2269 54.6899 40.5058 55.5157 42.8562C55.5632 42.9915 55.9883 44.7298 55.598 44.0556C54.8622 42.7847 54.3671 41.6281 53.9517 40.1986C53.6473 39.151 53.4415 38.0894 53.3637 37.0001C53.3599 36.9459 53.2919 35.1582 53.6342 36.0711C54.3698 38.0327 54.8755 40.2714 55.304 42.3152C55.5948 43.7022 55.8986 45.1708 55.8567 46.5956C55.8353 47.3225 55.0057 45.0026 54.9277 44.6906C54.7839 44.1154 54.2488 41.6715 55.01 41.351C55.6949 41.0626 56.8027 45.1443 56.915 45.5373C56.9972 45.8248 57.9522 50.157 56.1624 49.018C55.0051 48.2815 54.9837 46.5776 55.2217 45.3727C55.4047 44.4464 55.8631 43.4893 56.3976 44.8552C56.9768 46.3353 56.9545 48.2255 56.6681 49.7471C56.2966 51.7205 55.711 55.2122 53.9987 56.544C52.3743 57.8074 53.9131 50.9863 54.2339 50.3233C54.4389 49.8997 56.9215 45.2023 57.3384 46.3604C58.0555 48.3524 57.0539 51.4424 56.4447 53.3219C56.2341 53.9715 54.7885 58.9979 53.8694 58.8958C53.2987 58.8324 54.539 52.5913 54.7043 52.0166C55.2958 49.9605 56.2655 47.8209 57.6206 46.1488C58.8686 44.6087 58.9797 46.6487 58.9024 47.701C58.6646 50.9342 57.8671 54.0409 56.5387 56.9908C56.4524 57.1825 54.1978 61.3507 53.9047 60.354C53.4537 58.8208 53.8539 57.0242 54.0575 55.4856C54.2957 53.6859 54.893 48.9831 56.8798 48.089C57.2377 47.928 57.1607 48.5588 57.162 48.6652C57.1767 49.8456 56.9763 51.1603 56.7622 52.2871C56.0604 55.9796 54.8462 59.5422 53.1991 62.9175C52.2405 64.8819 52.6028 62.7987 52.7287 61.9297C52.8781 60.8993 53.122 59.4183 53.6342 58.5078C54.0004 57.8567 53.9668 60.507 53.9517 60.6127C53.602 63.0607 52.9723 65.6095 52.0114 67.8917C51.6894 68.6565 49.7184 73.2044 49.7184 70.3729C49.7184 68.1831 49.9338 65.8804 50.4004 63.7406C50.5979 62.8347 52.9189 55.9887 53.4343 58.9664C54.3051 63.9975 52.1183 70.9332 49.1539 74.9237C48.4134 75.9206 49.7809 71.3202 49.9065 71.0314C49.9918 70.8354 52.0036 66.0186 52.1408 67.5271C52.3777 70.1335 51.1424 73.1986 50.2593 75.594C49.1631 78.5671 47.7745 81.5709 45.9554 84.1782C45.0783 85.4354 44.9195 85.5896 45.1558 84.0371C45.6415 80.8451 46.3395 77.8999 47.7898 74.9707C48.3296 73.8806 51.6162 68.0069 50.9884 72.2543C50.5279 75.3693 49.4016 78.4189 48.0721 81.2619C47.2707 82.9756 44.9087 87.9774 45.097 86.095C45.2751 84.3135 45.9598 82.1563 46.5434 80.4858C46.6482 80.1857 47.7857 76.8986 48.319 78.4985C49.0857 80.7987 47.7344 84.5061 47.1666 86.7065C46.5408 89.1315 45.997 91.8452 44.9441 94.1266C44.8865 94.2514 45.1835 91.058 45.2263 90.3871C45.3415 88.5833 45.5915 83.174 45.3557 84.9661C44.9616 87.9612 44.906 90.9883 44.5443 93.9855C44.3842 95.312 44.6384 97.1918 44.6384 94.7616C44.6384 93.7316 44.5412 92.7074 44.4737 91.6807C44.4307 91.0258 43.995 89.1541 44.3326 89.7169C45.223 91.2008 45.2541 93.7658 45.6497 95.4436C45.7429 95.8393 46.9907 100.453 47.6487 99.7946C48.5352 98.908 48.8447 96.2443 48.8129 95.1144C48.7464 92.7534 47.8912 89.5591 46.026 87.9177C44.6335 86.6923 44.7366 88.8579 44.8971 89.7051C45.4377 92.5597 46.2003 95.3113 47.7428 97.7955C47.9703 98.1619 50.3196 102.016 51.1765 101.159C51.9803 100.355 50.919 98.3748 50.471 97.6779C49.4961 96.1614 48.1254 94.3715 46.367 93.7268C44.3745 92.9962 45.8021 97.176 46.0495 97.8072C47.2209 100.796 49.0236 103.936 50.6826 106.685C52.0116 108.888 51.6665 107.073 50.9413 105.815C49.7179 103.693 47.6886 101.604 45.8378 100.018C42.9329 97.5281 46.1089 103.268 46.5669 104.075C47.8211 106.284 49.3606 108.389 50.9413 110.378C51.6503 111.27 52.2701 111.636 52.0467 110.296C51.3581 106.164 43.852 95.6834 45.8378 99.3712C47.3714 102.219 49.6382 104.92 51.5881 107.497C52.1436 108.231 54.1862 111.554 55.304 111.554C55.4394 111.554 54.0549 108.539 53.9047 108.261C52.6624 105.968 48.6279 99.386 49.3656 101.888C50.3085 105.086 52.4312 108.351 54.1398 111.213C55.4755 113.45 56.9449 115.631 58.4437 117.763C58.5402 117.9 59.77 119.639 59.3257 118.75C58.2295 116.558 56.6625 114.522 55.304 112.495C54.1793 110.816 53.1005 109.118 52.0702 107.379C51.3411 106.149 49.5538 102.335 49.7889 103.746C49.9925 104.967 51.3956 106.532 52.0114 107.603C53.1437 109.571 54.3871 111.46 55.6215 113.365C57.0719 115.603 58.065 118.046 59.4315 120.291C60.4795 122.013 58.0688 116.492 57.2325 114.658C56.5733 113.213 55.9078 111.77 55.2335 110.331C54.3489 108.444 54.8611 109.491 55.4334 110.684C56.9327 113.809 58.4245 116.945 59.749 120.15C60.671 122.38 61.3959 124.674 62.3713 126.888C62.66 127.543 62.5769 127.215 62.3949 126.747C61.8946 125.461 61.3902 124.176 60.8897 122.89C59.6965 119.824 57.8988 116.273 57.5971 112.953C57.4839 111.709 58.244 113.235 58.3732 113.482C59.4082 115.464 60.2362 117.547 60.9014 119.679C61.7601 122.432 62.3576 125.372 62.583 128.252C62.7336 130.176 62.6026 131.032 61.6187 128.863C60.1898 125.713 59.3741 122.247 58.7495 118.856C58.7243 118.719 58.0791 116.142 58.6554 116.046C59.4012 115.922 60.3169 118.541 60.5134 118.986C61.8817 122.083 62.7073 125.306 62.924 128.687C62.9697 129.4 63.0756 134.632 61.4659 132.485C59.8392 130.316 58.6674 127.293 58.0674 124.677C57.6539 122.874 57.9463 121.03 59.3374 123.407C60.7873 125.885 61.5143 128.841 61.7481 131.686C61.8358 132.752 61.7834 133.838 61.7834 134.908C61.7834 134.969 61.8134 136.573 61.6775 136.519C61.2201 136.336 61.0158 132.776 60.9367 132.227C60.8356 131.525 60.4412 128.358 61.4659 128.017C62.7076 127.603 63.4767 136.059 63.4767 137.142C63.4767 138.244 63.4666 134.932 63.5943 133.838C63.6611 133.265 63.994 129.954 64.8761 131.533C65.7379 133.075 66.0008 134.832 66.4871 136.507C66.6704 137.138 65.8781 135.051 65.805 134.861" stroke="#FEABD9" stroke-width="3.98339" stroke-linecap="round" stroke-linejoin="round"/>
<path d="M68.1335 68.1856C67.9648 69.0289 68.1804 69.9591 68.6038 68.7735C69.4595 66.3778 69.2202 63.6473 70.2501 61.3299C71.7662 57.9189 69.2105 68.741 68.2511 72.3484C68.1598 72.6913 66.8807 76.7481 67.2162 76.9345C67.2835 76.9718 68.8094 70.9075 68.8861 70.5609C69.5596 67.5171 70.2999 64.3956 70.6382 61.2946C70.7849 59.9501 70.1373 63.531 70.0855 63.8346C69.4088 67.7984 66.4276 79.4073 68.0394 75.7233C68.6375 74.3562 68.6207 72.532 68.8155 71.0784C69.1647 68.4729 69.506 65.8527 69.6034 63.2232C69.6747 61.2972 69.2103 64.3156 69.1448 64.6813C68.6562 67.406 68.2432 70.1863 67.9218 72.9363C67.9035 73.093 67.5458 75.957 67.816 74.6061C68.1562 72.9047 68.2099 71.0638 68.3451 69.338C68.4338 68.2061 69.2393 64.5458 68.4392 63.5171C68.099 63.0798 68.0242 64.5507 67.91 65.0929C67.5991 66.5698 67.353 68.0485 67.1927 69.5497C66.9895 71.4528 66.9034 73.3971 66.6048 75.2882C66.4791 76.0838 66.5744 75.9724 66.6518 75.2176C66.8553 73.2338 66.8635 71.2599 66.8635 69.2674C66.8635 68.4833 67.0525 62.8268 66.4872 66.3276C66.0165 69.242 65.7921 72.1799 65.4759 75.1118C65.4162 75.6648 64.5489 78.4198 65.0055 78.9335C65.0403 78.9727 65.8002 76.5386 65.8287 76.4288C66.9251 72.1926 67.9012 67.8945 69.2859 63.7406C69.4164 63.349 69.8131 61.6273 70.2737 61.2946C71.0506 60.7335 69.8604 63.1669 69.6151 64.0934C68.2443 69.272 66.7011 74.4327 65.029 79.5215C64.2635 81.8515 61.3987 88.461 62.9829 86.5888C64.647 84.6222 65.3671 80.9122 66.1814 78.6278C68.3783 72.4651 70.4583 66.1446 73.284 60.2363C73.8325 59.0896 74.458 57.5486 75.3419 56.5792C75.9287 55.9356 75.5946 58.3313 75.4477 59.1897C74.3453 65.6346 72.3374 71.9061 70.3912 78.1339C69.5577 80.8014 68.7231 83.4693 67.9453 86.1537C67.6113 87.3066 66.9893 88.7717 66.9575 90.0108C66.9101 91.8598 68.2783 86.5514 68.8037 84.7779C70.748 78.2162 72.5128 71.5915 74.6246 65.0811C75.4697 62.4757 76.3744 59.8792 77.4703 57.367C77.7177 56.8 78.199 55.7037 78.6227 55.121C78.9745 54.6374 78.9717 54.9192 78.952 55.3797C78.7322 60.5081 77.1069 65.872 75.9887 70.8667C74.9356 75.5703 73.4128 80.1975 72.5079 84.9308C71.8331 88.4604 73.5617 81.2841 73.578 81.2148C75.2741 73.9982 77.0464 66.7953 79.1872 59.6954C79.5532 58.4816 80.0322 55.5957 81.1157 54.6154C81.3612 54.3932 80.9551 57.8171 80.9511 57.8374C79.5745 64.7671 77.4972 71.6271 75.189 78.2985C74.2045 81.1443 73.1191 83.9555 72.1669 86.8122C71.8551 87.7478 71.8254 87.962 72.3315 86.9651C74.4858 82.7219 75.8067 78.0684 77.3057 73.5713C79.5097 66.9592 81.2975 60.1835 83.6557 53.6276C84.803 50.4381 82.3921 60.2925 81.5508 63.5759C79.7415 70.6371 77.6519 77.6836 75.142 84.531C74.8381 85.3602 72.9713 91.3233 74.1072 87.3885C76.0339 80.7136 77.6698 73.9566 79.5517 67.2684C80.1767 65.0471 80.8516 62.8621 81.6801 60.7067C82.1304 59.5355 83.0771 57.2492 83.6087 56.05C83.8262 55.5592 84.2042 54.1333 84.3848 54.6389C84.7373 55.626 83.8079 58.5908 83.6557 59.3779C83.0686 62.4135 82.4477 65.4543 81.6566 68.4443C80.2397 73.7997 78.504 79.0621 76.7648 84.3193C76.6298 84.7273 76.2648 85.9602 76.4355 85.5658C77.2577 83.6663 77.7315 81.5696 78.317 79.5921C80.2469 73.0739 82.3895 66.6932 85.1256 60.4597C85.2048 60.2794 87.2563 54.6242 88.1713 54.3802C88.8055 54.2111 88.0688 55.6947 87.9126 56.3322C87.5968 57.621 86.9652 59.735 86.5955 60.9654C84.7859 66.9881 82.9708 73.0009 80.8805 78.9335C79.6625 82.3905 78.0914 85.698 76.8824 89.1523C76.1267 91.3113 78.2338 84.7817 78.9285 82.6024C81.4429 74.7147 84.4015 66.944 88.1007 59.5307C88.5983 58.5335 89.6438 55.868 90.7818 55.1093C91.4594 54.6575 90.8527 57.8712 90.8524 57.8727C89.7954 63.5098 87.8505 69.1763 85.643 74.4533C84.2535 77.775 82.6666 81.0119 81.0451 84.2252C80.5304 85.2453 79.886 86.9875 79.0226 87.8941C78.9504 87.9698 78.9361 87.6917 78.952 87.5884C79.1709 86.1657 79.525 84.7192 79.8339 83.3197C81.4723 75.8988 83.1411 68.0954 86.8072 61.3652C87.5915 59.9254 88.4338 58.5022 89.3707 57.1554C89.7161 56.6588 89.9633 56.2837 89.8881 57.1789C89.2537 64.7281 85.6412 72.0764 82.3151 78.7924C81.5078 80.4226 81.7566 79.8654 82.1388 78.4514C84.2014 70.8198 86.4883 62.9196 89.747 55.709C89.8674 55.4425 91.3932 52.0154 91.1111 54.0274C90.8395 55.965 90.3627 57.915 89.7353 59.7659C89.3653 60.8573 89.0644 61.9629 88.7122 63.0585C88.7028 63.0879 89.3086 60.2681 89.3942 59.7895C89.7098 58.026 90.0039 56.2585 90.335 54.4978C90.5028 53.6051 90.5308 51.1488 91.0758 51.8755C91.76 52.7877 91.0082 56.1274 90.8994 57.1789C90.6608 59.4858 88.9823 66.2545 89.5236 63.9993C90.7775 58.7744 91.9693 53.5477 92.9808 48.2654C93.4013 46.0694 92.6753 50.9208 92.6398 51.1346C92.1737 53.9424 91.4088 56.5345 90.6172 59.2485C90.5981 59.314 90.0386 60.9196 90.2644 60.1775C90.8877 58.1295 90.8221 55.5615 90.8994 53.463C91.0764 48.6607 91.1075 43.6921 90.2644 38.9403C90.1071 38.0536 89.9666 38.2538 89.8293 38.9403C89.5722 40.226 89.4497 41.5461 89.2766 42.8443C88.7806 46.5646 88.4152 50.3369 87.7244 54.0274C87.6731 54.3013 86.8486 58.5128 87.4069 56.8379C88.2189 54.402 88.353 51.6036 88.6181 49.065C88.8743 46.612 88.997 44.1439 89.0885 41.6802C89.1907 38.9258 89.7414 35.6205 89.2061 32.8842C89.1138 32.4128 88.6674 33.7009 88.5476 34.166C87.9677 36.4157 87.6035 38.7218 87.1482 40.9981C86.3817 44.8308 85.5071 48.6384 84.7611 52.4752C84.4142 54.2592 85.1853 51.7676 85.2785 51.3228C86.3028 46.4351 86.3739 41.5001 86.0311 36.5296C85.8909 34.4968 85.9135 31.9807 85.1844 30.0267C84.817 29.042 84.1438 31.8847 83.9026 32.9078C82.9764 36.8371 82.3995 40.8754 81.8918 44.8787C81.5578 47.5123 80.8873 50.989 81.6919 53.6041C81.9657 54.4938 82.1947 53.7424 82.3269 53.2631C82.7409 51.7622 83.024 50.2128 83.2677 48.6769C83.9289 44.508 84.0547 40.4885 83.6322 36.2944C83.4869 34.8528 83.3141 33.4168 83.056 31.9905C83.0508 31.9618 82.7468 29.2297 82.174 30.2149C81.3682 31.6009 81.1884 33.7722 80.9511 35.2596C80.2036 39.9443 79.6278 44.6857 79.2813 49.4178C79.1743 50.8783 79.0582 52.412 79.3518 53.8628C79.3663 53.9342 79.5585 54.9706 79.8222 54.5213C81.0932 52.3559 81.0587 48.7248 81.2451 46.3486C81.6411 41.2993 81.8975 36.1814 80.8805 31.1909C80.7462 30.5318 80.631 29.3218 80.1514 28.7685C79.2787 27.7615 78.4016 30.8826 78.0465 32.1669C76.222 38.7657 74.6606 46.3409 75.0362 53.2513C75.1259 54.9031 75.5287 55.7366 76.1768 53.7922C77.3841 50.1702 78.2203 46.2956 78.4111 42.4798C78.5144 40.4126 78.4455 38.3429 78.2582 36.2827C78.2177 35.8375 78.0566 31.3768 77.2234 31.2379C75.827 31.0052 73.8754 48.0421 73.6721 49.5236C73.4027 51.4865 73.1354 53.4497 72.8842 55.415C72.779 56.238 72.3897 57.6077 72.6255 58.4724C72.6993 58.7431 72.9525 58.0026 73.0253 57.7316C73.5741 55.6888 73.8745 53.556 74.1542 51.4639C74.9307 45.6557 75.2922 39.6945 74.7422 33.8485C74.657 32.9429 74.3945 30.8257 73.6368 32.8607C72.7165 35.3325 72.2469 38.0857 71.7788 40.6689C70.811 46.0104 70.062 51.5509 70.062 56.9907C70.062 58.5452 70.5017 59.9107 71.1438 57.6493C72.3393 53.439 73.0232 48.9972 73.3899 44.6435C73.6322 41.7653 73.6807 38.8613 73.5192 35.9769C73.5035 35.6956 73.4634 33.0831 72.8489 34.8128C71.0247 39.9478 70.4519 45.6571 69.7092 51.017C69.4048 53.2141 69.1025 55.4154 68.9096 57.6257C68.8666 58.1184 68.4769 60.0511 68.8978 60.5656C69.081 60.7895 69.3141 60.1352 69.4035 59.86C70.0415 57.8957 70.3916 55.7891 70.7911 53.7687C71.8693 48.3161 72.9326 42.6857 73.3781 37.1411C73.5978 34.4072 71.785 42.3914 71.085 45.0433C69.8827 49.5984 68.7428 54.1913 66.9105 58.543C66.8623 58.6574 66.1331 61.0378 66.4401 60.2128C66.9229 58.9153 66.7879 57.2694 66.8635 55.9089" stroke="#F864B5" stroke-width="3.98339" stroke-linecap="round" stroke-linejoin="round"/>
<path d="M70.2502 28.3922C70.2502 28.0793 69.9644 27.1741 70.0503 27.475C70.5059 29.0695 70.8147 30.5088 71.0028 32.2022C71.1554 33.5754 71.3086 35.0174 71.3086 36.4003C71.3086 38.0716 70.7273 33.1019 70.262 31.4967C69.8891 30.21 69.5847 28.9094 69.2389 27.6161C68.8737 26.2498 68.7679 27.5605 68.8156 28.1806C69.1045 31.9359 69.0581 35.7905 69.6152 39.5165C70.0353 42.3255 69.95 39.6139 69.8151 38.4229C69.417 34.906 68.8365 30.4777 67.4045 27.2045C67.3238 27.0202 67.4351 28.7021 67.4515 28.9331C67.6232 31.3555 67.8382 33.7602 68.0865 36.1769C68.3127 38.3777 68.8055 44.8342 69.3565 42.6915C69.5389 41.9822 69.3733 41.0793 69.2742 40.3749C68.9362 37.9716 68.4334 35.5872 67.9337 33.2135C67.4382 30.86 66.9117 28.3828 65.9111 26.1815C65.6065 25.5115 65.9625 25.9033 66.1815 26.2756C66.4026 26.6513 67.3041 26.5899 67.7102 26.793C69.7717 27.8237 72.5918 28.2269 74.7893 27.2281C75.3551 26.9709 73.6248 26.7966 73.3312 26.7459C72.6806 26.6338 69.5798 25.8525 69.921 26.1109C71.4904 27.2999 73.7565 27.9622 75.6595 28.2746C76.9635 28.4887 78.3042 28.6864 79.6224 28.4981C79.7366 28.4817 81.118 28.3322 80.7748 28.0747C79.1184 26.8324 75.4516 26.9333 73.5663 26.9106C72.8295 26.9017 68.9378 26.8574 71.7789 27.1693C75.2889 27.5545 78.8714 27.3711 82.3505 26.8165C83.4094 26.6477 84.473 26.4125 85.5373 26.2873C85.6976 26.2685 83.7628 26.2876 83.4912 26.2991C79.227 26.4786 75.0091 27.2183 70.8147 27.9689C68.1898 28.4386 72.589 28.5983 73.3312 28.6039C77.4942 28.6354 81.4238 28.3159 85.5255 27.769C88.4595 27.3778 82.5775 26.2374 81.9625 26.1815C77.9309 25.815 74.0499 26.7804 70.0621 27.1222C66.9138 27.3921 76.3821 27.3944 79.5401 27.2869C81.3345 27.2258 83.1646 27.2164 84.9493 27.0046C85.7895 26.9049 88.0523 27.1913 87.454 26.5931C87.1289 26.2679 85.9493 26.3025 85.549 26.2638C83.064 26.0233 80.5877 25.8975 78.0937 26.0756C77.7094 26.1031 72.9323 26.4873 73.9426 27.1693C76.6385 28.989 81.7566 28.5343 84.7964 28.698C86.686 28.7997 88.548 28.8319 90.4291 28.6039C90.5838 28.5851 92.5931 28.5212 91.9108 28.1335C89.1068 26.5403 84.8754 26.3477 81.7743 26.1109C80.9278 26.0463 78.3716 25.9506 80.5631 26.6989C82.6097 27.3977 84.8347 27.1325 86.9366 26.9223C88.4995 26.766 82.5214 24.2435 82.4093 25.4759C82.3286 26.3637 85.3579 27.2726 85.8665 27.428C87.9354 28.0601 88.0224 29.1392 87.7127 31.238C87.5094 32.6163 87.1759 33.9405 86.8073 35.2832C86.653 35.8453 86.495 37.5721 85.9606 37.9878C85.8116 38.1037 85.9136 37.6121 85.9136 37.4233C85.9136 36.6679 85.8848 35.919 85.8195 35.1656C85.6515 33.2281 85.3464 31.3094 85.1139 29.38C84.7989 26.7652 84.8552 29.0465 84.8552 30.3678C84.8552 34.7394 84.5164 39.1037 84.6553 43.4794C84.666 43.8165 84.5814 45.3452 84.9023 45.6078C85.1006 45.7701 86.0523 42.6804 86.0782 42.5739C87.2631 37.6967 86.648 32.6327 87.1365 27.6867C87.2196 26.8453 87.1471 27.1329 87.066 27.8395C86.7761 30.366 86.6268 32.9186 86.5486 35.4595C86.3938 40.4897 86.1252 45.5258 86.1252 50.5584C86.1252 57.5438 88.4115 36.7758 89.6295 29.8974C90.8168 23.1925 88.2722 43.5303 88.8887 50.3115C89.1128 52.7766 90.241 45.5269 90.5232 43.0678C90.8857 39.9087 92.128 30.4512 91.7932 33.6133C91.2787 38.4731 90.725 43.5074 90.8995 48.3947C90.9048 48.5421 90.8279 50.7127 91.1112 50.7936C91.5408 50.9164 91.9112 49.1253 91.9578 48.9357C93.1796 43.9672 93.3219 39.0558 93.3219 33.9661C93.3219 33.8836 93.2137 31.4179 93.1102 31.6378C92.5108 32.9116 92.7772 35.0398 92.6869 36.3885C92.3838 40.9158 92.2933 45.4979 92.9926 49.994C93.07 50.4915 93.2082 51.1018 93.416 50.2409C93.7617 48.8089 93.5024 47.122 93.416 45.6783C93.2238 42.4662 93.0605 39.2517 92.9456 36.0357C92.9047 34.8903 93.0654 33.5797 92.734 32.4609C92.7277 32.4397 92.4752 33.6855 92.4752 34.1072" stroke="#F864B5" stroke-width="3.98339" stroke-linecap="round" stroke-linejoin="round"/>
<path d="M90.3583 26.2755C90.1711 26.0883 88.8854 24.8222 89.4058 25.1113C90.7048 25.833 95.3486 25.2171 93.8625 25.2171C92.7224 25.2171 91.9589 25.6023 90.8875 25.8404C89.5655 26.1342 90.7681 25.8521 91.5107 25.8521C91.677 25.8521 92.1692 25.8875 92.1692 25.5934C92.1692 24.6518 91.84 26.8668 91.84 27.1692C91.84 28.9017 91.84 30.6342 91.84 32.3668C91.84 33.4444 91.5311 35.0059 92.0046 36.0121C92.0515 36.1118 92.3041 34.8977 92.3574 34.601C92.6754 32.8291 92.3784 30.9798 92.4867 29.1918C92.5951 27.404 92.6576 28.9257 92.6984 29.8033C92.8027 32.047 92.7617 34.1564 92.5808 36.4002C92.558 36.683 92.4465 39.5149 92.6396 38.7638C93.1143 36.9175 93.1525 35.012 93.0629 33.1194C92.9544 30.8269 92.8983 28.5465 92.8983 26.252C92.8983 24.2322 92.7459 30.2888 92.6984 32.308C92.6741 33.3415 92.2446 45.6547 92.4279 45.6547C92.8334 45.6547 93.0458 40.7963 93.0629 40.5042C93.1882 38.3619 93.5333 31.9377 93.5333 34.0836C93.5333 39.8117 92.7222 45.4642 92.1457 51.1463C92.1239 51.361 91.7509 54.7884 91.8517 53.4276C92.0258 51.0768 92.0265 48.6902 92.3103 46.3485C92.5374 44.4755 92.9419 42.6045 93.4863 40.7982C93.5527 40.5778 94.0742 39.1444 94.0742 40.269C94.0742 43 93.1881 45.9564 92.475 48.571C91.6336 51.656 90.4123 54.7446 88.8766 57.5551C88.4624 58.3132 87.8433 59.4283 86.9716 59.7188" stroke="#F864B5" stroke-width="3.98339" stroke-linecap="round" stroke-linejoin="round"/>
<path d="M65.5933 78.7688C65.1593 78.3348 65.8735 80.6541 65.8991 80.7444C66.6095 83.2519 66.8633 85.6695 66.8633 88.2586C66.8633 90.5992 66.7564 83.5676 66.4282 81.25C66.3716 80.8501 65.5328 77.4268 65.4875 77.5223C64.5126 79.5805 65.1976 83.1781 65.3817 85.354C65.5272 87.0749 65.6775 88.8322 66.0167 90.5281C66.0442 90.6656 66.3321 92.0892 66.6517 91.3748C67.1819 90.1896 66.8765 88.3296 66.8163 87.0944C66.6817 84.3345 66.5526 81.0435 65.464 78.4631C64.5777 76.3623 63.8195 78.5794 63.5942 79.6625C63.0276 82.3876 63.0124 85.2159 63.5002 87.9528C63.5699 88.3441 65.561 94.3823 66.0167 92.1038" stroke="#F864B5" stroke-width="3.98339" stroke-linecap="round" stroke-linejoin="round"/>
<path d="M76.639 90.3718C76.639 89.7765 76.8507 89.2047 76.8507 88.6079C76.8507 88.0857 76.629 89.638 76.639 90.1601C76.7107 93.8847 77.7937 97.5359 78.8498 101.084C78.9859 101.542 79.2084 102.884 79.6847 103.201C79.8037 103.281 79.5201 100.829 79.5083 100.767C78.5852 95.9271 76.3978 91.5317 74.4871 87.0321C74.3342 86.6722 73.8873 85.6091 73.9344 85.9973C74.151 87.7846 74.7529 89.5996 75.3455 91.289C76.7429 95.2725 78.3249 99.2233 80.2138 103.001C82.095 106.763 80.5788 100.143 80.2726 99.2383C78.5055 94.0154 76.2486 88.2729 73.0172 83.7631C72.407 82.9115 72.0595 83.0688 72.1235 84.0923C72.2926 86.7984 73.1446 89.5673 73.8756 92.1592C74.9055 95.8107 76.3117 100.223 78.7557 103.213C80.8196 105.738 79.3548 98.7934 79.2026 98.2505C77.5738 92.4426 74.2723 85.8126 70.195 81.3171C69.6614 80.7289 68.5803 79.7347 68.5604 81.1878C68.5241 83.8368 69.3085 86.7085 70.1479 89.1959C71.8896 94.357 74.1004 99.7636 77.3564 104.177C79.8656 107.579 78.5506 103.096 77.9561 101.52C75.645 95.3926 72.1649 89.5823 69.019 83.8571C68.4053 82.7402 67.5532 80.4018 66.4085 79.6473C66.1916 79.5044 66.2878 80.1685 66.3379 80.4234C66.6766 82.1466 67.2364 83.8471 67.7725 85.5152C69.8131 91.8636 72.4107 97.9486 75.7453 103.73C76.0282 104.221 79.9787 110.521 79.9787 108.281C79.9787 106.926 79.3403 105.584 78.8027 104.377C77.4777 101.402 75.8247 98.6343 74.0285 95.9222C71.7411 92.4684 69.3961 89.0447 66.9964 85.6681C66.9868 85.6545 63.7486 80.7549 63.939 82.8223C64.4925 88.8316 67.6095 95.2882 70.9475 100.203C71.2343 100.625 76.9236 107.724 77.5563 106.129C77.9247 105.201 77.2858 103.767 76.9683 102.931C75.8388 99.9542 74.3091 97.1047 72.8173 94.2994C71.2863 91.4205 69.6465 88.6049 67.8549 85.8797C67.3831 85.1622 64.4225 79.7593 63.0218 80.2118C60.6411 80.9809 66.5724 92.8212 67.1846 93.9231C69.0639 97.3058 71.7514 101.118 75.2279 103.037C75.6709 103.281 75.9312 103.255 75.7218 102.672C75.0976 100.933 73.8704 99.2609 72.8761 97.7331C70.6974 94.3853 68.4913 90.9511 65.9616 87.8553C63.8304 85.247 66.5104 91.0597 66.726 91.4771C68.505 94.9227 70.6184 98.3772 72.9466 101.496C73.1627 101.786 74.3107 103.12 74.3107 103.072" stroke="#F864B5" stroke-width="3.98339" stroke-linecap="round" stroke-linejoin="round"/>
<path d="M64.7856 90.5834C63.6864 90.5834 66.4941 97.1409 67.0198 97.7919C68.7904 99.9839 67.7738 96.778 67.2786 95.8281C66.6709 94.6626 66.0061 92.6603 64.9385 91.8299C63.8582 90.9897 65.7483 94.4646 66.4084 95.6634C67.6714 97.9575 69.262 100.159 70.8063 102.272C71.9573 103.847 73.1115 105.786 74.5693 107.105C74.9197 107.422 73.6687 104.932 73.4639 104.6C73.1782 104.138 71.349 101.718 71.3943 101.978C71.6864 103.658 73.186 105.499 73.9813 106.964C75.3766 109.534 76.8087 112.081 78.3793 114.549C79.0412 115.589 80.281 116.966 80.6253 118.171C80.7526 118.616 80.0438 117.444 79.8139 117.042" stroke="#F864B5" stroke-width="3.98339" stroke-linecap="round" stroke-linejoin="round"/>
<path d="M75.1574 89.1017C76.8581 90.8024 77.5056 93.5605 78.3324 95.7339C79.3685 98.4573 80.3477 101.202 81.4016 103.918C82.2375 106.073 82.752 109.01 84.165 110.88C84.2525 110.996 83.7459 107.244 83.5888 106.646C82.5196 102.584 80.8894 98.6773 79.5554 94.6991C79.0618 93.2271 78.5839 91.7478 78.1207 90.2658C77.9082 89.5857 78.6747 91.58 78.9086 92.2531C80.311 96.2893 81.6117 100.393 82.848 104.483C83.5437 106.785 83.9071 109.494 84.9882 111.656C85.1932 112.066 84.6637 108.68 84.5883 108.34C83.586 103.81 82.4195 99.3544 81.0841 94.9107C80.2906 92.2704 77.9447 84.3702 79.0615 86.8909C80.522 90.1874 81.3167 93.8658 82.4364 97.2861C83.5332 100.636 84.4464 104.009 85.3174 107.423C85.4985 108.132 86.1963 110.276 85.8113 108.246C85.1894 104.967 84.1849 101.754 83.2478 98.5561C82.0392 94.432 80.7076 90.239 80.1669 85.9619C79.771 82.831 80.8406 86.7529 81.0606 87.5259C82.2676 91.7677 83.3374 96.0607 84.2356 100.379C84.6707 102.471 84.6099 105.155 85.4821 107.117C86.1178 108.547 84.9797 104.025 84.6471 102.495C83.6896 98.0908 82.9389 93.6371 82.4952 89.1487C82.4383 88.5733 82.398 85.0725 82.4717 85.4093C83.0386 88.0008 83.1945 90.7444 83.4124 93.382C83.6388 96.123 83.8357 98.8621 83.8357 101.614C83.8357 103.629 83.4897 101.4 83.3654 100.673C82.7682 97.178 82.1895 93.6952 82.1895 90.1365C82.1895 87.8668 82.2183 84.2944 83.577 82.3048C83.8571 81.8947 84.3329 85.941 84.3532 86.2442C84.5454 89.1283 84.3541 92.0274 84.2121 94.9107C83.9677 99.8698 83.525 104.661 83.8357 109.633" stroke="#F864B5" stroke-width="3.98339" stroke-linecap="round" stroke-linejoin="round"/>
<path d="M82.7772 120.217C82.7772 121.586 82.8701 122.772 83.5063 124.027C84.1993 125.394 85.687 127.393 86.0463 124.826C86.3446 122.695 85.853 120.336 85.1291 118.335C84.5217 116.657 83.7143 115.013 82.8242 113.467C82.4876 112.882 81.7742 111.254 81.5542 111.891C81.399 112.342 81.7869 113.442 81.8717 113.796C82.3319 115.717 82.8799 117.615 83.3887 119.523C83.9971 121.804 84.1903 125.117 85.6112 127.084C85.6471 127.134 85.3368 123.854 85.2231 123.298C84.4381 119.457 83.2881 115.75 81.9188 112.079C81.2189 110.203 80.4776 108.345 79.7433 106.482C79.5356 105.955 79.3768 105.405 79.1083 104.906C79.0447 104.788 79.04 105.174 79.0613 105.306C79.7025 109.296 80.9681 113.234 81.7659 117.206C82.2952 119.842 82.9511 122.451 83.2005 125.132C83.4082 127.364 82.7745 123.768 82.6361 123.262C81.0186 117.35 75.2832 99.8913 76.7329 105.847C78.3204 112.368 80.8069 119.043 80.8722 125.838C80.8896 127.65 79.9193 123.192 79.8021 122.733C78.7702 118.692 77.4565 114.743 76.6859 110.633C76.6332 110.352 76.2722 109.06 76.4742 108.693C76.9836 107.767 77.2923 110.646 77.6031 111.656C78.6648 115.107 79.3832 118.651 79.5552 122.263C79.6421 124.089 79.7827 126.069 79.5904 127.896C79.5823 127.973 78.3902 124.734 78.2264 124.086C77.6537 121.82 77.2811 119.491 77.1092 117.159C76.9926 115.576 78.1405 119.311 78.2264 119.617C79.2208 123.163 80.0269 134.221 79.2965 130.612C78.9369 128.836 78.6962 127.069 78.4498 125.273C78.1358 122.985 78.8706 127.132 78.9672 127.602C79.2601 129.024 79.5865 130.463 79.7668 131.906C79.8031 132.196 80.0255 133.779 80.0255 132.705" stroke="#F864B5" stroke-width="3.98339" stroke-linecap="round" stroke-linejoin="round"/>
<path d="M82.1423 111.962C83.8089 116.128 85.2033 120.503 86.4933 124.803C86.8528 126.001 87.3123 128.706 88.2807 129.554C88.6971 129.918 88.1894 128.447 88.069 127.907C87.7253 126.366 87.4574 124.808 87.0812 123.274C86.1184 119.348 84.7392 115.582 83.3418 111.797C82.1605 108.598 86.0367 118.063 87.3634 121.205C88.5791 124.083 89.4955 127.62 91.4086 130.142C91.89 130.776 91.8818 129.753 91.879 129.483C91.8623 127.845 91.3442 126.215 90.8795 124.662C89.2923 119.356 86.8992 114.353 84.7882 109.245C84.7847 109.237 84.0172 107.355 83.8474 106.976C83.8097 106.892 83.8738 107.16 83.9062 107.246C84.5781 109.038 85.4052 110.782 86.1875 112.526C88.0594 116.7 90.165 120.843 92.808 124.591C93.198 125.144 95.8026 128.32 94.9599 125.744C93.7037 121.903 91.5889 118.356 89.7859 114.76C87.933 111.065 82.597 99.8914 84.0708 103.754C86.0135 108.845 89.0397 113.706 92.0201 118.241C94.1371 121.462 96.4092 125.147 99.158 127.896C99.7386 128.476 99.1458 127.356 99.1227 127.308C98.4637 125.937 97.7355 124.602 96.9943 123.274C93.8397 117.624 90.5216 112.085 87.4928 106.364C86.7568 104.974 86.0849 103.167 85.1057 101.908C84.4239 101.031 85.997 103.942 86.4815 104.941C89.5745 111.321 93.7796 117.294 97.8527 123.086C98.8954 124.569 101.735 129.163 101.051 127.484C100.753 126.751 100.093 126.073 99.6166 125.461C98.239 123.692 96.9744 121.868 95.7596 119.982C91.8583 113.925 88.2211 107.739 85.1527 101.214C84.5622 99.9581 82.6824 96.2815 83.5299 97.3802C85.0182 99.3095 85.9831 101.823 87.2694 103.895C91.2944 110.378 95.932 116.399 100.593 122.427C101.379 123.444 103.604 126.583 102.956 125.473C101.79 123.474 100.007 121.602 98.6171 119.758C94.3797 114.137 90.5099 108.352 87.0342 102.225C86.6951 101.627 85.6994 99.8276 86.0934 100.391C87.0172 101.71 87.698 103.24 88.5158 104.624C91.3659 109.446 94.5932 114.091 98.0173 118.523C98.3258 118.923 101.558 123.247 99.9929 121.04C97.3554 117.32 94.3613 113.884 91.9496 109.998C91.1679 108.739 88.7376 105.083 89.8211 106.094C90.7809 106.99 91.4667 108.407 92.2435 109.457C94.1958 112.097 96.2674 114.66 98.3113 117.23C98.7572 117.79 100.149 119.912 100.063 119.793C98.505 117.629 96.8549 115.522 95.5361 113.196C95.0749 112.383 93.8726 109.993 95.3245 112.056C96.9049 114.302 98.5645 116.608 99.8871 119.017C100.072 119.354 101.272 121.705 100.193 120.346C98.4253 118.12 96.8475 115.684 95.7831 113.044C94.6591 110.255 97.5391 114.749 97.8057 115.184C98.9762 117.092 100.08 118.948 100.934 121.016C101.568 122.554 100.374 120.86 100.087 120.405C98.904 118.527 96.9741 115.687 96.9002 113.396C96.8721 112.526 100.059 116.865 100.404 117.418C101.191 118.676 102.439 120.529 102.439 122.086C102.439 123.34 99.741 120.032 99.6872 119.97C97.495 117.422 95.2067 114.622 94.0427 111.421C92.9051 108.292 96.695 113.252 97.0766 113.773C98.6104 115.865 100.191 118.019 101.192 120.428C101.438 121.02 102.207 122.713 101.004 121.51C98.0662 118.572 95.4205 114.681 93.8428 110.845C93.1893 109.255 92.1441 106.324 94.2661 109.104C96.1292 111.545 97.7565 114.246 99.1933 116.959C100.234 118.925 101.193 120.877 101.898 122.992C102.016 123.347 102.03 123.655 101.58 123.309C100.61 122.563 100.144 121.078 99.6166 120.029C98.6028 118.013 96.3161 114.966 96.6768 112.55C96.7945 111.761 98.0499 113.565 98.0644 113.584C99.073 114.953 99.9751 116.422 100.793 117.912C102.035 120.177 103.257 122.62 103.638 125.203C103.912 127.057 103.738 127.572 102.556 125.885C101.099 123.803 99.9442 120.985 99.4285 118.5C98.957 116.228 100.452 119.395 100.687 119.876C102.189 122.953 104.622 127.498 100.557 129.53" stroke="#F864B5" stroke-width="3.98339" stroke-linecap="round" stroke-linejoin="round"/>
<path d="M80.6606 129.319C82.8285 130.402 84.8126 131.554 87.2458 132.023C89.112 132.383 86.836 131.803 86.2109 131.6C84.8754 131.165 80.8902 129.799 82.2128 130.271C83.4105 130.699 84.9093 130.839 86.1639 130.788C86.6579 130.769 89.6139 130.527 87.5985 130.212C85.4289 129.873 82.9278 129.749 80.8252 130.471C80.1214 130.713 77.6828 131.549 79.6493 131.659C81.6461 131.77 83.4118 131.381 85.376 131.235C86.4714 131.154 84.6882 130.83 84.4235 130.8C82.7989 130.62 80.9089 130.852 79.5434 131.859C78.8952 132.336 83.5734 133.457 84.1178 133.505C84.7363 133.559 88.7518 133.019 86.7519 132.658C85.0011 132.342 83.1879 131.91 81.4014 132.188C81.0735 132.239 78.0632 133.433 79.4611 133.54C82.3387 133.761 85.0942 133.152 87.8807 132.541C88.7614 132.347 90.833 132.123 88.8215 131.906C86.0628 131.607 82.8872 131.886 80.1902 132.494C79.3389 132.685 76.1283 133.725 76.192 133.716C79.5108 133.27 82.9813 133.38 86.3285 133.234C89.0599 133.116 91.7524 133.34 94.4777 133.34C96.2419 133.34 91.0457 132.473 89.2919 132.282C88.0286 132.144 86.6512 131.942 85.3878 132.188C85.1499 132.234 84.4608 132.448 84.988 132.705C87.7944 134.072 91.4664 133.975 94.4895 133.975C95.1111 133.975 99.1341 134.179 96.9236 133.423C95.0463 132.78 93.1053 131.725 91.0793 131.647C89.9049 131.602 93.3617 132.211 94.513 132.446C95.1227 132.571 99.714 132.332 99.5695 132.188C99.4513 132.07 93.3225 129.895 95.9476 129.954C96.731 129.971 97.7366 130.386 98.5111 130.165C98.8571 130.066 97.9037 129.771 97.5704 129.636C96.5806 129.234 95.7904 128.706 94.9481 128.049C94.7031 127.857 92.7701 126.308 93.2312 126.52C95.0246 127.342 96.5757 128.645 98.3818 129.495C99.1208 129.843 99.9526 129.909 98.7346 129.413C96.1314 128.352 93.9849 126.471 91.7613 124.803C89.6619 123.228 90.5802 123.722 92.2552 124.756C94.9205 126.401 97.4617 127.878 100.393 128.989C101.442 129.387 101.143 129.134 100.534 128.331C99.9462 127.556 99.3277 126.805 98.7463 126.026C98.6803 125.937 97.7396 124.606 98.2054 125.273C99.4404 127.042 100.858 128.804 102.204 130.494C103.246 131.804 102.112 130.288 101.827 129.742C101.12 128.385 99.5086 126.453 99.593 124.85C99.6243 124.255 100.352 125.772 100.675 126.273C101.293 127.233 101.899 128.201 102.45 129.201C102.906 130.026 103.202 130.645 102.791 129.413C102.528 128.622 102.782 127.498 103.568 128.613C104.461 129.88 105.601 132.045 105.637 133.622C105.645 133.975 103.853 131.249 103.544 130.718C102.747 129.346 103.139 129.781 103.85 130.694C104.367 131.359 105.705 133.5 105.296 132.764C104.726 131.737 104.037 130.383 103.956 129.201C103.818 127.208 104.844 129.233 105.214 129.954C105.928 131.345 105.188 130.025 104.838 129.366C104.506 128.741 103.186 125.211 104.261 124.732C104.899 124.449 105.484 127.498 105.52 127.719C105.758 129.185 105.735 130.796 104.791 132.023C104.369 132.571 103.443 131.592 103.05 131.435C101.657 130.878 99.7218 131.224 98.2524 131.224C96.9751 131.224 96.8157 131.157 98.1466 131.553C99.6037 131.986 100.898 132.829 102.251 133.505C102.913 133.836 100.949 132.8 100.299 132.446C99.991 132.279 96.8824 130.696 97.8173 132.176C98.3336 132.994 99.1793 133.287 100.016 133.646C100.351 133.789 99.8367 132.534 100.134 133.129" stroke="#F864B5" stroke-width="3.98339" stroke-linecap="round" stroke-linejoin="round"/>
<path d="M103.277 20.1997C103.277 20.6941 103.368 20.7334 103.65 21.0862C103.956 21.4684 103.713 22.8612 103.86 23.3958C104.189 24.5898 104.327 26.1995 104.327 27.4435C104.327 30.2095 103.38 33.0065 103.277 35.7837C103.159 38.9558 103.28 42.1641 102.332 45.197C101.811 46.866 102.437 48.8084 102.437 50.4811C102.437 51.8775 102.388 53.2686 102.215 54.6454C101.436 60.8786 100.147 66.7749 97.4446 72.4806C96.8461 73.744 95.9282 75.2431 95.9282 76.6799C95.9282 77.9846 95.7505 79.3517 95.6132 80.5875C95.4892 81.7039 95.9282 82.8902 95.9282 84.0286C95.9282 85.4144 95.7182 86.7711 95.7182 88.1229C95.7182 88.6205 96.1381 89.1017 96.1381 89.686C96.1381 90.3009 96.2266 91.3029 96.3597 91.9022C96.5479 92.7489 96.8447 93.8202 97.4446 94.4801C98.9659 96.1537 100.795 96.9083 102.542 98.3061C104.218 99.6472 105.533 101.402 107.056 102.925C108.584 104.453 110.178 105.723 111.092 107.754C113.103 112.224 112.095 117.782 112.095 122.545C112.095 124.253 111.82 127.041 112.889 128.378C113.246 128.825 113.775 130.795 113.775 131.375C113.775 131.838 114.861 133.388 113.985 132.95" stroke="#1E1E1E" stroke-width="3.98339" stroke-linecap="round" stroke-linejoin="round"/>
<path d="M103.697 18.73C101.685 18.73 103.716 19.7451 104.583 19.7798C106.079 19.8397 107.514 20.1998 109.051 20.1998C109.268 20.1998 109.773 20.2943 109.949 20.1531C110.026 20.0918 110.518 19.7655 110.579 19.8265C110.963 20.2103 110.851 21.6177 110.999 22.1361C111.709 24.622 111.84 27.3483 112.62 29.8464C113.521 32.7294 113.565 35.7852 113.565 38.7699C113.565 42.6449 113.651 46.5104 113.565 50.3878C113.527 52.085 113.058 53.7269 112.632 55.3686C112.047 57.6237 112.084 60.0923 111.874 62.4024C111.558 65.8783 110.134 69.2402 109.529 72.644C108.985 75.7073 108.677 78.5856 108.736 81.719C108.8 85.1299 109.9 87.8015 111.256 90.8525C112.538 93.7385 114.163 95.9641 116.458 98.2595C119.025 100.826 120.819 103.602 122.045 107.008C122.678 108.766 123.613 110.629 123.643 112.537C123.68 114.83 123.643 117.126 123.643 119.419C123.643 121.051 123.549 122.575 123.27 124.178C122.956 125.985 123.483 127.803 123.433 129.591C123.399 130.825 123.014 132.002 123.014 133.253C123.014 133.612 121.416 133.37 120.902 133.37C119.482 133.37 118.166 132.95 116.761 132.95C115.903 132.95 115.068 133.05 114.825 132.32" stroke="#1E1E1E" stroke-width="3.98339" stroke-linecap="round" stroke-linejoin="round"/>
<path d="M41.1278 27.3385C41.1278 28.0369 42.6832 28.9173 43.1108 29.3448C44.1619 30.3959 45.1363 31.9741 45.7587 33.3225C46.2854 34.4638 47.2517 35.63 48.0566 36.5769C48.7053 37.3402 48.9959 38.4912 49.5263 39.3531C50.57 41.049 50.8395 43.1925 51.731 44.9755C52.9781 47.4697 52.8644 49.7967 52.2092 52.4175C50.7313 58.3289 47.7106 63.657 46.1203 69.5412C45.4451 72.0394 44.1434 74.5414 43.1108 76.9016C42.0646 79.2927 41.4053 81.8593 40.3346 84.2386C38.3185 88.719 38.69 94.3676 40.7545 98.7261C41.7406 100.808 43.9134 102.333 44.6972 104.488C45.7054 107.261 47.7317 109.838 49.7363 111.954C51.8404 114.175 52.6988 117.459 54.0405 120.142C55.266 122.593 56.297 125.319 57.7149 127.654C58.8186 129.472 58.9451 132.369 59.173 134.42C59.297 135.536 60.3865 138.391 59.8145 139.249" stroke="#1E1E1E" stroke-width="3.98339" stroke-linecap="round" stroke-linejoin="round"/>
<path d="M44.4871 26.9186C44.4871 27.4199 48.5535 28.5983 49.2112 28.5983C49.8521 28.5983 50.668 28.3884 51.4159 28.3884C52.5365 28.3884 52.6 29.8934 53.0956 30.6863C53.734 31.7078 54.0203 32.9923 54.612 34.0574C55.1789 35.0779 56.0356 35.9249 56.5716 36.9969C57.4591 38.7719 58.7533 40.3582 59.1962 42.351C59.6665 44.4674 60.4425 46.2156 60.036 48.4516C59.5782 50.9699 59.7654 53.6788 58.0297 55.8003C57.2027 56.8111 56.8017 58.494 56.245 59.6729C55.4448 61.3675 55.295 63.728 54.2504 65.237C53.5094 66.3072 53.222 68.6395 52.9323 69.9145C52.6481 71.1648 52.0457 72.7935 52.0457 74.0554C52.0457 75.3967 51.6355 76.8627 51.3109 78.1614C50.9277 79.6943 51.2059 81.562 51.2059 83.1422C51.2059 86.0298 51.9664 88.8247 52.0457 91.6807C52.1359 94.9278 53.577 98.2967 54.7753 101.292C56.1763 104.795 58.545 108.304 61.0742 111.114C62.0712 112.222 62.8486 114.06 63.4771 115.407C64.1735 116.899 64.9833 118.354 65.6934 119.816C67.5943 123.73 67.0846 128.196 67.1631 132.437C67.1952 134.169 67.3731 135.901 67.3731 137.651C67.3731 138.244 67.8968 139.39 66.7432 138.783C65.9229 138.351 61.7041 138.586 61.7041 139.669" stroke="#1E1E1E" stroke-width="3.98339" stroke-linecap="round" stroke-linejoin="round"/>
<path d="M93.8285 23.5592C94.3336 24.0642 93.8411 25.0129 94.6684 25.4022C95.4616 25.7755 94.4044 23.7139 95.1933 25.1339C96.6973 27.8411 96.768 31.4794 96.768 34.4773C96.768 36.1901 96.5949 37.8675 96.5581 39.5631C96.5206 41.2857 96.4119 43.5187 96.0332 45.1854C95.3167 48.3377 96.2502 51.8548 95.2983 54.9487C94.973 56.006 94.7292 57.1316 94.4584 58.2148C94.0967 59.6617 93.2201 60.6799 92.5688 61.9825C91.9335 63.2531 91.3706 64.457 90.6791 65.6918C89.8297 67.2086 88.6043 68.6925 87.9962 70.3344C87.0253 72.9559 85.4095 75.7295 85.9549 78.6746C86.4579 81.3905 87.3197 84.4211 87.3197 87.1781C87.3197 89.204 87.7118 91.7092 88.2062 93.687C88.9082 96.4951 88.8155 99.4488 89.5243 102.284C90.1851 104.927 91.5135 107.866 93.4553 109.808C95.407 111.759 98.0849 113.415 100.384 114.893C101.393 115.542 102.599 115.942 103.487 116.783C104.226 117.483 104.649 118.795 105.05 119.711C105.96 121.792 106.195 124.115 106.951 126.231C107.706 128.345 108.08 130.709 108.479 132.903C108.637 133.769 108.731 134.559 108.958 135.353C109.043 135.652 109.936 136.55 108.946 135.89" stroke="#1E1E1E" stroke-width="3.98339" stroke-linecap="round" stroke-linejoin="round"/>
<path d="M62.5441 24.609C62.5441 23.2907 63.1402 25.5311 63.2207 25.9155C63.76 28.4926 65.3613 30.7702 66.1135 33.2642C67.4187 37.5919 66.3235 41.9417 66.3235 46.3753C66.3235 51.9765 66.442 58.2997 64.4338 63.6156C62.8155 67.8994 62.0463 72.4322 60.1295 76.6916C59.3115 78.5096 57.7383 81.3047 57.7383 83.2938C57.7383 86.131 58.8286 89.159 59.488 91.8907C61.1535 98.7907 67.3597 101.818 71.3509 107.206C75.1273 112.304 78.5013 118.776 78.5013 125.275C78.5013 127.778 78.4671 129.888 77.5565 132.215C77.2782 132.926 76.8534 134.244 77.0783 135.003C77.2134 135.459 77.1478 136.658 76.8216 135.68" stroke="#1E1E1E" stroke-width="3.98339" stroke-linecap="round" stroke-linejoin="round"/>
<path d="M77.4513 135.05C77.4513 135.031 77.1473 135.26 77.8712 135.26C79.2122 135.26 80.5761 136.048 81.9772 136.1C83.9138 136.171 85.8328 136.31 87.7862 136.31C89.5119 136.31 91.4646 135.785 93.1519 136.053C95.9131 136.492 98.6081 136.473 101.387 136.893C102.604 137.076 104.047 136.723 105.166 136.986C105.525 137.07 106.753 137.663 106.636 137.779" stroke="#1E1E1E" stroke-width="3.98339" stroke-linecap="round" stroke-linejoin="round"/>
<path d="M71.1525 30.9079C71.1525 34.8771 73.672 38.4124 73.672 42.4559C73.672 44.9548 72.6884 47.3546 72.6222 49.8046C72.5871 51.103 71.8755 53.4908 70.9425 54.4238" stroke="white" stroke-width="3.98339" stroke-linecap="round" stroke-linejoin="round"/>
<path d="M70.1028 60.7227C70.1028 60.5503 70.3365 60.4043 70.4761 60.5594C70.6858 60.7924 70.5289 61.936 70.5111 62.2041C70.4199 63.571 69.67 64.5407 69.2629 65.7618" stroke="white" stroke-width="3.98339" stroke-linecap="round" stroke-linejoin="round"/>
<path d="M53.7256 111.744C54.7154 112.734 55.0533 114.335 55.9302 115.407C57.3565 117.15 58.3698 119.199 59.3946 121.192C60.7435 123.815 61.2208 126.478 62.0075 129.287C62.685 131.707 62.964 134.014 62.964 136.52" stroke="white" stroke-width="3.98339" stroke-linecap="round" stroke-linejoin="round"/>
<path d="M98.8677 77.3097C98.8677 78.5002 98.6831 79.6664 98.6577 80.8325C98.5698 84.8755 100.551 88.9884 102.857 92.2171" stroke="white" stroke-width="3.98339" stroke-linecap="round" stroke-linejoin="round"/>
</svg>
