<svg width="162" height="164" viewBox="0 0 162 164" fill="none" xmlns="http://www.w3.org/2000/svg">
<rect y="-1.52588e-05" width="162" height="164" rx="81" fill="#ECEBEB"/>
<path d="M79.5667 46.1499C79.5667 48.0977 74.2615 48.7315 72.814 49.0721C69.6507 49.8164 64.3699 50.5408 61.1646 49.6249C56.6079 48.323 52.0437 47.9269 47.3039 47.9269C43.768 47.9269 40.529 48.7241 37.1749 49.8421C34.3679 50.7778 32.547 52.6174 30.3432 54.4821C27.2732 57.0799 25.7679 60.5281 25.1701 64.4137C24.7064 67.4281 23.1917 71.1904 24.558 74.2268C25.8975 77.2035 28.9554 79.9909 31.2317 82.4011C33.7752 85.0941 35.8721 89.1686 37.4315 92.5104C39.317 96.5506 40.3732 100.727 38.4978 104.989C36.4142 109.724 33.4124 114.229 30.1655 118.218C25.8827 123.48 25.5176 129.97 27.0458 136.423C27.915 140.092 32.1254 147.013 36.4048 147.42C42.1944 147.972 47.4292 148.115 53.0891 146.374C57.7741 144.932 62.2199 141.669 66.1403 138.91C70.092 136.129 72.7205 132.267 77.0788 130.025C81.6924 127.653 85.8594 127.182 90.9791 127.182C97.8655 127.182 104.959 129.046 111.731 126.985C116.257 125.607 122.238 124.013 125.967 120.962C130.202 117.497 128.612 114.335 128.612 109.609C128.612 106.705 125.33 103.514 124.427 100.803C123.352 97.5796 124.459 94.5393 124.703 91.3652C124.987 87.6753 129.388 84.9863 131.278 82.0457C134.5 77.0334 137.076 72.5374 137.873 66.5659C138.395 62.6493 137.142 58.5813 137.142 54.6006C137.142 47.9531 133.384 38.9927 126.677 36.554C119.344 33.8874 111.958 32.9999 104.09 32.9999C100.893 32.9999 97.1939 33.4701 94.2172 34.5005C92.6255 35.0515 89.1462 36.4856 88.0964 37.7979C87.5248 38.5124 85.7119 39.2213 84.8977 39.6736C84.0531 40.1429 83.4192 41.0432 82.5679 41.5296C79.7123 43.1613 81.6573 46.1499 77.4343 46.1499" stroke="#1E1E1E" stroke-width="3.88261" stroke-linecap="round" stroke-linejoin="round"/>
<path d="M84.8978 84.5335C83.8797 84.8729 80.3641 87.3529 82.7653 88.364C84.5741 89.1255 87.2074 83.0584 83.0418 84.7507C81.4635 85.3919 77.9003 87.0522 77.7897 89.1538C77.7203 90.4732 81.3037 87.942 81.5412 87.6532C84.6956 83.8167 80.4914 81.6598 78.54 85.7577C77.9267 87.0456 79.3583 87.663 80.3565 87.0213C81.6121 86.2141 82.7259 84.7002 82.7259 83.1316C82.7259 78.7057 75.9049 85.9551 79.2903 85.9551C83.0618 85.9551 84.8337 79.8128 80.9686 81.5521C76.3858 83.6143 78.0106 92.4868 81.8571 88.6404C86.26 84.2376 79.0489 80.5781 75.0254 83.5463C70.6614 86.7656 75.1293 92.3358 79.4285 89.4697C81.7539 87.9194 82.521 84.9739 80.6329 82.6775C78.4537 80.0272 74.6053 82.6454 73.6038 85.2048C71.6923 90.0897 77.0127 92.7345 80.4552 89.292C81.7323 88.0149 82.9969 84.1917 80.3565 83.5463C77.7201 82.9018 75.3051 85.4834 74.4528 87.7124C72.4179 93.0347 79.5036 94.2712 80.9883 89.0748C81.5183 87.2201 80.5085 83.843 77.9871 84.7507C75.4348 85.6695 74.5012 88.9894 76.0127 91.0887C78.9289 95.139 87.0265 90.4025 83.6736 85.5997C79.904 80.1999 72.3757 89.2665 78.1451 93.2606C83.5308 96.9891 91.164 90.3087 86.6353 84.7507C82.429 79.5883 74.3199 88.6482 79.9221 92.6288C85.3769 96.5047 92.2296 86.7388 86.0824 83.9017C80.7428 81.4372 75.4534 91.1183 80.8304 94.1294C85.382 96.6783 94.148 89.6512 89.0836 85.5997C84.9532 82.2954 76.8937 90.6679 82.2322 93.2212C84.3632 94.2403 87.1949 94.5006 89.439 93.695C92.9554 92.4327 92.344 88.0555 89.8734 86.0341C85.3446 82.3287 75.2306 86.9203 79.4088 92.9052C80.7101 94.7693 84.5697 94.9123 86.5168 94.2281C89.9971 93.0053 92.4122 89.4896 90.8409 85.7972C88.1207 79.4047 73.583 81.6935 76.8814 89.2327C78.0549 91.9149 80.4119 94.2034 83.4762 94.0702C86.3697 93.9444 90.4242 91.1078 90.0116 87.8901C89.2605 82.031 81.4906 80.4687 80.6724 87.2188C80.3958 89.5004 81.2789 92.3245 83.5946 93.2606C85.5781 94.0625 88.3115 92.729 88.8072 90.6938C90.352 84.3519 80.1342 75.8014 77.6712 83.8622C77.094 85.7514 78.8516 92.7121 81.6991 89.8646" stroke="#FFC943" stroke-width="3.88261" stroke-linecap="round" stroke-linejoin="round"/>
<path d="M89.1628 86.3105C86.0447 86.3105 87.1223 89.4677 89.6761 89.0748C91.3616 88.8155 94.5274 87.2859 92.6378 85.2246C89.656 81.9717 85.0161 82.586 81.798 85.0666C79.398 86.9166 78.227 90.5446 80.6331 92.9052C82.9937 95.2213 88.4375 92.9993 90.15 90.8518C92.2719 88.191 91.9417 83.3118 88.0176 82.6578C83.3784 81.8846 77.7811 84.7066 76.6249 89.5092C74.3958 98.7686 88.9027 100.2 91.9073 92.688C93.8099 87.9316 91.4162 82.5552 86.28 81.7298C82.1625 81.068 77.0664 83.8989 76.1708 88.1665C74.4813 96.2167 86.7135 96.941 88.215 89.7066C88.7525 87.1168 88.034 81.6609 84.2661 82.1246C80.7308 82.5598 78.5159 86.1797 77.4344 89.1537" stroke="#FFC943" stroke-width="3.88261" stroke-linecap="round" stroke-linejoin="round"/>
<path d="M79.0249 79.7072C77.6049 79.7072 76.2935 79.5694 74.8942 80.0092C73.1577 80.555 71.9676 83.1537 72.6509 84.8193C73.6255 87.1949 77.1944 85.6762 78.518 84.5497C79.688 83.554 80.6133 80.9974 78.4102 80.5916C75.941 80.1368 73.4816 81.5764 72.0578 83.5143C71.3515 84.4756 69.9707 87.6291 72.198 87.9146C74.4152 88.1989 77.6155 86.3937 78.5072 84.3556C79.4344 82.2363 77.855 80.3461 75.7031 81.422C73.0501 82.7485 70.8246 86.4827 71.0008 89.4785C71.1654 92.2763 73.4977 92.6887 75.4982 91.3551C77.1129 90.2786 78.6141 87.8143 77.4395 85.8763C76.0566 83.5945 72.9436 86.2458 72.1656 87.6774C71.1658 89.5171 71.1361 92.9057 72.9206 94.3209C74.4876 95.5638 76.4114 93.3104 76.76 91.9159C77.1294 90.4386 77.003 86.8014 74.6462 88.0117C72.6947 89.0138 71.6704 92.0085 71.9715 94.0729C72.2921 96.271 73.6985 97.7227 75.9404 96.7907C78.1177 95.8855 78.8242 92.6027 78.1621 90.5785C77.4625 88.4398 74.8238 87.7893 73.3951 89.6942C72.2422 91.2313 72.1406 93.4559 73.2873 95.0435C74.3599 96.5288 76.4686 96.0133 77.4287 94.6984C78.4319 93.3245 78.2168 90.2905 76.4149 89.5863C72.0997 87.8999 70.2384 98.3428 76.2639 97.2868C78.6876 96.8621 80.1034 94.4327 80.1034 92.11C80.1034 89.1728 77.8947 89.2495 76.1561 91.0099C75.1036 92.0756 74.0596 94.6056 75.5305 95.7769C77.292 97.1795 80.2014 96.1469 81.6564 94.8063C82.7695 93.7808 84.617 90.3797 82.131 89.8883C79.5896 89.3859 77.3924 91.8336 77.1267 94.1807C76.8949 96.2285 78.2315 98.1166 80.5132 97.6319C83.0928 97.0841 84.3984 95.2565 85.2371 92.9081" stroke="#FFC943" stroke-width="3.88261" stroke-linecap="round" stroke-linejoin="round"/>
<path d="M94.5555 88.4431C93.4088 87.9844 92.0945 87.4313 91.0827 88.4431C89.6879 89.8379 91.2148 91.5086 92.8514 91.2688C95.7205 90.8483 99.7421 87.6156 97.9096 84.2693C96.3337 81.3915 91.4368 86.9417 90.9533 88.4862C90.2277 90.8039 91.8857 92.236 93.9839 91.0315C96.0238 89.8605 99.2773 84.8218 96.1732 83.0937C93.0601 81.3606 89.7699 85.3781 89.4434 88.1303C89.1556 90.5558 91.3918 92.5741 93.5417 90.6864C95.6259 88.8563 96.3271 83.8389 94.027 81.8966C91.6035 79.85 86.5551 82.7499 86.4883 85.7253C86.4301 88.3153 89.4526 88.6666 91.1366 87.4293C92.7787 86.2229 95.1339 80.6687 91.7082 80.1602C89.2052 79.7886 85.3212 82.5691 86.2402 85.3262C87.1118 87.9408 89.994 87.3964 91.622 85.7684C93.3612 84.0291 93.7063 79.5159 90.6405 79.0709C88.1624 78.7112 84.6097 80.413 85.5823 83.331C86.3915 85.7584 90.6001 85.7958 92.0857 84.1291C94.2089 81.7469 92.3914 77.4475 89.4002 76.8815C86.5703 76.3461 82.6123 78.9447 83.4253 82.1231C84.048 84.5571 87.4954 85.0634 89.314 83.7408C92.0621 81.7422 90.4952 76.4458 87.8472 75.102C84.4218 73.3638 79.7853 76.8491 80.2761 80.5916C80.6326 83.3102 83.6375 83.9921 85.8304 82.8564C87.6292 81.9249 90.9354 77.5188 88.257 75.8678C85.7081 74.2965 81.1985 76.9004 80.1467 79.3405C79.2048 81.5258 80.2233 84.614 82.9939 84.4311C86.1034 84.2257 86.725 80.5899 85.3019 78.2836C83.4325 75.2538 78.7977 77.7023 77.2132 79.8151C75.6437 81.9077 76.7906 84.3448 79.4349 84.3448C82.5173 84.3448 87.5933 81.443 84.1587 77.96C80.757 74.5104 76.6836 79.3111 77.1916 82.8672C77.3624 84.063 77.6693 85.7746 79.025 86.1135" stroke="#FFC943" stroke-width="3.88261" stroke-linecap="round" stroke-linejoin="round"/>
<path d="M84.6546 76.407C84.6546 74.3508 81.4067 75.3714 80.3406 75.7815C79.233 76.2075 77.9306 76.6903 76.9002 77.2914C76.0141 77.8083 75.9261 79.29 75.2177 79.9984C73.7261 81.4901 72.578 82.8171 71.842 84.8409C71.5475 85.6508 70.8783 86.2782 70.6341 87.0842C70.5478 87.369 69.5443 90.1585 70.4831 89.2196" stroke="#FFC943" stroke-width="3.88261" stroke-linecap="round" stroke-linejoin="round"/>
<path d="M71.2596 86.1136C69.8178 87.5553 69.4843 88.8416 68.9731 90.7727C68.5108 92.519 69.6972 94.2848 69.9006 96.0142C70.002 96.8754 73.3935 98.3006 74.1715 98.3438C75.216 98.4018 76.2982 98.732 77.3747 98.732C78.0014 98.732 78.9189 99.491 78.8307 99.3144" stroke="#FFC943" stroke-width="3.88261" stroke-linecap="round" stroke-linejoin="round"/>
<path d="M72.6186 97.179C72.3398 97.179 72.7578 98.628 72.8559 98.883C73.0944 99.5031 73.8347 99.8217 74.3658 100.134C75.4709 100.784 76.9566 101.062 78.2592 101.062C81.5334 101.062 85.0989 101.405 88.4402 100.663C91.6547 99.9482 94.7022 98.8068 96.7986 96.1113C98.7709 93.5755 101.738 90.8864 101.738 87.3754C101.738 86.6029 102.23 85.983 101.652 85.24C101.093 84.5213 100.79 83.5081 100.293 82.727C99.2863 81.1451 97.9066 79.7763 96.6476 78.3915C94.5741 76.1106 91.6584 74.4657 88.5373 74.4657C86.5716 74.4657 84.827 74.8659 82.8967 75.0589C80.6229 75.2863 78.4378 77.0351 76.5012 78.1111C75.6473 78.5855 69.5314 84.9582 70.6773 85.5311" stroke="#FFC943" stroke-width="3.88261" stroke-linecap="round" stroke-linejoin="round"/>
<path d="M92.8081 80.0955C95.0342 80.0955 95.043 82.017 94.3612 83.8918C93.4466 86.4069 92.26 88.8096 91.0178 91.1609C89.5674 93.9065 86.1483 94.4413 83.4899 95.5289C82.664 95.8667 81.4906 96.313 80.8583 96.9848C80.5723 97.2888 82.7772 96.6437 82.9075 96.5858C84.8903 95.7045 86.8262 94.7418 88.3 93.1022C89.8152 91.4166 91.2073 89.4847 92.5709 87.6666C94.8747 84.5948 88.751 94.4048 86.1538 97.2329C85.717 97.7085 80.9444 102.097 81.7427 99.7027" stroke="#FFC943" stroke-width="3.88261" stroke-linecap="round" stroke-linejoin="round"/>
<path d="M94.1672 91.355C94.7495 91.355 95.2766 90.7942 95.8065 90.7942C96.1784 90.7942 93.3413 94.23 93.0671 94.5042C92.2521 95.3193 91.3651 96.2629 90.4356 96.9417C90.2608 97.0693 88.5332 98.2668 89.3139 97.6535C92.1101 95.4565 94.7433 93.0313 97.5752 90.8589C97.6979 90.7648 98.6427 89.9255 98.438 90.0392C97.1136 90.7751 95.8546 91.9547 94.7172 92.9404C93.2557 94.2071 91.6101 95.3981 90.3277 96.8554C89.5518 97.7371 90.1552 97.2113 90.7375 96.726C93.3369 94.5598 95.8715 92.05 98.0498 89.4569C98.6835 88.7024 98.5156 88.7929 97.8017 89.3598C95.19 91.4338 92.4532 93.4572 90.0904 95.82" stroke="#FFC943" stroke-width="3.88261" stroke-linecap="round" stroke-linejoin="round"/>
<path d="M71.4539 86.6959C71.4539 87.1308 70.5008 88.3056 70.3323 88.8745C69.9792 90.0662 69.9053 92.1031 70.246 93.2532C70.5504 94.2806 71.8877 98.4428 73.2011 97.5672" stroke="white" stroke-width="3.88261" stroke-linecap="round" stroke-linejoin="round"/>
<path d="M78.0541 98.5379C78.0541 99.1094 79.8172 99.3144 80.1895 99.3144" stroke="white" stroke-width="3.88261" stroke-linecap="round" stroke-linejoin="round"/>
<path d="M92.6684 71.2241C92.2336 71.2241 91.8054 70.6475 91.4047 70.533C90.1326 70.1696 88.8268 70.1579 87.515 70.1579C85.5192 70.1579 82.457 70.3777 80.5846 71.0464C74.97 73.0517 69.9948 76.8038 68.1455 82.8142C66.1749 89.2186 65.5977 96.3861 71.6205 100.723C75.2069 103.305 79.1806 103.921 83.5068 103.921C89.9385 103.921 94.928 102.728 99.5987 98.0571C101.592 96.0637 103.047 94.2138 104.574 91.8375C105.536 90.3423 107.32 86.6503 106.351 84.9072C105.506 83.3845 106.069 81.7395 104.673 80.1882C103.696 79.1026 103.19 77.4168 101.909 76.6342C100.084 75.519 98.9543 74.0375 96.9332 73.0801C94.4585 71.9079 91.7356 71.3871 89.1143 70.5133" stroke="#1E1E1E" stroke-width="3.88261" stroke-linecap="round" stroke-linejoin="round"/>
<path d="M60.2742 52.241C60.2742 51.4895 57.7955 50.378 56.974 50.2997C55.7724 50.1853 54.5221 50.1539 53.3826 49.9007C52.7968 49.7705 51.2182 49.2525 50.6647 49.4369C49.9757 49.6666 49.0366 49.1252 48.2381 49.4801C47.5993 49.764 46.642 49.9099 45.9948 50.0948C44.232 50.5985 42.378 50.8551 40.667 51.6155C39.04 52.3386 36.9898 52.3059 35.6196 53.6C34.8534 54.3236 34.1358 54.9549 33.5705 55.8432C32.9589 56.8042 32.6671 57.9115 31.8341 58.7444C28.7771 61.8013 28.2427 65.5037 28.2427 69.6157C28.2427 71.4447 29.3006 72.7242 29.9899 74.2749C30.6269 75.7082 31.1112 77.6191 32.1684 78.7938C34.3082 81.1713 36.1612 83.8989 38.3806 86.3649C39.3018 87.3885 40.5574 89.2971 40.667 90.722C40.7456 91.7436 41.4127 92.53 41.6269 93.4938C41.7851 94.2055 41.9459 95.3492 42.3171 96.0175C42.918 97.0991 42.3247 100.15 41.8749 101.162C41.6229 101.729 41.6377 103.148 41.6377 103.783C41.6377 104.649 41.3905 106.111 40.9582 106.889C40.0637 108.499 40.1608 110.84 39.0061 112.324C37.799 113.876 36.2882 115.662 35.5765 117.512C34.9836 119.054 33.7574 121.376 32.6645 122.559C31.2542 124.087 30.5584 126.448 30.1948 128.448C29.8396 130.402 30.7144 132.789 31.64 134.455C32.0428 135.18 31.6411 136.326 31.9743 137.076C32.3113 137.834 32.9031 138.825 33.4842 139.406C35.9195 141.841 39.2354 144.065 42.8456 144.065C47.8352 144.065 52.2411 141.051 57.0818 140.171C59.2812 139.772 61.4603 138.22 62.992 136.688C64.6427 135.037 66.287 133.623 68.5355 132.805C70.7639 131.995 72.0101 129.598 73.7663 128.232C75.458 126.917 76.9016 125.646 78.8029 124.695C80.5172 123.838 82.8197 122.78 84.8101 123.002C85.9377 123.127 90.24 123.278 90.5586 122.322" stroke="#FFC943" stroke-width="3.88261" stroke-linecap="round" stroke-linejoin="round"/>
<path d="M90.7528 123.681C91.1264 123.681 91.2148 123.259 91.4862 123.53C91.7681 123.812 92.4011 123.681 92.7912 123.681C93.7786 123.681 94.5422 123.885 95.509 123.67C96.6381 123.419 97.7949 122.755 98.9494 122.71C100.258 122.66 101.505 122.516 102.789 122.516C104.668 122.516 106.719 122.905 108.516 122.905C110.473 122.905 112.189 121.934 114.048 121.934C115.092 121.934 115.953 122.122 117.047 121.923C118.017 121.747 118.86 121.045 119.786 120.78C120.712 120.515 121.976 120.056 122.741 119.367C123.21 118.945 124.644 118.162 124.726 117.469C124.847 116.439 125.696 115.767 125.696 114.654C125.696 113.795 125.448 112.519 125.017 111.742C124.174 110.224 124.619 108.201 123.906 106.598C123.544 105.782 123.224 104.787 122.989 103.966C122.729 103.057 122.202 102.288 122.202 101.356C122.202 100.599 122.272 98.9406 121.965 98.25C121.445 97.0812 120.778 96.0691 120.498 94.8419C120.221 93.6291 120.334 91.8317 120.746 90.6789C120.978 90.0305 121.162 89.356 121.382 88.6944C121.608 88.0181 122.237 87.3681 122.385 86.6992C122.679 85.3782 123.912 85.0258 124.532 83.8843C125.198 82.6573 126.078 81.4244 127.055 80.39C127.712 79.6948 128.522 78.783 128.997 77.9525C129.593 76.9093 130.987 75.9946 131.315 74.8464C131.908 72.7723 132.845 71.053 133.807 69.1304C134.681 67.3815 134.82 65.3286 134.82 63.5977C134.82 63.1816 135.036 61.35 134.864 61.1279C134.02 60.0435 135.87 59.169 134.044 58.6473" stroke="#FFC943" stroke-width="3.88261" stroke-linecap="round" stroke-linejoin="round"/>
<path d="M58.9153 51.0762C60.9437 53.1046 65.5904 52.8376 68.1365 52.4459C70.2532 52.1203 72.1417 51.2504 74.0575 50.3429C75.6297 49.5981 77.399 49.1712 79.0617 48.5957C82.8443 47.2863 85.1799 44.7855 87.927 42.0384C89.2303 40.7351 90.9323 39.4713 92.7371 38.8029C94.9292 37.991 97.2715 37.4905 99.4023 36.5164C101.327 35.6367 103.428 35.7418 105.496 35.535C107.469 35.3377 110.34 34.5542 112.301 35.2546C116.142 36.6265 121.371 35.0172 124.424 38.0695C125.921 39.5672 127.41 41.1634 128.899 42.6531C130.453 44.2066 131.856 45.9203 132.588 47.9701C132.93 48.928 133.172 49.8796 133.505 50.839C133.824 51.7622 133.965 52.9459 134.389 53.7941C135.038 55.0914 135.594 57.9401 134.82 59.2297" stroke="#FFC943" stroke-width="3.88261" stroke-linecap="round" stroke-linejoin="round"/>
</svg>
