<svg width="162" height="164" viewBox="0 0 162 164" fill="none" xmlns="http://www.w3.org/2000/svg">
<rect width="162" height="164" rx="81" fill="#ECEBEB"/>
<path d="M59.1825 40.3421C53.607 40.3421 48.1409 38.4466 42.7868 41.8177C33.4011 47.7272 28.7369 55.7508 23.7679 65.4274C18.5835 75.5234 17.1276 83.4075 17.1276 94.7756C17.1276 103.395 20.099 116.61 26.1453 123.14C29.2184 126.459 31.4258 132.074 36.3515 133.305C42.8833 134.938 49.1623 138.729 55.8214 140.52C63.7636 142.655 73.695 142.897 82.0134 142.897C86.8806 142.897 91.5026 141.59 96.2367 141.421C105.326 141.097 116.088 135.84 124.109 131.83C133.472 127.149 136.539 121.02 139.767 111.335C142.13 104.246 143.292 97.7912 143.292 90.3488C143.292 84.0292 141.014 78.1268 140.341 72.0677C139.723 66.5062 134.729 61.3567 134.439 55.836C134.151 50.3733 125.575 46.0771 121.322 44.605C110.31 40.7933 99.6092 38.1287 87.9569 38.1287C76.1451 38.1287 58.8014 34.999 48.1154 40.3421" stroke="#1E1E1E" stroke-width="4.42201" stroke-linecap="round" stroke-linejoin="round"/>
<path d="M42.2131 56.5738C38.1039 60.6831 51.0171 50.5315 48.5254 52.8848C45.1938 56.0313 41.9669 60.6591 38.1961 63.173C33.9673 65.9923 45.8116 56.3976 49.1402 52.5569C53.5193 47.5041 42.3276 52.9759 40.7375 53.7865C40.052 54.136 37.5326 55.7455 37.5813 55.713C40.7516 53.5995 43.9096 50.3684 46.5989 47.6791C47.5025 46.7755 56.2648 37.1589 51.4766 41.8177C47.2086 45.9704 35.6703 59.5968 39.9997 55.5081C42.2292 53.4024 44.2688 51.202 46.6399 49.1957C48.6618 47.4849 55.3958 44.1131 52.7473 44.1131C50.2965 44.1131 46.8582 47.8523 45.1643 49.1957C39.8992 53.3715 34.8596 57.6884 29.8344 62.1483C20.1443 70.7483 33.4773 61.4503 36.6795 58.7462C40.6193 55.4193 44.1596 51.5683 48.6484 48.9498C51.4007 47.3443 43.4434 52.6493 41.0654 54.7703C36.7018 58.6621 32.2601 62.4703 27.8669 66.3292C27.398 66.741 20.522 72.5975 22.6203 72.4776C26.5308 72.2541 32.4098 67.2692 35.3269 64.9356C41.3269 60.1356 46.8881 54.5083 53.69 50.8353C56.9286 49.0865 49.9148 52.1372 49.1812 52.5978C42.9964 56.4814 37.6193 61.7261 32.0478 66.4112C31.5608 66.8207 24.7158 73.4888 25.8174 73.7892C28.7518 74.5895 36.7156 67.9652 38.893 66.4522C47.1507 60.7137 70.0949 41.5672 61.0681 45.9986C54.7842 49.0834 49.4089 54.0763 44.3855 58.8282C37.1936 65.6313 29.4224 71.88 22.8252 79.2818C21.9704 80.2408 17.6307 85.058 21.8825 82.9708C27.9214 80.0062 33.1752 75.1775 38.524 71.1659C47.1471 64.6987 54.3694 56.6729 62.5437 49.6876C66.3846 46.4054 57.4432 52.6749 56.9692 53.0487C44.1205 63.1814 29.8128 75.3429 19.5461 88.1764C11.4993 98.2349 41.7146 74.6193 50.9028 65.5914C52.7039 63.8217 67.854 51.7035 66.3967 49.0318C65.5422 47.4653 52.3449 59.1068 51.7226 59.648C42.6864 67.5055 34.4728 76.3348 26.8831 85.5941C26.4811 86.0846 19.3691 95.6894 23.1121 94.8576C28.2194 93.7227 33.3651 87.8767 37.0485 84.6103C45.5749 77.0492 53.4546 68.9066 61.232 60.5907C61.8641 59.9149 71.665 50.0619 65.9458 53.1307C56.9701 57.9469 49.3848 67.6028 42.6639 75.0189C38.1572 79.9919 28.0569 88.5698 27.211 95.7594C26.8584 98.7566 32.0272 95.0821 32.4577 94.7757C38.8935 90.1934 44.5134 84.178 50.165 78.7079C58.0633 71.0633 66.0736 62.7034 71.6433 53.1307C75.7826 46.0163 67.1961 49.6137 64.1832 51.7371C46.308 64.3348 28.419 82.8471 19.1772 102.81C17.5204 106.388 18.3587 111.611 23.5221 109.45C32.1929 105.82 40.2165 96.7984 46.9268 90.5128C54.9139 83.0312 64.0558 74.7661 69.7578 65.3455C73.5914 59.0116 69.3829 56.3004 63.2815 59.2791C52.1671 64.705 42.5369 73.8096 34.835 83.2987C29.9613 89.3033 25.2215 95.546 21.0627 102.072C19.4292 104.635 16.5152 108.564 16.8818 111.909C17.6876 119.261 29.0954 110.938 31.3509 109.327C42.298 101.507 52.2843 91.8435 61.5599 82.151C65.9899 77.522 78.1303 65.6283 76.6439 58.2953C75.3877 52.0979 53.5821 70.946 52.7883 71.7398C43.6045 80.9235 33.4674 91.99 29.0556 104.49C28.0991 107.2 24.6013 115.82 30.5722 114.327C34.9308 113.238 38.7518 109.563 42.0901 106.826C49.2962 100.919 56.3149 94.7514 63.0765 88.3404C69.5587 82.1943 75.6395 75.7482 81.1937 68.7476C83.0887 66.3591 90.1247 59.3207 89.3915 55.5081C88.6658 51.7344 73.6304 64.3574 72.7909 65.0995C61.5827 75.0092 51.1363 85.938 43.1148 98.6286C41.3269 101.457 34.5234 110.103 36.7615 114.082C39.0539 118.157 50.2469 109.553 52.1324 108.302C64.0452 100.401 75.2164 91.5288 84.6778 80.7574C88.8564 76.0002 102.71 61.2748 98.3682 53.5406C93.3135 44.5369 54.3596 83.4874 50.8208 87.8075C46.9643 92.5154 40.4895 99.2471 40.8604 105.925C41.1043 110.315 44.7822 110.962 48.2794 109.532C56.6936 106.09 64.3704 100.014 71.6433 94.6937C81.9786 87.1326 92.1561 77.5441 98.5322 66.3292C101.537 61.0435 105.373 51.7197 95.7859 56.9017C80.3374 65.2522 66.1311 78.6165 54.3868 91.4555C50.8784 95.291 36.3917 109.836 41.6392 116.541C45.382 121.323 61.4546 108.926 64.3882 107.195C80.5327 97.6713 95.6097 86.4536 107.878 72.1497C109.671 70.0581 125.503 47.901 113.862 48.9498C100.092 50.1904 85.3061 63.1711 75.5782 71.8217C66.7257 79.694 58.6467 88.6892 51.7225 98.3007C48.292 103.063 44.4926 108.717 43.6067 114.696C40.4814 135.792 85.6094 100.428 88.5718 97.7269C93.9251 92.8459 116.224 72.805 110.173 63.296C106.473 57.4811 84.9856 72.3375 82.5873 73.8712C66.966 83.8616 53.0831 96.2344 42.2131 111.335C40.0688 114.314 31.56 129.474 41.2293 129.288C51.5365 129.09 63.8628 121.173 72.2581 115.926C84.867 108.045 96.0387 96.9602 104.353 84.6513C105.841 82.4479 115.207 69.5757 108.124 67.8048C97.1941 65.0724 81.4034 78.8283 73.9387 84.9383C63.0406 93.8584 46.6661 106.32 42.541 120.599C40.844 126.473 42.0383 131.992 49.1812 131.338C74.5803 129.011 104.278 104.737 113.862 81.9051C118.616 70.5803 99.4146 80.4529 96.8106 81.987C83.9862 89.5425 72.2889 99.4964 62.0518 110.27C57.479 115.082 48.5627 123.957 50.2059 131.625C51.9427 139.73 68.5914 131.802 72.2991 130.19C88.4712 123.159 104.056 112.677 113.862 97.7269C116.409 93.844 122.828 80.8745 112.714 81.6181C102.414 82.3756 92.7131 90.0667 84.9238 96.0873C75.3246 103.507 61.115 114.536 58.1988 127.075C56.3778 134.905 64.4339 135.975 70.1267 134.904C85.974 131.923 99.3889 123.185 110.624 111.95C116.454 106.12 129.715 93.6113 127.798 83.9545C125.313 71.4328 97.8024 90.4468 94.6792 92.7262C86.0343 99.0353 63.6373 113.481 64.4292 126.829C64.9855 136.207 77.1338 131.996 82.0545 130.108C94.1948 125.451 104.71 118.013 113.616 108.589C115.571 106.52 128.625 93.6737 123.085 89.9799C116.39 85.5169 103.983 94.5264 98.942 97.8498C90.4401 103.456 81.2347 110.782 75.5372 119.328C72.5859 123.755 69.7823 130.885 76.48 133.551C85.1461 137.002 97.6133 130.547 104.844 126.173C114.073 120.592 122.591 113.808 127.306 103.875C130.576 96.9889 123.417 98.6229 118.945 100.596C112.893 103.266 74.7477 127.397 84.6368 135.765C87.3113 138.028 93.8527 134.237 96.0728 133.141C107.961 127.273 119.03 119.017 126.487 107.892C131.074 101.048 128.148 98.5397 121.035 100.637C110.675 103.692 101.171 111.549 93.5724 118.959C91.3598 121.117 76.5889 136.749 87.4241 136.749C96.4162 136.749 107.479 128.965 114.313 123.755C121.15 118.542 131.979 108.957 131.979 99.2845C131.979 90.2087 115.503 102.099 113.698 103.465C107.489 108.166 96.7377 115.373 94.8841 123.714C93.569 129.632 98.8987 132.073 103.779 130.477C112.207 127.722 119.915 122.356 125.503 115.516C128.793 111.488 135.922 100.536 131.323 95.2675C123.248 86.0142 93.7065 115.514 102.877 125.681C105.761 128.879 115.11 122.069 117.223 120.435C125.982 113.661 132.467 103.772 133.783 92.6442C134.656 85.2643 131.642 80.9158 124.683 85.3482C115.94 90.9168 109.147 98.12 105.582 107.974C104.445 111.118 103.985 118.641 109.435 117.279C117.526 115.256 124.479 105.245 128.413 98.5876C131.005 94.2022 139.098 79.0736 131.692 75.2648C126.139 72.4086 117.046 78.8103 113.206 82.11C109.699 85.1241 105.097 90.2298 105.828 95.3495C106.308 98.7114 109.616 100.698 112.714 99.2025C121.783 94.8245 135.858 78.2708 127.798 67.8868C121.725 60.0614 107.753 79.0602 106.115 83.7906C105.217 86.3853 106.629 90.8924 109.804 91.1276C115.937 91.5819 123.382 85.748 126.61 81.0853C129.83 76.4333 134.452 67.3527 130.094 61.9844C125.343 56.1325 115.469 63.144 111.567 66.2472C107.902 69.1614 94.9344 87.2524 107.55 85.6351C118.002 84.295 132.418 66.1036 119.109 59.0331C109.44 53.8969 80.4024 72.1415 91.8099 78.38C102.431 84.1883 125.687 63.5197 113.165 54.8932C106.886 50.5673 98.1142 52.9583 92.0559 56.3279C88.3489 58.3896 71.9167 68.8666 77.2178 74.8549C84.5292 83.1142 107.526 71.616 109.476 62.5172C111.479 53.1726 96.556 53.721 91.277 54.5243C83.4451 55.7162 72.6549 60.6885 68.1182 67.3949C64.873 72.1921 79.1689 72.4865 80.8248 72.4776C90.8044 72.4239 104.851 69.1621 111.157 60.7547C115.179 55.3913 109.793 50.9458 104.926 49.0318C94.573 44.9602 81.5136 47.7767 71.5203 51.6141C68.0151 52.9601 54.5554 58.4629 57.625 64.6896C61.0363 71.6097 72.8923 70.7354 78.9393 70.1002C88.2623 69.1209 99.8173 67.4114 105.582 58.9512C110.671 51.4839 100.748 47.8453 94.9251 47.3103C84.8953 46.3886 74.7891 48.7371 65.9048 53.3766C62.4246 55.1941 50.9144 61.0999 53.0752 66.8621C55.4198 73.1144 67.2639 72.6774 72.2991 72.3546C81.4384 71.7688 93.317 69.1399 99.7618 62.0663C104.874 56.4554 99.8861 49.7471 93.8594 48.048C81.4994 44.5636 65.3237 46.9565 54.4278 53.7046C51.4736 55.5342 41.4476 61.212 46.394 66.0013C52.2724 71.6932 65.3576 68.1938 72.1351 66.7391C77.0665 65.6806 84.6724 64.0891 85.9075 58.0904C87.5683 50.0234 64.6847 54.5482 61.6829 55.1802C52.6884 57.0737 41.7189 58.7766 34.1792 64.5257C28.5836 68.7923 42.833 67.6192 44.7544 67.4769C57.9754 66.4976 71.2709 63.3897 84.145 60.3858C85.92 59.9716 101.441 55.918 92.0558 55.918C77.427 55.918 62.5533 59.7915 48.2385 62.3942C45.5044 62.8913 28.1833 66.5492 40.2046 65.7144C52.8594 64.8356 65.4638 62.6929 77.9556 60.5907C84.0782 59.5604 90.2056 58.5614 96.3187 57.4756C98.4462 57.0976 104.237 57.4455 102.631 55.9999C99.7253 53.3848 85.2365 56.6795 81.7266 56.9427C73.3395 57.5717 48.1803 59.4748 56.5593 58.7462C66.2767 57.9012 75.8659 56.6393 85.4976 55.0982C90.9147 54.2314 96.3623 53.461 101.729 52.3109C103.021 52.0342 106.442 51.3941 105.336 50.6714C102.826 49.0301 97.0226 49.9999 94.3512 50.0975C87.6255 50.3432 80.8953 50.9121 74.1846 51.4092C69.3952 51.7639 64.5846 52.1236 59.8384 52.8848C59.6648 52.9126 54.9039 53.6901 58.2808 53.6226C73.2829 53.3225 118.07 48.523 103.082 49.2367C94.5185 49.6445 85.7734 50.7631 77.4637 52.8848C76.2268 53.2006 63.0476 56.7895 69.1839 59.525C78.2749 63.5776 90.2675 62.4762 99.9258 62.4762C103.496 62.4762 113.269 62.4373 104.066 63.9928C87.7735 66.7464 71.09 67.7873 54.7147 70.1002C50.6417 70.6755 38.8372 70.6525 42.582 72.3546C45.66 73.7537 52.6041 71.9518 55.7805 71.6988C69.1557 70.6335 82.5352 69.6281 95.9088 68.5426C96.7356 68.4755 116.723 67.0654 107.222 68.3787C85.1106 71.4347 18.58 77.6422 40.9014 77.6422C58.0356 77.6422 75.3719 74.4018 92.4657 73.2564C101.199 72.6712 127.392 71.086 118.699 72.1087C106.216 73.5772 93.6834 74.6893 81.1937 76.1256C71.076 77.2891 60.934 78.2481 50.8208 79.4457C47.5973 79.8275 44.3669 80.2022 41.1883 80.8803C40.2653 81.0773 37.8635 81.3147 38.565 81.9461C39.8148 83.0709 45.8098 82.2779 46.9678 82.233C56.2716 81.8721 65.5642 80.9439 74.8404 80.1835C90.3195 78.9148 106.085 76.662 121.65 76.8224C149.379 77.1083 66.42 82.0393 38.9339 85.7171C37.1004 85.9624 30.7948 86.1214 28.8506 87.5616C26.1588 89.5555 35.5034 88.639 38.852 88.5453C59.4367 87.9695 79.9775 86.3987 100.582 85.922C107.905 85.7526 115.227 85.4253 122.552 85.3482C126.013 85.3117 122.172 85.4428 121.076 85.5121C105.448 86.5012 89.6683 87.6761 74.1026 89.3651C65.1137 90.3404 56.1391 91.5258 47.1728 92.6852C42.6557 93.2693 36.8172 93.9943 32.1707 94.8166C30.8549 95.0495 27.4481 94.9088 28.3177 95.9233C30.0405 97.9331 50.6797 94.9149 51.6406 94.8576C68.7349 93.8388 85.8214 92.6806 102.918 91.7015C109.687 91.3138 116.504 90.8407 123.29 90.8407C123.879 90.8407 125.59 91.1372 125.011 91.2506C123.157 91.6139 115.297 92.4225 114.764 92.4803C98.9577 94.1901 83.1598 95.9454 67.3804 97.8908C56.4345 99.2403 43.7675 99.4787 33.2774 103.301C31.3635 103.999 37.3092 104.139 39.3438 104.039C51.5626 103.441 63.7684 102.587 75.9881 101.99C91.5853 101.227 107.144 100.842 122.757 100.842C131.151 100.842 106.099 102.938 97.7533 103.834C79.1991 105.828 60.4618 107.258 42.0491 110.393C40.0987 110.725 34.9116 110.51 36.3106 111.909C38.4231 114.022 51.5602 111.456 53.6081 111.335C78.4829 109.872 103.402 108.891 128.29 107.646C158.069 106.157 68.5412 110.664 39.2619 116.295C37.4448 116.644 37.4733 117.244 39.4258 117.484C48.3097 118.576 57.8347 117.417 66.7246 117.074C85.2437 116.358 103.815 115.688 122.306 114.45C147.934 112.735 70.8823 116.143 45.4102 119.451C37.7275 120.449 60.9061 119.844 68.6511 119.656C76.1279 119.475 83.6019 119.321 91.0721 118.959C91.7 118.929 93.5731 118.872 92.9576 119C91.5718 119.289 88.095 119.611 87.2191 119.697C78.0186 120.601 50.4476 122.359 59.6744 122.935C69.6575 123.559 80.0511 122.194 89.9654 121.132C94.892 120.604 100.541 119.719 91.9739 120.189C82.9287 120.685 73.8765 121.916 64.8391 122.238C62.42 122.325 63.215 119.91 65.085 119.287" stroke="#F24822" stroke-width="4.42201" stroke-linecap="round" stroke-linejoin="round"/>
<path d="M77.6277 108.22C74.2078 110.5 67.7978 113.121 66.1508 116.91C62.5171 125.267 80.9734 122.205 83.8171 121.337C90.7241 119.226 99.6856 116.289 101.237 108.22C102.613 101.068 98.6405 97.153 91.8099 97.153C84.5594 97.153 77.5045 99.9579 71.1514 103.219C65.6381 106.05 57.2582 109.746 54.1819 115.557C48.6548 125.997 77.5275 119.017 80.415 118.385C88.0686 116.71 113.289 109.752 107.632 96.8661C105.328 91.6181 97.761 92.6964 93.3675 93.7509C80.0857 96.9385 66.1805 102.771 54.8377 110.433C52.8786 111.757 42.8597 119.151 45.8201 122.812C50.0647 128.062 68.1061 122.225 73.0369 121.05C81.9243 118.93 91.1324 115.949 99.065 111.335C106.15 107.214 116.94 100.411 120.338 92.4802C123.037 86.1823 109.725 88.3132 107.386 88.7912C93.0709 91.7164 78.9146 98.2307 65.8228 104.572C59.8885 107.446 49.1345 110.828 45.5332 116.951C42.3945 122.287 61.416 118.314 62.5437 118.057C73.5113 115.557 85.191 112.12 94.8431 106.171C101.864 101.843 115.793 92.7573 116.608 83.2986C117.241 75.9591 105.542 76.8173 101.319 77.4782C88.3272 79.5117 75.2248 85.1718 65.003 93.4639C59.8556 97.6397 53.2023 104.075 53.772 111.417C54.3295 118.602 63.8112 119.786 69.3069 119.902C85.9837 120.253 108.027 113.911 114.026 96.4152C116.418 89.4378 116.185 80.5887 110.337 75.2648C102.401 68.0395 87.7687 72.2898 78.9393 75.0188C69.1988 78.0296 26.623 92.7458 38.852 111.089C48.1054 124.969 80.4629 120.951 92.0559 113.057C104.659 104.474 111.237 78.5898 94.1053 71.2478C84.9795 67.3368 74.1439 70.5734 65.331 73.8711C53.0552 78.4647 39.061 85.6787 35.6548 99.4484C31.7652 115.172 47.1325 124.424 61.0271 122.033C78.2562 119.069 88.6315 103.47 86.8912 86.2499C84.3066 60.6749 55.9028 70.0957 42.541 81.0033C32.6009 89.1177 24.266 109.843 39.0159 118.221C50.9288 124.988 71.3596 121.675 76.398 107.769C81.8863 92.6216 73.7801 72.3876 54.9197 77.1503C38.3417 81.3367 21.3031 98.8272 31.6379 116.582C37.5006 126.654 49.1048 126.702 58.7727 121.91C71.3268 115.689 79.701 98.9221 72.9959 85.5121C65.3545 70.2293 43.1768 81.448 39.5898 94.2018C37.1565 102.853 39.0415 112.067 41.8032 120.353C43.1707 124.455 47.1561 115.064 48.1155 113.385" stroke="#F24822" stroke-width="4.42201" stroke-linecap="round" stroke-linejoin="round"/>
<path d="M27.4567 89.7749C22.0143 89.7749 22.4731 103.307 22.866 106.744C23.1701 109.405 23.2033 113.197 26.1451 114.286C29.0445 115.36 31.8636 113.663 32.9083 110.761C34.1956 107.186 33.2203 101.055 30.0391 98.7105C25.1892 95.1369 20.3859 108.234 20.2017 111.458C20.002 114.952 22.0692 119.205 25.9812 119.205C31.8161 119.205 34.3162 113.758 34.6708 108.794C34.8608 106.134 34.4611 94.1132 28.9324 99.1204C23.2157 104.298 23.3979 114.235 25.5713 120.927C27.82 127.85 33.6841 136.564 42.0489 133.879C49.6003 131.455 51.3701 123.874 49.5089 116.828C48.5395 113.158 44.6948 106.228 39.9994 109.163C34.4334 112.642 34.8385 121.785 37.1712 127.034C40.9348 135.502 49.6051 138.794 58.3626 137.24C67.5494 135.61 70.6436 129.894 65.8226 121.828C57.5307 107.955 39.2543 125.779 53.6898 137.076C60.1144 142.104 72.4201 142.869 79.8408 139.618C86.3199 136.779 89.4469 123.234 82.5871 119.082C76.909 115.645 64.5316 119.721 63.8551 126.993C63.1128 134.973 76.6242 138.158 82.3822 138.347C89.2198 138.571 101.367 135.17 101.77 126.706C102.2 117.681 90.1043 118.731 84.7596 121.664C79.6788 124.453 78.2716 132.465 83.8578 135.355C91.0809 139.091 102.238 137.554 109.435 134.453C115.177 131.979 120.604 125.158 118.453 118.549C115.542 109.609 102.073 116.539 98.4089 121.173C94.0746 126.654 94.9094 132.183 101.319 135.109C108.432 138.356 120.233 136.36 125.872 130.846C130.644 126.18 134.429 116.144 127.634 111.417C120.668 106.571 107.336 112.359 103.779 119.287C100.635 125.409 105.11 129.754 110.993 130.764C119.364 132.202 128.396 129.054 133.783 122.566C137.087 118.586 140.986 106.709 133.537 104.531C125.957 102.315 115.393 107.572 110.583 113.344C108.067 116.362 109.13 119.943 113.452 119.943C120.603 119.943 128.034 114.47 131.405 108.466C134.033 103.786 139.549 89.5505 130.217 88.2173C122.812 87.1595 112.818 96.6209 112.632 103.957C112.495 109.365 115.584 110.881 120.42 110.269C127.304 109.399 132.374 103.124 134.11 96.6611C135.514 91.4385 137.519 78.4823 129.274 77.7241C123.069 77.1536 115.035 85.0696 115.378 91.2505C115.645 96.0522 120.244 98.2233 124.56 96.6201C132.636 93.6204 136.835 85.0156 137.554 76.9043C140.037 48.8761 101.336 71.3998 111.73 85.0202C115.085 89.4165 121.601 86.5914 124.929 83.8725C130.176 79.5861 130.224 70.0193 126.732 64.6896C118.465 52.0716 89.0791 64.8185 96.5234 73.8301C103.773 82.6061 117.543 65.8022 116.526 58.0083C115.52 50.2926 109.938 48.291 103.164 50.0155C97.7446 51.3949 85.4311 57.7319 86.2352 64.8535C87.6439 77.331 109.571 72.0076 107.959 59.115C105.584 40.1151 77.1785 43.6228 70.0444 57.2705C64.4188 68.0325 90.0881 72.1899 90.0881 59.5249C90.0881 49.3288 78.6531 50.0257 72.0119 52.3108C64.7427 54.8121 56.6078 59.3891 52.5421 66.1652" stroke="#F24822" stroke-width="4.42201" stroke-linecap="round" stroke-linejoin="round"/>
<path d="M46.6399 51.4091C45.3745 52.6745 43.4679 53.089 42.2131 54.4833C41.0432 55.7831 37.843 62.3291 42.0491 59.5249C52.506 52.5536 33.0327 44.8843 31.228 56.1638C29.578 66.4757 52.6893 60.8333 52.5423 51.573C52.4077 43.0922 39.3987 47.328 36.0237 50.7943C31.002 55.9517 32.0169 62.1166 39.3438 62.4352C47.7075 62.7988 57.3613 59.6755 62.7896 53.0487C67.3056 47.5356 64.9184 43.7566 58.3628 45.6296C55.3056 46.5031 44.2898 52.8057 50.083 57.3115C55.7518 61.7206 66.9515 57.5549 72.1351 54.3603C78.9368 50.1686 74.338 45.704 68.0362 48.5398C62.955 50.8264 57.7754 58.3785 65.5769 60.9186C73.002 63.3361 84.8366 61.9557 91.0721 57.1476C94.5383 54.4748 100.271 43.2282 91.0721 45.8346C86.5172 47.1251 83.7576 53.1057 86.1944 57.2295C88.4137 60.9853 93.802 62.8165 97.7123 63.9518C107.765 66.8702 115.456 63.1696 113.78 51.86C111.93 39.3752 88.636 60.2814 100.991 65.2634C106.299 67.4034 117.117 63.9598 119.519 58.6232C122.905 51.0973 117.533 43.9545 109.435 45.2197C104.215 46.0355 101.173 52.479 102.139 57.3115C103.204 62.6335 108.592 63.4938 113.083 63.173C117.118 62.8848 125.702 60.9733 123.781 55.0981C121.707 48.7515 110.129 51.7978 106.32 54.3603C97.139 60.5366 117.2 70.8029 122.142 60.9186C124.833 55.5355 117.511 48.9614 113.042 47.7201C107.453 46.1674 103.031 51.5653 106.402 56.5737C111.921 64.7739 130.184 58.281 119.519 48.7858C111.202 41.3825 99.9278 41.2584 89.8014 44.4409C87.2499 45.2429 78.4582 50.0698 83.6941 52.9257C93.1426 58.0794 106.053 48.4795 95.7449 39.7682C89.6314 34.6019 79.7947 36.6439 73.3238 40.0141C68.2885 42.6367 63.7888 47.8846 71.3153 50.2204C74.5003 51.2089 81.9292 51.2617 84.104 48.13C88.4305 41.8997 75.0814 39.6862 72.0121 39.6862C66.4615 39.6862 52.7397 40.9363 52.8702 49.0317C52.9974 56.9156 67.4815 55.3401 72.2171 54.3603C77.3247 53.3036 79.348 47.3755 74.6355 44.113C70.4163 41.1921 60.887 42.1362 58.2398 47.0232C51.9506 58.6339 88.7822 59.7591 92.2198 52.3108C92.9764 50.6715 87.2306 54.5012 86.5223 55.9179C83.6641 61.6344 85.6594 68.2266 90.0064 72.6415C93.053 75.7357 103.145 80.8436 107.058 76.3715C111.752 71.0065 103.913 70.1252 100.459 71.7807C87.9245 77.7866 83.6929 95.6035 102.385 91.2505C106.64 90.2597 113.382 88.3976 114.764 83.4626C117.121 75.0427 102.967 84.4425 101.278 86.5778C98.7778 89.7403 93.737 98.7569 101.073 99.9402C105.287 100.62 112.128 98.9441 114.764 95.3494C115.37 94.5229 115.391 93.2522 114.026 93.7918C111.019 94.9808 109.202 97.534 107.714 100.268C105.706 103.956 103.608 109.859 109.763 108.794C114.25 108.017 120.026 102.542 119.56 97.6448C119.097 92.7871 102.316 104.165 100.541 105.679C96.506 109.12 95.1032 111.732 101.237 110.433C105.615 109.506 111.659 107.297 113.78 103.055" stroke="#F24822" stroke-width="4.42201" stroke-linecap="round" stroke-linejoin="round"/>
<path d="M115.256 110.433C115.256 117.242 107.886 126.168 117.633 130.19C122.782 132.315 131.691 130.377 132.102 123.796C132.521 117.093 125.289 118.911 121.158 120.353C115.607 122.29 99.8317 135.821 114.846 131.502C119.697 130.106 127.351 125.583 128.454 120.066C129.479 114.944 119.466 121.076 118.248 121.828C117.875 122.059 109.648 127.171 112.468 127.977C117.442 129.398 125.574 125.435 129.192 122.525C131.124 120.971 137.971 114.153 131.159 115.926C125.05 117.516 117.65 120.638 112.755 124.78C109.184 127.801 132.074 119.614 130.217 119.328C122.421 118.129 113.029 121.378 105.336 122.238C100.664 122.761 84.3312 123.968 98.2042 122.812C106.31 122.137 114.361 120.803 122.47 120.066C124.591 119.873 122.568 120.011 121.732 120.025C116.963 120.104 112.151 120.66 107.386 120.927C98.2354 121.438 70.7583 122.238 79.923 122.238C88.7426 122.238 97.4274 120.837 106.238 120.763C108.383 120.745 114.789 120.451 112.673 120.804C109.136 121.393 105.607 122.1 102.057 122.607C95.8027 123.501 89.4763 123.732 83.2022 124.452C82.4212 124.541 72.1078 126.287 72.381 126.665C73.626 128.389 79.8011 128.318 81.4806 128.469C87.5978 129.018 93.7151 128.762 99.8438 128.92C103.418 129.011 122.88 129.908 109.23 130.395C97.4135 130.817 85.4776 130.954 73.6927 131.994C63.4323 132.899 78.6521 132.568 81.3987 132.568C86.8092 132.568 103.041 132.568 97.6303 132.568C88.9543 132.568 80.2783 132.568 71.6023 132.568C63.0368 132.568 70.1366 132.289 74.4305 131.994C81.1709 131.531 101.435 131.092 94.6791 131.092C87.2403 131.092 79.7756 131.83 72.2991 131.83C69.6126 131.83 60.7474 133.484 59.1826 130.354" stroke="#F24822" stroke-width="4.42201" stroke-linecap="round" stroke-linejoin="round"/>
<path d="M38.5239 120.763C35.7674 120.763 30.9846 120.908 29.3834 123.755C26.4861 128.906 34.6253 131.892 38.36 131.256C45.4856 130.043 47.5522 125.906 43.2787 119.41C39.9659 114.375 28.9425 112.367 28.8505 120.927C28.6912 135.742 59.7998 140.222 56.0673 122.238C54.5278 114.821 42.9047 121.737 44.9182 128.51C48.3663 140.108 69.9542 136.86 78.2014 135.519C81.5767 134.97 86.4942 133.771 88.2028 130.354C89.9341 126.892 85.5597 125.094 82.9971 124.944C75.6809 124.513 68.1882 133.101 77.6276 136.667C82.8968 138.657 89.8746 137.926 95.3349 137.404C101.738 136.793 111.056 136.502 115.747 131.42C123.073 123.484 110.648 121.604 105.09 123.878C103.399 124.57 100.232 126.657 100.663 128.879C101.316 132.236 107.347 130.931 109.476 130.682C114.43 130.104 119.543 129.655 124.396 128.469C127.22 127.778 132.13 124.538 127.224 122.402C122.826 120.487 104.219 122.942 102.836 129.166C102.281 131.663 113.817 128.332 114.518 128.141" stroke="#F24822" stroke-width="4.42201" stroke-linecap="round" stroke-linejoin="round"/>
<path d="M42.2131 64.6896C37.1371 64.6896 32.0869 72.4399 29.8344 76.4945C28.4863 78.9211 27.6973 81.8004 26.8832 84.4464C26.5039 85.679 25.9814 92.9542 25.9814 89.4061C25.9814 84.2399 27.6372 78.7398 30.8181 74.65C32.1772 72.9025 33.4655 71.1972 34.835 69.4853C36.3404 67.6037 40.449 67.4801 41.4753 65.4274" stroke="white" stroke-width="4.42201" stroke-linecap="round" stroke-linejoin="round"/>
<path d="M28.195 101.58C28.195 103.793 28.195 106.007 28.195 108.22C28.195 110.973 26.9531 105.767 26.7604 104.9C26.5123 103.783 27.2198 100.458 27.4982 101.99C27.949 104.469 28.9329 107.223 28.9329 109.696" stroke="white" stroke-width="4.42201" stroke-linecap="round" stroke-linejoin="round"/>
<path d="M79.1032 40.342C79.1032 37.951 65.0406 36.7836 62.5026 37.7597C54.9222 40.6753 46.7478 39.0069 40.1635 44.9328C39.1146 45.8769 35.6688 47.5628 35.5727 49.1957C35.3517 52.9525 39.4248 49.7609 41.1063 48.8268C47.9127 45.0453 56.744 43.2933 64.511 43.2933C70.2679 43.2933 87.1799 42.7024 81.6445 41.1208C78.439 40.2049 74.6317 41.5006 71.3152 40.7109C67.5509 39.8147 61.9742 39.8215 58.2807 40.9159C56.0179 41.5863 53.2007 43.1094 50.9027 43.2933C49.7051 43.3891 44.317 44.031 45.5331 44.031C54.6901 44.031 63.3204 37.5317 72.8318 39.6452C73.7614 39.8518 80.4968 39.812 80.4968 39.9731C80.4968 40.4137 77.69 41.8101 77.2587 42.1455C75.9207 43.1862 75.2615 44.5116 74.1025 45.6706C70.9801 48.7931 68.0361 56.2505 68.0361 60.6316C68.0361 61.7128 68.0361 67.9482 68.0361 64.3207C68.0361 62.0261 69.4193 58.3262 70.9873 56.5737C74.4543 52.6988 82.6841 39.3769 79.8 43.7031C78.2607 46.0121 75.2904 46.9423 73.5697 49.2367C70.9276 52.7594 70.2622 56.5451 68.6099 60.2627C67.4269 62.9246 65.2029 65.8843 65.0849 68.9524C64.9813 71.6442 64.1709 73.7823 65.1259 69.4853C65.9124 65.9462 80.5979 46.254 80.5788 46.2445" stroke="#66D575" stroke-width="4.42201" stroke-linecap="round" stroke-linejoin="round"/>
<path d="M73.939 44.0311C73.939 42.8191 69.139 47.4775 68.4054 48.0481C65.9659 49.9454 63.7867 52.6498 63.6097 55.836C63.4199 59.2522 62.8719 61.7228 62.8719 65.0585C62.8719 66.5665 64.1804 74.1703 64.3475 71.3299C64.6586 66.0414 65.9509 56.1533 69.5122 52.147C70.5423 50.9881 70.8447 49.4577 72.0944 48.4579C72.9918 47.7401 75.6676 46.4815 76.1524 45.8756C76.3245 45.6605 84.1041 47.2937 84.8421 47.8841C90.4792 52.3938 98.141 52.1839 101.812 59.525C103.069 62.0391 103.584 66.0593 105.296 64.6896C106.855 63.4418 106.054 56.3235 105.501 54.5243C103.049 46.5562 95.8935 45.263 89.4329 42.3916C86.2234 40.9651 83.1366 42.5555 80.2103 42.5555C80.2086 42.5555 87.2792 44.0805 89.5968 45.5067C92.3028 47.172 98.7553 49.9143 99.7211 53.2947C100.077 54.54 103.3 61.1086 101.402 57.3116C99.2183 52.9448 96.7235 50.2949 92.753 48.089C90.3155 46.7348 86.362 44.1884 83.5304 44.0311C82.8196 43.9916 79.2885 43.3963 78.8167 42.9244C77.8843 41.9921 81.8743 41.6744 82.0548 41.4488C83.575 39.5486 94.7952 42.0466 97.0568 42.3916C106.003 43.7562 115.892 47.3006 124.11 51.4092C125.907 52.3079 131.747 55.6011 127.43 52.147C124.834 50.0701 123.628 47.19 120.421 45.6707C116.377 43.7551 111.54 44.738 107.55 42.9244C104.16 41.3834 100.273 40.3421 96.6469 40.3421C90.4678 40.3421 83.1272 39.9709 77.628 39.6043C76.0636 39.5 71.7975 40.6905 75.7425 39.5633C77.5623 39.0434 79.1915 38.8665 81.317 38.8665C85.2927 38.8665 82.7533 38.2072 82.0548 39.6043" stroke="#66D575" stroke-width="4.42201" stroke-linecap="round" stroke-linejoin="round"/>
<path d="M51.8046 41.8177C63.1558 41.8177 77.2887 38.1041 89.2686 41.6537C95.5579 43.5172 103.26 41.4871 109.353 44.195C111.811 45.2875 114.71 45.3278 117.141 46.4084C119.219 47.332 123.493 48.7847 119.683 46.2445" stroke="#66D575" stroke-width="4.42201" stroke-linecap="round" stroke-linejoin="round"/>
<path d="M96.0728 47.7201C99.1337 47.7201 99.7889 50.2125 100.459 52.5568C100.794 53.7299 104.858 60.8641 103.451 58.0494" stroke="#66D575" stroke-width="4.42201" stroke-linecap="round" stroke-linejoin="round"/>
<path d="M69.5118 38.8664C74.5752 38.8664 84.535 36.7193 89.0636 39.2353C93.0964 41.4759 105.937 40.8882 107.878 44.7689" stroke="#66D575" stroke-width="4.42201" stroke-linecap="round" stroke-linejoin="round"/>
<path d="M50.3288 40.3421C41.2259 40.3421 68.5247 39.6043 77.6276 39.6043C82.3865 39.6043 87.9977 40.2638 92.7116 41.1208C95.447 41.6182 102.975 43.0788 104.189 45.5067" stroke="#66D575" stroke-width="4.42201" stroke-linecap="round" stroke-linejoin="round"/>
<path d="M82.0547 38.8665C80.009 38.8665 82.7152 29.9249 83.5303 28.9061C85.2583 26.7462 93.1217 23.9587 93.1217 28.5372C93.1217 31.3243 91.5326 33.7019 90.5394 36.2842C90.1243 37.3635 87.8934 41.9611 89.4327 38.4976C90.6449 35.7701 89.9889 26.2097 85.0059 28.7012C78.8458 31.7812 79.4377 44.6677 86.1126 34.3987C88.0303 31.4484 90.0217 24.2593 84.8419 29.439C81.3167 32.9642 79.8753 41.8358 86.6455 36.3252C90.6728 33.0471 92.0752 22.8604 86.8504 30.0948C85.2104 32.3655 83.919 34.778 82.9564 37.3909C81.9654 40.0809 86.1003 36.4188 86.4815 35.8743C91.5562 28.6246 84.9668 32.5568 83.1204 37.2269C81.3555 41.691 82.9076 39.5467 84.2681 38.8665" stroke="#66D575" stroke-width="4.42201" stroke-linecap="round" stroke-linejoin="round"/>
<path d="M76.1519 41.0799C78.2666 41.0799 79.6415 32.8007 80.5788 31.1605C82.0055 28.664 84.6062 25.5278 86.8501 23.7825C89.1379 22.0031 97.7911 22.0884 96.0727 25.9549C94.2568 30.0407 90.5786 33.7046 88.3258 37.7598C86.5055 41.0364 91.3456 36.2156 92.0148 35.5464C93.5433 34.0179 95.0805 31.4373 95.3349 29.275C95.7338 25.8842 101.746 21.1592 94.5971 21.1592C89.9323 21.1592 86.9525 23.8409 83.366 26.3238C80.6234 28.2226 78.1647 30.9668 77.6686 34.4397C77.4256 36.1403 76.8833 40.3453 75.4142 41.0799" stroke="#66D575" stroke-width="4.42201" stroke-linecap="round" stroke-linejoin="round"/>
<path d="M76.1523 35.1774C76.1523 38.487 77.1999 28.3343 79.2674 25.7499C81.5505 22.8961 83.9335 19.3048 87.6292 18.2489C89.198 17.8007 100.767 18.4368 96.4419 21.8969C91.7782 25.6279 91.2862 35.1595 88.695 40.342" stroke="#66D575" stroke-width="4.42201" stroke-linecap="round" stroke-linejoin="round"/>
<path d="M70.2496 54.3603C71.4372 54.3603 69.3171 56.817 68.2001 58.2133C66.7903 59.9756 67.2266 62.881 65.0849 63.9518" stroke="white" stroke-width="4.42201" stroke-linecap="round" stroke-linejoin="round"/>
<path d="M91.6462 21.1591C89.7295 21.1591 87.1105 18.8973 85.006 21.528C82.7649 24.3293 82.7925 25.458 82.7925 29.275" stroke="white" stroke-width="4.42201" stroke-linecap="round" stroke-linejoin="round"/>
<path d="M76.1519 35.1774C72.8874 31.913 62.9453 33.5706 59.1824 35.3414C56.4441 36.6301 50.2952 34.614 47.5415 36.817C45.179 38.707 41.9088 39.4986 39.4256 41.9816C37.6703 43.7369 34.2339 48.2075 34.0971 50.6713C33.8709 54.743 40.2363 49.6876 41.4751 49.0318C48.1596 45.4928 56.0362 44.7689 63.6092 44.7689C65.2549 44.7689 67.5218 44.3585 69.1018 44.8099C70.0422 45.0786 66.2039 46.6435 65.8227 46.9823C63.5005 49.0465 57.9171 50.5752 57.7068 54.3604C57.4825 58.397 58.2437 62.5492 58.4446 66.1652C58.7116 70.9706 60.1582 72.4534 62.2976 76.4945C64.3621 80.3941 67.0401 73.6538 67.2983 71.3299C67.6702 67.9824 71.7326 63.9383 73.3647 61.0006C75.0781 57.9163 77.5514 53.3707 79.8409 51.0812C83.2226 47.6997 87.009 51.5819 90.5801 53.6226C93.557 55.3236 101.841 59.1055 102.672 62.8451C103.352 65.9031 106.402 71.6668 106.402 65.0585C106.402 59.982 106.247 55.6724 104.188 51.0402C103.549 49.6012 99.7138 48.8337 100.827 47.7201C101.542 47.0053 105.226 48.3622 106.115 48.4989C112.06 49.4135 117.257 53.0427 123.002 54.3194C126.234 55.0375 130.209 60.1808 133.332 60.1808C134.297 60.1808 130.352 51.2385 129.643 50.6713C125.891 47.6697 124.858 45.0561 120.01 43.2933C115.901 41.7991 110.474 41.2929 106.771 39.2354C105.236 38.3825 102.946 38.967 101.237 38.8665C99.9791 38.7925 99.4886 37.3909 97.9171 37.3909C92.8692 37.3909 97.3871 35.3386 99.3928 33.3329C102.467 30.2585 101.975 26.3782 101.975 22.2659C101.975 20.5479 97.8687 16.7323 95.7037 16.7323C90.8868 16.7323 87.7764 18.8109 83.202 19.6426C79.2123 20.368 74.205 22.0353 72.4629 25.9549C70.1825 31.0856 73.9821 32.7326 68.0361 30.7506" stroke="#1E1E1E" stroke-width="4.42201" stroke-linecap="round" stroke-linejoin="round"/>
<path d="M31.8837 52.8847C29.7819 52.8847 34.4987 51.5108 32.6215 53.6225C30.6983 55.7861 27.8976 59.4557 26.7191 62.1073C24.3427 67.4542 19.1701 69.333 17.8245 75.3878C16.5538 81.1053 14.292 87.1592 15.611 93.0951C16.3404 96.3772 15.5332 99.099 16.9637 102.318C17.9421 104.519 19.5003 107.645 20.0379 110.065C20.9274 114.067 23.1437 119.811 26.1453 122.812C28.6244 125.291 35.0412 132.132 38.5239 132.568C43.591 133.201 48.186 138.187 53.28 138.47C56.4889 138.648 59.5006 140.713 62.5026 141.38C64.9704 141.929 68.643 142.626 70.9873 143.799C75.4806 146.045 85.3404 146.05 89.8423 144.004C95.5754 141.398 105.346 145.105 110.05 139.618C111.818 137.555 116.439 137.206 118.945 136.093C121.948 134.758 124.768 133.959 127.429 131.83C131.798 128.335 134.433 125.023 135.955 119.697C136.582 117.503 139.603 115.422 139.603 113.016C139.603 110.982 141.506 106.521 142.39 104.531C144.155 100.561 144.768 94.204 144.768 89.775C144.768 86.6612 145.506 84.2658 145.506 81.2902C145.506 79.1567 143.281 75.5481 142.39 73.5433C139.494 67.0253 137.115 60.4016 129.274 58.0494" stroke="#1E1E1E" stroke-width="4.42201" stroke-linecap="round" stroke-linejoin="round"/>
<path d="M129.274 83.8725C129.274 82.2338 133.572 77.8732 133.701 80.1834C133.927 84.2613 131.487 96.3184 131.487 92.2342C131.487 90.1499 133.91 82.3005 133.291 83.6265C131.878 86.6534 131.881 90.2507 131.077 93.4639C130.874 94.2783 129.274 100.75 129.274 97.1529" stroke="#F24822" stroke-width="4.42201" stroke-linecap="round" stroke-linejoin="round"/>
<path d="M133.701 80.9213C133.701 78.8152 133.485 71.0655 133.742 72.4776C134.134 74.6317 135.002 85.8041 132.963 86.8238" stroke="#F24822" stroke-width="4.42201" stroke-linecap="round" stroke-linejoin="round"/>
<path d="M132.225 83.1347C133.484 81.8761 133.701 95.1126 133.701 97.153C133.701 99.0955 132.814 103.242 131.652 104.695C131.465 104.928 130.75 107.857 130.75 106.744C130.75 104.285 130.75 101.826 130.75 99.3664" stroke="#F24822" stroke-width="4.42201" stroke-linecap="round" stroke-linejoin="round"/>
<path d="M133.701 83.8725C133.701 84.7333 135.008 85.0793 135.504 85.717C136.367 86.8264 135.914 89.1762 135.914 90.4718C135.914 94.114 134.645 97.3342 134.439 100.842C134.256 103.952 132.927 107.089 132.266 110.065C131.472 113.64 132.783 104.313 132.963 103.055" stroke="#F24822" stroke-width="4.42201" stroke-linecap="round" stroke-linejoin="round"/>
<path d="M136.652 82.3969C138.689 82.3969 138.39 93.5879 137.554 95.6774C137.26 96.4116 133.708 114.137 132.225 111.171" stroke="#F24822" stroke-width="4.42201" stroke-linecap="round" stroke-linejoin="round"/>
<path d="M120.42 69.8543C120.42 71.5992 119.249 73.6845 119.724 75.3468C120.249 77.187 122.172 69.7296 122.265 69.5263C122.992 67.9267 123.311 74.9363 123.372 76.3305C123.462 78.4095 123.913 85.0848 125.585 80.7574C126.369 78.7285 127.207 76.5824 127.634 74.445C127.698 74.1253 127.75 70.5483 128.167 70.715C128.887 71.0029 129.302 79.2541 130.34 78.216C131.016 77.54 131.338 70.9583 130.914 72.2316C130.008 74.949 130.75 78.8316 130.75 81.6591" stroke="#F24822" stroke-width="4.42201" stroke-linecap="round" stroke-linejoin="round"/>
<path d="M130.012 70.592C133.828 70.592 133.405 80.3504 135.545 73.5023C136.099 71.7317 135.634 67.3858 135.135 71.3708C134.861 73.5657 134.439 80.1821 134.439 77.9701" stroke="#F24822" stroke-width="4.42201" stroke-linecap="round" stroke-linejoin="round"/>
<path d="M106.402 120.763C106.402 115.816 96.9875 126.112 103.861 127.362C111.078 128.674 111.963 115.645 100.254 124.124C95.5363 127.54 98.4711 127.512 101.073 124.042C102.835 121.694 105.164 115.783 100.172 115.598C98.9584 115.553 87.3682 118.257 88.8587 120.599C90.0251 122.432 94.2305 122.608 96.0728 122.976" stroke="#F24822" stroke-width="4.42201" stroke-linecap="round" stroke-linejoin="round"/>
<path d="M104.189 126.665C105.127 126.665 111.151 126.907 111.075 127.034C109.236 130.098 98.6312 133.762 102.098 132.896C104.125 132.389 110.721 131.238 110.665 131.256C107.694 132.207 102.528 134.135 100.5 131.092" stroke="#F24822" stroke-width="4.42201" stroke-linecap="round" stroke-linejoin="round"/>
<path d="M67.2983 131.83C67.2983 134.038 77.9084 135.701 78.9392 134.412C78.9945 134.343 64.0225 131.177 67.4622 134.617C69.4314 136.586 82.7174 137.968 73.2007 135.929C70.1532 135.276 75.4141 140.278 75.4141 135.519" stroke="#F24822" stroke-width="4.42201" stroke-linecap="round" stroke-linejoin="round"/>
<path d="M55.4936 127.403C53.3508 127.403 57.7537 131.164 58.1169 131.461C60.2719 133.224 64.5832 134.202 59.9204 131.994C55.8436 130.063 57.9389 132.999 60.2893 134.043C63.5278 135.483 61.396 134.41 61.396 134.043" stroke="#F24822" stroke-width="4.42201" stroke-linecap="round" stroke-linejoin="round"/>
<path d="M72.463 138.47C72.463 138.106 78.9497 138.409 71.3973 137.035C69.865 136.757 68.2943 135.657 67.2984 134.412C66.7482 133.724 62.9817 134.043 63.6094 134.043" stroke="#F24822" stroke-width="4.42201" stroke-linecap="round" stroke-linejoin="round"/>
<path d="M134.439 100.104C134.439 96.1972 132.123 107.597 131.528 111.458C130.83 116 133.496 105.885 133.66 104.572C134.265 99.7302 130.825 109.135 130.176 110.433C128.192 114.402 130.75 108.783 130.75 106.007" stroke="#F24822" stroke-width="4.42201" stroke-linecap="round" stroke-linejoin="round"/>
</svg>
