<svg width="162" height="164" viewBox="0 0 162 164" fill="none" xmlns="http://www.w3.org/2000/svg">
<rect y="-1.52588e-05" width="162" height="164" rx="81" fill="#ECEBEB"/>
<path d="M102.25 32.8349C102.25 31.4233 105.568 34.2645 105.998 34.651C107.057 35.6039 110.527 37.184 111.987 37.3558C113.77 37.5656 115.916 40.7439 117.126 41.9541C118.134 42.9618 119.769 44.2251 120.333 45.3544" stroke="#1E1E1E" stroke-width="3.72229" stroke-linecap="round" stroke-linejoin="round"/>
<path d="M101.617 54.3434C101.617 56.1976 100.711 58.1884 100.345 60.0156C99.6043 63.7211 99.2306 67.8334 98.9795 71.5996C98.8295 73.8503 98.4733 75.9587 98.7605 78.2206C98.9914 80.0386 99.1776 82.0497 99.1776 83.8823C99.1776 87.8047 100.18 91.7484 99.5113 95.6749C98.8906 99.3212 98.9899 103.021 98.9899 106.706C98.9899 108.316 99.424 109.912 99.5425 111.513C99.662 113.126 99.6368 114.675 99.9283 116.278C100.249 118.041 101.19 119.627 101.617 121.335C101.816 122.13 102.323 122.965 102.368 123.785C102.393 124.224 102.574 125.519 102.18 124.536" stroke="#1E1E1E" stroke-width="3.72229" stroke-linecap="round" stroke-linejoin="round"/>
<path d="M119.259 46.6486C119.259 49.8769 118.319 53.1606 118.894 56.3246C119.58 60.0948 118.696 63.8499 118.696 67.6689C118.696 71.4422 119.259 75.242 119.259 79.0236C119.259 80.8677 120.358 82.9369 120.761 84.7478C121.464 87.912 122.638 91.3646 122.638 94.6115C122.638 97.4915 123.131 100.788 123.91 103.558C124.447 105.467 125.35 107.936 125.453 109.897C125.513 111.051 126.491 112.429 125.599 113.421C124.766 114.346 123.608 115.141 122.408 115.569C120.687 116.184 119.132 117.313 117.424 118.009C116.577 118.354 115.789 119.108 114.943 119.511C113.845 120.033 112.594 120.216 111.523 120.824C110.131 121.615 108.726 123.057 107.623 124.161C106.727 125.057 105.384 126.601 104.057 126.601" stroke="#1E1E1E" stroke-width="3.72229" stroke-linecap="round" stroke-linejoin="round"/>
<path d="M101.242 35.9507C101.554 35.9507 99.7809 48.7529 99.7406 50.4439C99.711 51.6899 98.8423 55.1575 101.43 53.8638C102.937 53.1104 104.585 52.9743 106.143 52.3624C107.964 51.6468 109.744 51.1265 111.575 50.4856C113.224 49.9085 115.069 49.7328 116.778 49.422C117.786 49.2387 119.119 49.1247 119.864 48.3794C120.086 48.1579 120.381 47.902 120.667 47.7746C120.883 47.6786 121.445 47.6794 121.313 47.4827C120.986 46.9921 120.045 46.4078 119.541 45.9812C116.865 43.7169 114.111 41.2806 111.147 39.3707C109.439 38.2694 107.715 37.0781 106.08 35.8673C105.56 35.4818 104.724 33.4416 104.057 33.8862" stroke="#1E1E1E" stroke-width="3.72229" stroke-linecap="round" stroke-linejoin="round"/>
<path d="M42.3103 70.2964C41.5896 70.2964 41.5596 78.6501 41.5596 79.7221C41.5596 81.7635 41.7472 83.7537 41.7472 85.7905C41.7472 88.8505 42.6849 91.8734 43.061 94.8826" stroke="#96D3FF" stroke-width="3.72229" stroke-linecap="round" stroke-linejoin="round"/>
<path d="M40.6211 57.5341C40.6211 58.0239 40.9965 58.4087 40.9965 58.9522C40.9965 60.2889 41.3719 61.5477 41.3719 62.8726C41.3719 65.2857 41.8281 67.6885 41.278 70.1088C40.3254 74.3005 40.7925 78.707 40.2458 82.9441C39.6893 87.2566 39.7719 91.8918 40.3396 96.2068C41.1751 102.557 40.2923 108.862 40.4334 115.215C40.4692 116.823 40.9965 118.189 40.9965 119.802C40.9965 120.668 41.1842 121.466 41.1842 122.326C41.1842 122.756 40.9965 124.711 40.9965 123.222" stroke="#1E1E1E" stroke-width="3.72229" stroke-linecap="round" stroke-linejoin="round"/>
<path d="M38.1559 53.8787C38.1559 62.7838 35.6038 71.8994 36.0886 80.8692C36.398 86.5936 36.417 92.0526 36.417 97.7745C36.417 102.355 37.4604 106.862 37.4604 111.434C37.4604 114.738 37.4604 118.042 37.4604 121.345C37.4604 124.093 38.2757 123.618 40.4357 123.413C45.1634 122.962 49.8915 124.071 54.6555 124.552C59.6611 125.059 64.7769 124.103 69.648 124.978C72.9223 125.565 76.7076 125.4 79.8685 126.388C82.3454 127.162 85.304 127.883 87.8864 127.953C89.666 128.001 97.8163 128.332 98.9377 126.214C99.3389 125.456 98.6901 123.909 98.6672 123.084C98.6185 121.332 98.1424 119.436 97.7978 117.713C96.9535 113.491 97.5579 108.971 96.8511 104.73C95.6094 97.2799 95.6825 89.8902 95.8851 82.3955C95.9639 79.4787 96.4836 76.1475 97.0056 73.2763C97.6628 69.6616 97.2761 65.7198 97.2761 62.0512C97.2761 58.6489 98.9362 51.1377 93.4507 52.6615C90.6132 53.4497 87.8081 53.2447 85.027 52.4104C81.718 51.4177 78.088 51.7647 74.6907 51.425C72.0147 51.1574 69.9013 50.8958 67.291 51.0966C64.8096 51.2875 62.4375 51.7921 59.8913 51.7921C55.7917 51.7921 50.5017 51.3581 46.5796 52.5649C44.8791 53.0881 37.7622 55.719 36.8421 53.8787C36.3098 52.8141 38.1332 49.3934 38.6969 48.5077C40.0279 46.416 40.5083 43.8774 41.9813 41.7842C44.3322 38.4436 46.85 34.4834 46.85 30.2306" stroke="#1E1E1E" stroke-width="3.72229" stroke-linecap="round" stroke-linejoin="round"/>
<path d="M95.1896 53.1832C95.1156 53.1832 95.5374 51.4464 95.5374 50.9034C95.5374 49.0064 96.166 47.1356 96.2329 45.2618C96.3441 42.1487 97.624 39.1824 97.624 35.9688C97.624 34.7018 97.9717 33.5341 97.9717 32.3172C97.9717 30.861 96.9301 31.2739 95.7113 31.2739C92.3624 31.2739 89.0722 30.5784 85.7999 30.5784C81.8538 30.5784 77.867 30.9262 73.9759 30.9262C70.3037 30.9262 66.865 30.2306 63.1758 30.2306C58.8946 30.2306 51.2928 32.7288 47.5457 30.2306" stroke="#1E1E1E" stroke-width="3.72229" stroke-linecap="round" stroke-linejoin="round"/>
<path d="M96.2327 54.2264C95.2307 54.2264 97.4231 52.5107 98.3193 52.0626C100.927 50.7586 103.565 49.9463 106.279 48.8361C108.06 48.1074 109.666 46.8101 111.534 46.3051C112.793 45.9651 114.27 44.8367 115.534 44.8367C117.433 44.8367 117.099 43.6786 117.099 46.2278C117.099 47.6759 116.963 49.3606 116.577 50.7488C116.148 52.2924 116.962 53.7604 116.674 55.347C116.027 58.9053 116.422 62.6684 116.732 66.2244C117.345 73.2772 118.266 80.0001 119.804 86.9164C121.018 92.3795 120.796 97.9156 121.639 103.397C121.968 105.536 122.315 107.823 122.315 110.024C122.315 111.844 123.35 113.448 121.62 114.313C116.925 116.66 112.115 118.209 107.883 121.5C106.171 122.831 99.8647 125.58 97.9716 124.823" stroke="#1E1E1E" stroke-width="3.72229" stroke-linecap="round" stroke-linejoin="round"/>
<path d="M99.0151 32.665C99.0151 30.5089 99.4215 28.1799 98.7447 25.9801C98.6129 25.552 98.373 18.316 97.199 19.3726C94.962 21.3859 89.6861 21.8074 86.8433 21.8842C82.6782 21.9968 78.3969 22.5798 74.2465 22.5798C70.071 22.5798 66.0371 22.7282 61.8815 22.5798C58.3328 22.453 54.9157 21.8842 51.2939 21.8842C50.2324 21.8842 45.1974 21.4663 45.1114 22.9275C45.024 24.4132 45.3017 26.2136 45.8069 27.6031C46.3802 29.1795 46.4625 29.2274 45.1114 30.5784" stroke="#1E1E1E" stroke-width="3.72229" stroke-linecap="round" stroke-linejoin="round"/>
<path d="M100.232 83.1868C99.7446 84.1613 100.034 85.7402 100.044 86.7944C100.059 88.3425 100.369 89.8625 100.42 91.4031C100.472 93.0009 100.779 91.5154 100.795 90.7566C100.841 88.5224 100.983 86.3021 100.983 84.0626C100.983 81.8458 100.489 83.3466 100.19 84.6257C99.665 86.8763 99.3739 89.1107 99.1475 91.4031C99.0941 91.9434 98.9338 93.3371 99.1475 92.0078C99.5408 89.5604 99.6688 87.0978 99.6688 84.6153C99.6688 84.0555 100.023 82.5408 99.6271 82.9366C99.2886 83.2751 99.2684 84.2917 99.1996 84.7195C98.9258 86.4232 98.6078 88.3807 98.7408 90.1101C98.8566 91.6146 99.0631 90.4771 99.1892 89.6305C99.5132 87.4553 99.4811 85.1102 99.4811 82.9157C99.4811 82.4497 99.3754 79.4881 98.9181 81.3934C98.5903 82.7593 98.5427 84.1862 98.5427 85.5849C98.5427 88.6388 99.6688 79.5467 99.6688 76.4929C99.6688 76.4537 99.3431 77.9811 99.2935 78.3905C99.26 78.6661 98.8128 80.7898 99.21 80.9034C99.7214 81.0494 100.438 73.5885 100.42 72.9478C100.401 72.3183 99.1331 76.7222 99.6688 76.7222C100.246 76.7222 100.983 69.1659 100.983 68.4643C100.983 66.9748 100.097 70.5913 100.524 70.5913C101.581 70.5913 101.294 62.429 101.129 61.5409C100.892 60.2689 100.822 66.7035 100.983 65.4197C101.275 63.0785 101.612 60.6495 101.348 58.2669C101.334 58.144 100.983 60.5624 100.983 61.3011C100.983 63.165 101.498 57.4429 100.805 55.7124C100.496 54.939 100.659 57.3724 100.618 58.2044C100.608 58.4055 100.843 60.3956 100.889 60.3314C101.332 59.7104 101.227 58.0481 101.16 57.3077C101.096 56.606 100.827 56.4712 100.795 57.2451C100.792 57.3043 101.981 52.6678 100.795 54.7427C100.756 54.8114 104.521 53.3504 105.153 53.1162C106.526 52.6076 107.897 52.0425 109.241 51.5626C110.446 51.1322 111.808 50.7682 112.661 49.8213C112.775 49.6937 113.41 48.5748 113.515 48.6952C113.578 48.7664 112.667 51.0185 112.629 51.2811C112.41 52.8187 112.056 54.4233 112.056 55.9731C112.056 59.1009 111.868 62.0348 111.868 65.1694C111.868 66.5904 112.568 67.9605 112.619 69.3401C112.699 71.4997 113.182 73.6847 113.182 75.8672C113.182 77.7456 114.425 79.5412 114.496 81.456C114.567 83.3703 114.778 85.238 115.048 87.1281C115.423 89.7528 115.387 92.3836 115.955 95.0107C116.455 97.3199 116.664 99.7966 116.925 102.143C117.106 103.769 117.686 105.515 117.686 107.116C117.686 107.684 118.614 110.303 118.395 110.546C117.763 111.249 115.314 111.902 114.402 111.902C112.74 111.902 111.866 112.801 110.408 113.362C108.728 114.008 106.988 114.982 105.591 116.125C105.434 116.253 103.899 117.372 103.808 117.053C103.461 115.839 104.148 114.21 104.173 112.986C104.251 109.255 103.486 105.417 102.776 101.767C102.389 99.7782 102.062 97.7103 101.931 95.6884C101.812 93.8445 102.296 91.9857 102.296 90.131" stroke="#3DADFF" stroke-width="3.72229" stroke-linecap="round" stroke-linejoin="round"/>
<path d="M103.798 58.2252C102.258 58.2252 101.637 61.1673 101.442 62.1457C99.4649 72.0297 99.1062 81.8773 99.1062 91.914C99.1062 94.0714 98.7308 96.233 98.7308 98.3681C98.7308 102.292 99.7 90.5795 100.138 86.6798C100.953 79.434 101.788 72.1607 102.443 64.8983C102.468 64.6136 102.726 63.2279 102.443 64.2936C101.619 67.3892 101.417 70.7598 101.181 73.9383C100.602 81.7513 101.111 89.3258 101.817 97.0961C101.891 97.9097 101.789 98.9586 102.099 99.734C102.175 99.9251 102.135 99.324 102.151 99.1188C102.268 97.5706 102.292 96.02 102.338 94.4685C102.615 85.2988 102.844 76.0517 102.297 66.8899C102.19 65.1046 101.859 66.6561 101.723 67.4946C101.012 71.8985 101.123 76.387 101.254 80.8304C101.385 85.2713 101.76 89.6412 102.255 94.0514C102.569 96.8443 102.728 99.7298 103.412 102.466C103.542 102.983 103.673 103.891 103.892 102.82C104.729 98.7274 104.748 94.3502 104.924 90.1936C105.14 85.1104 105.164 80.0153 105.07 74.9289C105.041 73.3618 104.997 71.7922 104.924 70.2264C104.909 69.9014 104.668 69.0311 104.539 69.3297C103.308 72.1762 103.499 76.1662 103.475 79.1725C103.432 84.581 104.082 89.9645 104.737 95.3235C105.001 97.4903 105.206 99.6939 105.675 101.83C105.935 103.012 105.863 101.325 105.863 101.058C105.863 91.6312 105.487 82.2083 105.487 72.781C105.487 71.771 105.471 67.0731 105.206 70.9354C104.839 76.2802 104.956 81.5713 105.529 86.8987C106.026 91.5216 106.871 96.0584 107.74 100.62C107.975 101.855 108.197 103.092 108.459 104.322C108.534 104.673 108.623 105.681 108.772 105.354C109.435 103.895 108.809 100.915 108.761 99.4421C108.55 92.9504 108.185 86.4652 107.927 79.9754C107.797 76.6961 107.869 73.3126 107.51 70.0492C107.262 67.7955 106.822 74.5488 106.822 76.8161C106.822 85.0402 108.649 93.2085 110.513 101.183C110.692 101.95 110.891 104.242 111.076 103.477C111.513 101.674 111.075 99.3112 111.024 97.5027C110.775 88.6488 110.697 79.8002 109.814 70.9771C109.668 69.5082 109.177 74.35 109.168 74.5222C108.859 80.4989 109.308 86.5939 110.325 92.4874C110.757 94.9892 111.44 97.4377 111.91 99.9321C112.005 100.434 112.432 103.011 112.432 101.142C112.432 93.0012 111.533 84.8102 111.118 76.6805C111.032 75.0015 110.947 73.3227 110.847 71.6444C110.812 71.0617 111.072 69.4904 110.659 69.9032C110.294 70.2685 110.229 71.9533 110.19 72.2909C109.911 74.6932 109.793 77.1405 109.846 79.5583C109.984 85.8662 111.678 91.8726 112.765 98.0345C113.434 101.826 112.182 90.3481 111.587 86.5442C111.311 84.7785 111.181 82.8166 110.649 81.1015C110.511 80.6582 110.188 80.747 109.804 80.747" stroke="#3DADFF" stroke-width="3.72229" stroke-linecap="round" stroke-linejoin="round"/>
<path d="M107.364 63.4803C106.393 64.4516 105.729 66.0723 105.341 67.3799C105.199 67.8585 105.635 66.454 105.675 66.2538C105.992 64.6696 105.755 63.0135 105.633 61.4158C105.595 60.9162 104.95 56.3723 104.882 56.411C104.357 56.7112 104.137 58.2928 104.027 58.7674C103.697 60.1936 103.436 61.6658 103.318 63.1258C103.079 66.0861 103.47 68.722 104.236 71.5714C104.734 73.4247 104.977 72.04 105.153 70.9458C105.652 67.8551 105.661 64.6632 105.675 61.5409C105.68 60.4083 105.685 59.2744 105.675 58.1418C105.67 57.5965 105.627 57.3325 105.487 58.0167C105.038 60.2074 104.869 62.4789 104.966 64.7106C105.016 65.8662 105.112 67.635 105.863 68.6102C106.292 69.1684 107.118 66.0291 107.135 65.9618C107.781 63.3901 107.927 60.6398 107.927 57.9958C107.927 55.9498 107.44 58.2362 107.322 58.9134C106.842 61.6837 106.791 64.1539 107.26 66.9211C107.284 67.0651 107.619 69.6854 108.031 68.8605C108.846 67.231 108.85 64.9855 109.053 63.2196C109.349 60.6396 109.674 57.8553 109.408 55.2536C109.334 54.5395 108.953 55.2704 108.865 55.5143C108.468 56.6175 108.288 57.8509 108.136 59.0072C107.761 61.84 107.892 64.7333 108.49 67.5258C108.552 67.8146 109.425 70.6325 109.512 70.4453C109.739 69.9579 109.616 69.1745 109.616 68.6624C109.616 67.1783 109.616 65.6942 109.616 64.2101C109.616 61.3531 110.193 57.7802 109.335 55.0138C109.006 53.956 107.881 57.153 107.823 57.3389C107.108 59.6262 106.802 61.9012 106.53 64.2727C106.514 64.4074 106.392 66.6904 106.519 66.6396C107.076 66.4168 106.801 63.3422 106.801 62.9381C106.801 60.9423 106.798 58.8315 106.321 56.8802C105.965 55.4225 105.223 56.4988 104.924 57.3285C103.285 61.8825 103.909 67.3403 103.61 72.1136" stroke="#3DADFF" stroke-width="3.72229" stroke-linecap="round" stroke-linejoin="round"/>
<path d="M102.672 101.016C102.078 102.798 102.634 104.957 102.672 106.793C102.678 107.101 103.076 111.163 103.715 110.64C105.167 109.452 105.418 106.082 105.477 104.395C105.485 104.139 105.487 102.301 105.487 102.674C105.487 103.959 105.505 105.225 105.675 106.501C105.806 107.484 105.873 111.154 107.176 109.149C108.378 107.3 109.862 103.417 109.23 101.204C108.897 100.038 109.029 103.622 108.959 104.833C108.871 106.36 108.865 107.881 108.865 109.41C108.865 112.506 110.283 108.155 110.554 107.314C111.188 105.353 111.646 103.292 111.681 101.225C111.691 100.598 111.591 99.5245 111.076 100.662C110.189 102.622 108.916 106.998 110.085 109.076C110.782 110.315 113.346 106.422 113.641 105.99C114.387 104.896 116.385 101.63 113.787 103.748C111.729 105.426 109.257 106.602 107.072 108.107C104.702 109.739 106.926 108.651 108.24 108.232C109.61 107.794 110.93 107.217 112.296 106.762C112.365 106.738 114.36 106.039 114.162 106.49C113.861 107.179 112.886 107.728 112.317 108.159C110.981 109.168 109.581 110.087 108.156 110.964C107.843 111.156 104.425 113.193 105.57 112.84C107.833 112.144 110.199 111.599 112.39 110.703C112.916 110.488 112.615 110.763 112.296 110.87C111.269 111.212 110.18 111.425 109.136 111.714C107.036 112.296 100.576 113.132 102.755 113.132C105.018 113.132 107.399 112.329 109.658 112.09C111.176 111.929 112.696 111.731 114.225 111.714C114.736 111.709 115.589 111.613 114.569 111.537C112.888 111.413 111.056 111.554 109.533 110.661C107.465 109.449 108.981 105.899 109.282 104.124C109.577 102.387 109.848 100.648 110.137 98.9103C110.165 98.7466 110.656 96.6039 110.742 96.7624C111.385 97.9468 111.501 99.7415 111.826 101.037C112.355 103.14 112.844 105.253 113.37 107.356C113.457 107.706 113.769 109.71 114.214 109.858C114.536 109.966 114.676 106.973 114.683 106.803C114.818 103.84 115.661 95.0132 115.017 97.9093C114.44 100.506 114.937 103.646 115.288 106.23C115.376 106.875 115.919 111.786 115.799 108.659C115.669 105.267 115.534 101.256 114.59 98.0031C114.344 97.1565 113.29 101.172 113.182 101.767" stroke="#3DADFF" stroke-width="3.72229" stroke-linecap="round" stroke-linejoin="round"/>
<path d="M100.42 98.7644C100.807 98.7644 100.795 105.424 100.795 106.345C100.795 108.298 100.717 102.426 100.42 100.495C100.041 98.0336 100.66 105.503 101.264 107.919C101.383 108.392 101.661 109.293 101.504 108.253C101.187 106.153 100.802 104.077 100.43 101.986C100.245 100.943 99.9927 97.8679 99.7109 98.8895C99.2508 100.558 99.84 103.072 100.045 104.749C100.352 107.273 101.147 114.855 100.973 112.319C100.811 109.977 100.438 107.665 100.191 105.333C100.167 105.116 99.7768 100.234 99.6588 102.299C99.4629 105.727 99.2041 109.335 100.191 112.674C100.266 112.93 100.633 114.597 100.795 113.664C101.058 112.151 100.872 110.651 100.754 109.129C100.714 108.615 100.535 105.865 100.326 107.742C100.082 109.937 100.424 112.328 100.837 114.488C101.058 115.645 101.546 119.127 101.546 117.95C101.546 116.696 101.426 115.521 101.212 114.279C101.124 113.766 100.7 110.528 100.618 112.736C100.547 114.666 100.649 116.711 100.983 118.617C101.01 118.771 101.429 120.941 101.629 120.483C102.066 119.486 101.492 117.538 101.4 116.49C101.216 114.389 100.955 116.013 101.077 117.136C101.201 118.278 101.359 119.352 101.692 120.452C102.12 121.863 102.205 117.35 101.546 116.031" stroke="#3DADFF" stroke-width="3.72229" stroke-linecap="round" stroke-linejoin="round"/>
<path d="M115.059 51.4687C115.059 46.1785 112.619 61.8603 112.619 67.1505C112.619 71.6838 112.244 76.2104 112.244 80.7469C112.244 83.0038 112.733 85.2036 112.807 87.4617C112.836 88.3542 112.76 89.7319 113.005 90.5897C113.042 90.7189 112.441 90.2272 112.056 90.131" stroke="#3DADFF" stroke-width="3.72229" stroke-linecap="round" stroke-linejoin="round"/>
<path d="M113.932 64.2311C113.932 66.2956 113.932 68.3601 113.932 70.4245C113.932 72.585 114.308 74.6533 114.308 76.8057C114.308 77.8687 114.245 79.1197 114.537 80.1422C114.78 80.992 115.221 81.9241 115.246 82.8115C115.281 84.0165 115.434 85.1942 115.434 86.4191C115.434 87.7419 115.312 89.4623 115.663 90.7358C116.314 93.0938 116.119 95.6428 116.602 98.0553C117.033 100.209 117.377 102.404 117.498 104.582C117.593 106.282 117.97 107.916 117.874 109.65C117.836 110.339 117.898 110.831 118.207 111.527C118.619 112.453 118.153 111.758 117.874 111.339" stroke="#3DADFF" stroke-width="3.72229" stroke-linecap="round" stroke-linejoin="round"/>
<path d="M116.748 83.1867C116.748 86.9217 118.062 90.675 118.062 94.4476C118.062 96.4724 118.625 98.526 118.625 100.558C118.625 102.517 118.404 104.733 118.854 106.647C119.045 107.456 119.546 111.365 118.25 111.527C117.954 111.563 117.755 112.022 117.405 112.1C116.929 112.206 116.331 112.587 115.82 112.746C114.571 113.137 113.272 113.448 112.014 113.82C109.604 114.535 107.446 115.547 105.3 116.74C104.446 117.214 103.993 118.088 103.329 118.752C101.936 120.145 104.596 119.017 105.112 118.888C108.22 118.111 111.377 116.831 114.35 115.656C115.572 115.172 116.773 114.685 117.968 114.154C118.475 113.929 120.491 113.388 120.126 112.84" stroke="#3DADFF" stroke-width="3.72229" stroke-linecap="round" stroke-linejoin="round"/>
<path d="M109.053 52.7825C109.053 53.3069 113.509 51.2668 112.129 51.4791C110.827 51.6795 109.523 52.0276 108.208 52.2299C107.059 52.4067 110.142 51.2915 110.513 51.1351C110.993 50.9325 113.865 49.4398 112.014 50.155C111.048 50.5281 110.072 50.8979 109.095 51.2393C107.969 51.6325 106.18 51.9526 105.247 52.6782C104.213 53.4826 107.847 51.758 109.126 52.0422C109.42 52.1076 108.148 52.7595 108.094 52.7929C107.098 53.4096 106.042 54.0067 104.966 54.4716C103.122 55.2679 105.953 54.2761 106.467 54.0545C107.379 53.6619 108.27 53.1684 109.199 52.8242C109.478 52.7209 108.295 53.5071 108.104 53.6583C107.289 54.3034 106.303 55.3243 105.789 56.2337C105.308 57.0849 106.406 55.9638 106.624 55.7645C107.549 54.9165 108.39 53.9873 109.335 53.1578C110.201 52.3974 111.503 51.5213 112.16 50.572C112.44 50.168 111.665 51.1921 111.535 51.3227C110.98 51.8776 111.836 51.2866 112.056 51.1768C112.374 51.0179 113.299 49.7068 112.713 49.9673C111.822 50.3634 111.221 51.1215 110.179 51.4687" stroke="#3DADFF" stroke-width="3.72229" stroke-linecap="round" stroke-linejoin="round"/>
<path d="M98.9186 54.0963C98.9186 54.1662 101.305 52.8749 101.64 52.6887C103.025 51.9193 104.465 51.2786 105.633 50.1967C107.251 48.6994 109.452 48.2762 111.212 47.0583C112.094 46.4478 114.993 46.7218 115.434 45.8384" stroke="#1E1E1E" stroke-width="3.72229" stroke-linecap="round" stroke-linejoin="round"/>
<path d="M101.358 38.7065C101.358 37.5317 101.615 41.0757 101.4 42.2307C101.362 42.4331 101.257 43.8735 101.348 43.2838C101.514 42.2013 102.029 40.5521 101.692 39.4989C101.214 38.0058 100.36 42.59 100.753 44.1075C100.781 44.2157 101.126 42.6966 101.16 42.2829C101.194 41.876 101.184 41.45 101.17 41.0421C101.17 41.0207 100.872 42.2195 100.837 42.5435C100.675 44.0203 100.42 45.4669 100.42 46.954C100.42 47.8538 100.346 47.5759 100.461 46.881C100.526 46.4951 101.008 43.8108 100.785 44.5559C100.499 45.5096 100.322 46.6484 99.8984 47.5484C99.5913 48.2011 100.298 46.162 100.514 45.4734C100.763 44.6751 99.8009 46.2095 99.7108 46.3597C99.2749 47.0862 98.7897 47.8047 98.3761 48.5285C98.3233 48.6209 98.8455 47.9999 98.6889 48.2782C97.9193 49.6465 98.5023 48.7201 99.1477 48.0488C99.9295 47.2357 100.553 46.5079 101.504 45.8384C102.284 45.2895 103.112 45.1368 103.986 44.7123C105.035 44.2028 105.77 43.3656 106.801 42.8355C107.781 42.3314 108.577 42.1248 109.658 42.0848C110.12 42.0676 110.531 41.8971 111.003 41.8971C111.772 41.8971 109.675 42.6753 109.011 43.0649C107.902 43.7162 106.849 44.4436 105.591 44.7957C104.924 44.9825 104.693 45.226 104.403 45.8384C104.215 46.2346 103.214 47.8346 103.214 47.4232C103.214 46.8915 101.562 47.4769 101.577 47.4232C101.921 46.2186 105.621 45.2728 106.613 44.9938C108.083 44.5803 109.517 44.2036 110.857 43.4819C111.401 43.189 112.07 43.0523 112.661 42.8772C113.159 42.7295 113.098 42.9556 112.713 42.6478C112.132 42.1832 111.684 41.537 110.93 41.0525C110.377 40.6972 109.765 40.3681 109.241 39.9786C108.712 39.5858 108.029 39.416 107.552 38.9984C106.981 38.4992 106.037 38.7275 105.393 38.2269C104.613 37.6201 104.072 36.7106 103.235 36.1728C102.751 35.8614 101.831 35.0891 101.264 34.9633C100.374 34.7654 100.607 34.7073 100.607 35.714C100.607 37.3411 100.42 38.985 100.42 40.5833C100.42 42.085 99.8567 43.4808 99.8567 44.9834C99.8567 45.7175 99.9788 46.1108 100.42 45.2753C100.917 44.3338 101.733 43.6608 102.192 42.6582C102.605 41.7586 103.254 41.0661 103.798 40.2497C104.21 39.631 104.079 40.0722 104.643 40.1975C105.151 40.3104 107.364 39.4781 107.364 40.4895C107.364 40.9765 105.73 41.3064 105.299 41.5217" stroke="#3DADFF" stroke-width="3.72229" stroke-linecap="round" stroke-linejoin="round"/>
<path d="M57.6285 75.8673C56.4201 68.6168 58.5609 90.5568 59.6513 97.826C59.7854 98.7204 59.6909 98.3454 59.5887 97.6592C59.1306 94.5836 58.6953 91.4947 58.3896 88.4002C58.0751 85.2162 57.6113 75.6377 58.0455 78.8077C59.0109 85.8551 59.5991 92.9235 60.7982 99.953C61.0997 101.721 61.3416 103.642 61.8513 105.375C62.1406 106.359 61.9041 103.323 61.8513 102.299C61.6667 98.7187 61.5425 95.1312 61.3821 91.5491C61.1412 86.1697 61.4517 80.6582 60.965 75.3043C60.7111 72.5109 60.8342 80.9219 61.0484 83.7186C61.5511 90.2816 62.6864 96.8818 64.2703 103.269C64.5516 104.403 64.8262 105.541 65.1357 106.668C65.291 107.233 65.5089 108.872 66.0324 109.275C66.1051 109.33 66.1171 106.563 66.1158 106.522C66.0491 104.438 65.9876 102.365 65.803 100.287C65.0138 91.4023 63.2189 64.749 63.0817 73.6673C62.918 84.3076 65.2343 94.4828 66.7831 104.937C66.8024 105.067 67.2181 108.121 67.4817 106.803C68.323 102.597 68.1641 98.1162 68.0239 93.8638C67.8022 87.1384 67.3422 80.4195 67.0125 73.6986C67.0067 73.5798 66.8856 71.1819 66.8665 70.8417C66.8506 70.5557 66.9222 69.7363 66.7831 69.9867C66.2373 70.9692 66.4927 73.3348 66.4495 74.3659C65.9683 85.8551 66.9788 97.7923 69.1604 109.097C69.2736 109.684 69.5712 111.024 69.6818 109.629C69.9802 105.861 69.5928 101.948 69.4524 98.1805C69.2131 91.7638 68.9544 85.3438 68.8998 78.9224C68.8815 76.7791 68.8019 74.5974 68.9832 72.4578C69.0404 71.7825 69.0056 73.8136 68.9832 74.491C68.5802 86.6614 70.0631 98.2826 72.2572 110.213C72.3638 110.793 72.7981 113.44 72.8306 111.36C72.9005 106.886 73.1981 102.43 73.206 97.9511C73.2189 90.6361 73.263 83.3176 73.1956 76.0029C73.1834 74.6833 73.4348 70.9587 72.7264 72.072C71.7879 73.5468 71.7509 76.4599 71.5064 78.0674C70.3418 85.7251 70.6552 93.0086 71.35 100.704C71.7549 105.187 72.1315 110.061 73.3937 114.404C73.9161 116.202 73.9857 113.927 74.0505 113.278C74.6527 107.256 74.3321 101.104 74.3321 95.0629C74.3321 88.9468 74.4143 82.8624 74.8951 76.764C74.9074 76.6075 75.2006 74.3803 75.2288 74.6161C75.403 76.0756 75.1484 77.6649 75.0828 79.1205C74.58 90.2764 76.296 101.099 77.971 112.079C78.2518 113.92 78.0663 111.666 78.044 111.13C77.7623 104.37 77.454 97.6317 77.6061 90.861C77.7564 84.1661 78.1482 77.5306 79.3473 70.9355C79.6968 69.0132 79.4636 70.6464 79.3786 71.363C79.0287 74.3125 78.7062 77.2644 78.4715 80.2257C77.8849 87.6253 77.8755 95.0271 78.3151 102.435C78.5662 106.666 79.1476 110.917 79.2118 115.155C79.3035 121.21 79.3314 103.044 79.5141 96.9919C79.7433 89.4034 80.351 81.8166 81.0886 74.2616C81.2151 72.9657 81.2534 71.5047 81.6099 70.2369C81.8633 69.336 81.4408 72.101 81.3388 73.0313C80.6563 79.2553 80.1792 85.4168 80.463 91.6847C80.7087 97.1122 81.344 102.521 81.735 107.94C81.7533 108.193 82.0077 111.137 82.027 109.379C82.0699 105.478 82.3986 101.597 82.59 97.7009C82.8365 92.6849 83.2164 87.6836 83.7161 82.6864C83.9302 80.5454 84.1697 78.4065 84.4564 76.274C84.5574 75.5231 84.6962 73.2868 84.8318 74.0322C84.9335 74.5917 84.8207 75.3673 84.8005 75.909C84.6915 78.8287 84.5577 81.7471 84.4668 84.6675C84.2871 90.4409 84.4598 96.2042 84.6128 101.976C84.6302 102.632 84.9708 106.431 84.2374 106.897C83.9817 107.06 82.8364 102.403 82.7777 102.143" stroke="#96D3FF" stroke-width="3.72229" stroke-linecap="round" stroke-linejoin="round"/>
<path d="M55.7517 89.1926C54.8214 86.4015 53.8537 77.5785 54.365 80.4759C55.5124 86.9781 55.9473 93.711 56.5442 100.276C56.6518 101.46 56.38 104.251 57.3366 105.208C57.503 105.374 57.5081 104.764 57.5347 104.53C57.7296 102.815 57.638 101.044 57.5451 99.3274C57.1837 92.6417 56.2341 85.9956 55.8352 79.3081C55.7644 78.1215 55.2179 74.7393 55.856 75.7422C56.0441 76.0377 56.0076 76.4271 56.0541 76.7744C56.2896 78.5314 56.4689 80.2975 56.6484 82.0607C57.3295 88.7506 58.0461 95.4036 59.276 102.017C59.3533 102.433 60.5483 106.883 60.7149 106.407C61.1334 105.211 60.8129 103.42 60.7774 102.205C60.6758 98.7275 60.4821 95.2486 60.2352 91.7784C59.8281 86.0559 58.9423 68.8791 58.9423 74.6161C58.9423 81.8085 58.9448 88.9647 59.2238 96.1577C59.3253 98.7723 59.4692 101.385 59.5888 103.999C59.6437 105.2 59.3731 106.952 59.7347 108.128C59.977 108.915 59.8351 106.478 59.7765 105.656C59.5897 103.042 59.2662 100.441 58.9006 97.8468C57.8562 90.4347 56.5025 83.1724 56.5025 75.6587C56.5025 73.643 56.7108 75.1281 56.7736 76.1592C56.9764 79.4911 56.8949 82.8547 56.8361 86.1897C56.7385 91.7271 56.6707 97.2769 56.2314 102.799C56.1759 103.496 55.8418 105.513 56.1688 104.895C56.5985 104.084 56.5907 102.675 56.6902 101.809C57.5101 94.6638 56.9495 87.3055 56.5025 80.1527C56.3635 77.9286 56.1271 75.6998 56.1271 73.4691C56.1271 72.6962 56.2939 76.2246 56.2939 76.399C56.2939 83.445 56.1373 90.5429 55.71 97.5757C55.5454 100.286 55.2968 102.99 55.1053 105.698C55.0482 106.506 54.5045 108.733 55.0427 108.128C55.5306 107.579 55.1865 105.302 55.1783 104.728C55.1341 101.66 54.9537 98.595 54.7716 95.5321C54.3483 88.4115 53.8758 81.256 53.1659 74.1573C52.7809 70.3066 52.6041 81.882 52.5716 85.7518C52.516 92.3682 52.9777 98.9204 53.3119 105.521C53.81 115.358 53.2208 85.8208 53.3223 75.9715C53.3413 74.1274 53.4209 72.2879 53.4891 70.4454C53.5216 69.5698 53.2895 73.368 53.2702 73.6151C52.5587 82.7333 51.8105 91.7764 51.8105 100.933C51.8105 103.531 51.8997 106.117 51.9877 108.711C51.9879 108.718 52.0368 110.163 52.1858 109.9C52.6976 108.997 52.5842 107.37 52.6446 106.386C52.8161 103.593 52.61 100.818 52.3735 98.0345C51.7928 91.199 50.7478 84.4037 50.2256 77.5668C50.1215 76.2045 49.6544 72.185 50.1213 73.4691C50.6382 74.8905 50.556 76.8218 50.6948 78.2967C51.4885 86.7297 52.5855 95.1176 53.5726 103.529C53.8896 106.231 54.2503 114.383 54.2503 111.662C54.2503 107.711 53.4616 103.703 52.8948 99.807C51.7553 91.9749 50.3399 84.163 49.746 76.2635C49.7215 75.9385 49.5933 73.3929 49.673 73.6672C50.2507 75.6571 50.4277 77.8631 50.6009 79.9128C51.3036 88.2279 51.5818 96.7581 51.3934 105.104C51.3623 106.481 51.2474 110.61 51.2474 109.233C51.2474 105.476 51.2417 101.743 50.8303 98.0032C50.1077 91.4335 48.9677 84.9216 48.3488 78.3384C48.2186 76.9534 48.1354 75.0851 47.9734 77.8483C47.7528 81.6102 47.4903 85.3718 47.4208 89.1405C47.3021 95.5752 47.3906 102.172 48.4322 108.545C48.4565 108.693 48.7196 111.089 49.0786 111.089C49.3107 111.089 49.2879 108.596 49.2872 108.461C49.2505 101.571 47.9025 94.5769 46.9307 87.7746C46.3887 83.9802 45.325 72.5557 45.325 76.3886C45.325 80.8348 45.3943 85.297 45.4397 89.7452C45.491 94.7714 45.8414 99.8583 45.325 104.874C45.0314 107.727 45.0539 104.874 45.0539 103.748C45.0539 98.3071 44.2242 92.9116 43.4691 87.5348C43.0795 84.761 42.2474 76.4647 43.0729 79.1413C44.4603 83.6398 44.2178 88.8219 44.3449 93.4676C44.4286 96.527 44.6786 105.704 44.6786 102.643C44.6786 99.3135 43.8287 95.7888 43.3231 92.5083C42.6576 88.1902 41.6965 83.7471 41.6965 79.3602C41.6965 78.3619 41.9197 78.3451 42.051 79.3081C42.3694 81.6426 42.3802 84.0283 42.5202 86.3774C42.7849 90.8175 43.0548 95.2361 43.1875 99.6819C43.2068 100.327 43.322 100.958 43.3648 101.6C43.428 102.548 43.2767 99.7022 43.2188 98.7539C42.869 93.0174 42.4535 87.2649 42.3221 81.5186C42.3177 81.3235 42.3048 80.7487 42.3638 80.9347C42.4901 81.3324 42.483 81.7608 42.5307 82.1754C42.7524 84.106 42.8771 86.0416 42.9477 87.9831C43.0908 91.9186 43.267 95.8556 43.5108 99.7862C43.5436 100.315 43.5557 102.552 43.5525 102.435C43.5115 100.958 43.3648 99.4997 43.3648 98.0136" stroke="#96D3FF" stroke-width="3.72229" stroke-linecap="round" stroke-linejoin="round"/>
<path d="M44.3032 72.8643C46.2174 72.8643 48.1156 73.3265 50.0796 73.2188C56.2936 72.8783 62.4001 71.6883 68.4097 70.143C74.6032 68.5504 55.6066 70.6409 49.2767 71.5506C47.4951 71.8066 45.7072 72.0206 43.9278 72.2909C43.9053 72.2943 42.1537 72.5444 42.3638 72.6767C42.8533 72.9849 43.6967 72.9931 44.2406 73.052C46.4334 73.2894 48.6596 73.2586 50.8616 73.2293C55.1834 73.1716 59.4948 72.8244 63.7594 72.1136C64.0376 72.0672 67.9204 71.439 66.8561 70.9875C63.8693 69.7204 59.5644 70.4147 56.4399 70.4245C53.0155 70.4352 49.3437 70.3604 45.9923 71.1648C43.8892 71.6695 50.2732 71.91 52.436 71.9259C57.5841 71.9638 62.7459 71.893 67.8884 71.634C69.4378 71.556 71.0368 71.5294 72.57 71.269C73.9106 71.0414 71.1273 70.5757 71.0998 70.5705C66.2994 69.6582 61.329 69.2495 56.4607 68.9439C55.5516 68.8868 46.6774 67.9698 46.6387 70.1325C46.5944 72.6133 53.3905 72.8841 54.7716 73.0312C59.9484 73.5825 65.3366 73.6484 70.5159 73.052C73.1623 72.7473 72.4606 71.6936 70.5264 70.5705C66.2224 68.0714 61.0346 66.5765 56.0645 66.4206C53.7428 66.3478 49.0901 66.8597 48.6094 69.851C48.0701 73.2069 55.5645 73.081 57.274 73.1563C62.165 73.3717 67.5198 72.9415 72.2572 71.6236C73.2386 71.3505 74.839 70.9799 75.4582 70.0387C76.1383 69.0049 74.3595 67.9673 73.6648 67.5884C69.8485 65.5068 64.5144 65.3726 60.3811 66.3581C58.0433 66.9154 52.2794 68.7458 52.0189 71.8425C51.7547 74.984 60.7374 74.3067 62.2997 74.2302C66.9752 74.0015 72.2827 73.3916 76.626 71.5506C77.4615 71.1964 79.0201 70.5972 79.0867 69.4652C79.2034 67.4815 76.6204 66.2048 75.1454 65.6073C69.8174 63.4492 63.2961 64.2357 58.2958 66.9211C56.2175 68.0372 53.292 70.738 56.1062 72.7705C59.7973 75.4363 65.6132 75.3831 69.932 75.0852C72.3283 74.92 78.1016 74.9978 79.5663 72.4473C81.2267 69.5559 75.3785 66.6608 73.6752 65.8889C69.1076 63.8186 63.1328 63.4657 58.7337 66.1495C56.0958 67.7589 54.08 71.0162 57.1801 73.2918C61.3317 76.3392 68.1981 75.9471 73.0183 75.4919C75.4971 75.2578 82.193 74.8008 81.3701 70.7894C80.6136 67.1015 76.1766 64.9128 72.9558 64.0016C68.4811 62.7358 63.4464 64.787 59.9432 67.5154C58.314 68.7844 54.4936 72.3758 58.1707 73.7193C61.5825 74.9659 65.7171 74.2142 69.1917 73.8027C72.6057 73.3984 77.3504 72.8182 80.0876 70.5079C82.7943 68.2234 78.2139 64.5849 76.5634 63.4803C72.4305 60.7144 66.2331 59.8009 61.4655 61.1656C58.4817 62.0196 54.6999 64.3618 53.4787 67.3903C52.3288 70.242 57.5885 69.7849 59.0257 69.5903C63.7618 68.9494 69.0264 68.0631 73.352 65.9201C76.3699 64.425 76.486 61.8386 73.7482 59.8101C69.459 56.632 62.8567 55.9138 57.7328 56.5152C52.1307 57.1728 46.9387 59.8919 42.7809 63.668C41.2103 65.0943 38.7146 68.0751 42.3846 68.4121C47.7234 68.9024 53.6784 67.2874 58.8171 65.9827C61.813 65.2221 68.5871 63.849 69.6088 60.1229C70.4161 57.1787 64.7108 56.2368 62.9461 56.0982C57.8079 55.6945 51.9327 57.1211 47.6606 60.029C45.5762 61.4478 41.604 65.1764 44.6368 67.6718C48.222 70.6216 55.3554 69.4569 59.4323 68.7458C62.1879 68.2651 66.4803 67.8326 68.6287 65.7846C70.9914 63.5323 68.2657 60.0663 66.241 58.83C62.4664 56.5252 57.3662 55.7944 53.3848 57.9958C51.3499 59.121 48.2216 61.4958 48.1402 64.1267C48.0679 66.4626 50.8832 66.8727 52.5924 66.9211C55.5229 67.004 57.2263 66.1279 59.5053 64.4187" stroke="#96D3FF" stroke-width="3.72229" stroke-linecap="round" stroke-linejoin="round"/>
<path d="M46.9307 76.0549C46.9307 74.2754 46.743 72.5102 46.743 70.7269C46.743 69.3235 46.5786 72.6044 46.5449 72.9478C46.2808 75.6321 45.6644 78.2858 45.4709 80.9763C45.4093 81.8332 45.3867 82.6876 45.2832 83.5413C45.2632 83.7069 45.1177 84.0625 45.2832 84.0418C45.6279 83.9987 45.424 81.0699 45.4188 80.8616C45.3378 77.6225 45.2572 74.3965 45.2415 71.1544C45.2372 70.2522 45.0964 65.6059 44.8662 68.9439C44.671 71.7745 44.3836 74.5979 44.2197 77.4312C44.1686 78.3142 43.515 82.2319 44.3031 83.02C44.5589 83.2757 44.2932 82.2959 44.2614 81.9356C44.127 80.4125 43.9609 78.8928 43.8339 77.3687C43.5888 74.4269 43.6072 71.4637 43.323 68.5268C43.191 67.1629 43.1101 67.7794 43.0311 68.7771C42.8177 71.471 42.9639 74.2634 43.3543 76.9308C43.5653 78.3726 43.6772 79.8391 43.9695 81.2683C44.1431 82.117 44.3046 80.3013 44.3136 80.1213C44.3658 79.0772 44.6828 70.1325 44.4491 70.1325C43.5197 70.1325 42.614 80.8979 42.614 82.1128C42.614 82.4199 42.4721 83.8732 42.7183 82.8531C43.1885 80.9049 43.0015 78.7729 42.9894 76.7848C42.9762 74.6191 43.1204 72.1782 42.7913 70.0387C42.5689 68.5931 42.4468 72.9463 42.3846 74.4075C42.2915 76.5945 42.5589 78.7975 42.3846 80.9763C42.3363 81.5803 42.2386 84.1377 42.2386 82.1233C42.2386 78.1686 42.1967 74.224 42.4159 70.2785C42.4936 68.8793 42.2712 70.4154 42.2491 70.9145C42.1368 73.441 41.8778 75.9648 41.8633 78.4948C41.856 79.7598 41.8633 81.025 41.8633 82.2901C41.8633 83.1048 41.7896 80.6618 41.7173 79.8502C41.5236 77.6767 41.3065 75.4998 41.1543 73.3231C41.1214 72.8536 41.1125 69.918 41.1125 71.8321C41.1125 75.5499 41.1632 79.257 41.3002 82.9574C41.3965 85.5566 41.5987 77.764 41.7694 75.1686C41.7822 74.9747 41.8952 71.9847 42.0927 73.4065C42.3774 75.4569 42.5022 77.502 42.7078 79.5583C42.7182 79.6622 42.9491 81.6019 43.2709 81.3517C44.0864 80.7174 44.4364 78.1211 44.7202 77.2019C45.7636 73.822 46.8565 70.5683 48.2131 67.2965C48.8249 65.8211 49.2953 64.0383 50.3089 62.7713C51.6449 61.1012 55.5728 61.6035 57.4199 61.6035C58.7844 61.6035 57.8773 61.8164 57.128 61.9788C55.1266 62.4129 53.1209 62.8114 51.1535 63.3865C50.2248 63.6579 48.2019 64.0014 50.3506 63.5637C53.2437 62.9744 56.0763 62.1243 58.9839 61.6035C59.3663 61.535 63.2058 60.5976 61.8826 61.1239C58.6747 62.3997 55.4182 63.5581 52.2587 64.9505C50.9893 65.5099 49.7109 66.0342 48.4217 66.5458C48.4201 66.5464 47.2594 66.9425 47.2747 66.9211C47.4962 66.6111 48.0707 66.3261 48.3695 66.1287C50.0531 65.0163 51.8192 64.0404 53.5829 63.0632C56.0669 61.687 59.3784 60.178 61.2987 57.9958C61.7537 57.4788 60.8743 57.8416 60.7356 57.8916C59.183 58.4505 57.7032 59.2169 56.2313 59.9561C52.4988 61.8304 48.7774 63.8339 45.2207 66.0244C44.7528 66.3126 43.3173 67.005 43.8652 66.9628C44.0918 66.9454 44.2829 66.7835 44.4908 66.6917C46.3777 65.8589 48.2889 65.0827 50.1942 64.2936C53.3589 62.9828 56.5156 61.6898 59.4949 59.9873C59.9844 59.7076 61.0486 59.1026 61.5802 58.6527C61.9628 58.3289 61.3738 58.4129 61.2153 58.4129C59.0924 58.4129 56.9514 59.0994 54.9488 59.7267C53.1441 60.292 51.3985 61.0345 49.6208 61.6765C48.116 62.2199 50.7869 61.4783 51.0388 61.4158C56.2672 60.118 61.6487 59.6067 67.0125 59.3513" stroke="#96D3FF" stroke-width="3.72229" stroke-linecap="round" stroke-linejoin="round"/>
<path d="M70.0156 59.3513C68.9306 61.5215 72.2012 61.1353 73.5815 60.9987C74.9222 60.8661 76.4333 60.7574 77.7314 60.394C78.0203 60.3131 75.7682 60.0998 75.2811 60.0186C74.3563 59.8645 72.072 59.3024 71.2668 59.9144C70.8207 60.2534 76.1587 61.6645 76.3342 61.6973C77.9807 62.0052 79.6272 62.284 81.2973 62.4272C81.6743 62.4595 83.5429 62.8404 83.9248 62.4585C84.1708 62.2125 79.155 60.7665 78.7323 60.7068C77.0313 60.4666 75.0999 60.7582 76.2925 62.8651C77.5597 65.1038 80.1296 66.4354 82.5485 67.0045C84.1384 67.3786 85.0256 67.2246 84.1542 65.5865C83.9342 65.1728 81.8528 61.294 81.558 61.7703C80.2248 63.9239 81.2146 67.6918 81.7978 69.924C81.8629 70.1734 82.942 72.7087 83.1533 72.5098C83.8462 71.8576 83.3295 69.0564 83.3514 68.1932C83.3892 66.7006 83.4688 65.1778 83.758 63.7097C83.776 63.6184 84.1774 61.813 84.3628 62.74C84.9325 65.5887 84.3553 68.7597 84.5087 71.6548C84.5625 72.6693 84.788 75.7051 84.6443 74.6994C84.3691 72.773 84.6133 70.8205 84.9258 68.9022C85.2227 67.0794 85.6412 65.2556 86.3438 63.5429C86.3859 63.4404 87.295 61.2605 87.5742 62.3334C88.2444 64.9084 87.6415 68.4478 87.2822 71.0397C87.1893 71.7103 87.0467 75.4056 86.3855 75.8464C86.3669 75.8588 86.2006 74.7337 86.1979 74.6994C86.0984 73.469 86.1317 72.1906 86.2813 70.9667C86.5218 68.9985 87.0783 67.0191 87.6576 65.1277C87.668 65.0937 88.5993 62.556 88.6899 62.6566C89.0699 63.0788 88.9505 64.3766 88.9505 64.867C88.9505 66.6555 88.7723 68.4482 88.5126 70.216C88.0487 73.3729 87.1138 76.4169 86.6358 79.5583C86.4023 81.0928 86.9163 79.9606 87.178 79.1829C88.2877 75.8855 88.5698 72.3362 89.305 68.9439C89.4066 68.4753 90.4299 63.6032 90.1809 66.1287C89.7692 70.3037 89.1664 74.3959 88.5126 78.5365C88.223 80.3708 87.7404 82.1329 87.324 83.9375C87.1415 84.7281 87.3843 84.1781 87.4699 83.7498" stroke="#96D3FF" stroke-width="3.72229" stroke-linecap="round" stroke-linejoin="round"/>
<path d="M90.4727 86.7527C89.7062 91.3517 90.2041 96.5704 90.4727 101.204C90.4759 101.259 90.6845 102.763 90.6187 102.393C90.4037 101.183 90.2158 99.9708 89.9826 98.7643C89.5295 96.4195 89.0682 94.0775 88.5959 91.7367C88.5259 91.3899 88.4505 91.0438 88.3978 90.694C88.3102 90.1127 88.3483 90.0052 88.5646 90.6627C89.08 92.2295 89.3286 93.8868 89.576 95.5111C90.0053 98.329 91.3597 106.751 90.6187 103.998C89.8544 101.16 89.8004 97.8918 89.6386 94.9794C89.4865 92.2418 89.5253 89.4933 89.5343 86.7527C89.5354 86.4274 89.6503 82.0263 90.0348 82.9782C90.7592 84.772 90.9377 86.8114 91.2338 88.7025C91.6918 91.6262 92.2026 94.5721 92.3287 97.5339C92.3641 98.3675 92.84 100.642 92.2661 100.036C91.5856 99.3181 91.5155 97.2153 91.3068 96.314C90.1029 91.1129 88.9849 85.893 87.5532 80.7469C87.1037 79.1312 87.1816 81.0626 87.2091 81.6019C87.3198 83.7715 87.4777 85.9113 87.4281 88.0873C87.3216 92.7579 87.2762 97.648 86.4271 102.257C86.2496 103.221 86.127 102.264 86.0726 101.892C85.7847 99.925 85.5521 97.9526 85.301 95.9803C84.8935 92.7784 84.5419 89.5775 84.3209 86.3565C84.2171 84.8426 84.1124 83.3185 84.1124 81.8C84.1124 81.7988 84.0556 80.4005 84.4043 81.2474C85.3543 83.5544 85.4946 86.3124 85.7598 88.7546C86.1788 92.6128 86.1782 96.4344 86.0622 100.307C85.9981 102.449 85.9684 104.588 85.9684 106.73C85.9684 107.073 86.0389 109.015 85.9266 107.544C85.568 102.842 84.6343 98.1962 83.9873 93.53C83.8715 92.6954 83.7074 90.4114 84.4148 92.6021C85.5521 96.1241 86.3076 99.7851 86.8859 103.435C87.3813 106.563 87.716 109.695 87.8035 112.861C87.8188 113.415 88.2332 116.658 87.6471 117.147C87.603 117.183 86.7859 114.057 86.7608 113.925C86.0797 110.327 85.5465 106.69 85.2593 103.039C85.1025 101.045 84.8505 98.8901 85.0508 96.8874C85.1136 96.2593 86.0238 99.2345 86.0518 99.3482C87.4083 104.854 87.8452 110.572 87.8452 116.229C87.8452 116.384 87.6876 118.605 87.8869 118.679C87.9907 118.718 87.8517 114.908 87.8452 114.801C87.7621 113.445 87.352 100.521 87.5115 100.547C88.3712 100.691 88.9179 104.522 89.0547 105.104C89.6972 107.839 90.1766 110.589 90.5561 113.372C90.846 115.498 91.0222 117.598 91.0357 119.743C91.0369 119.933 91.1565 121.817 90.8063 120.702C89.2437 115.725 88.6047 110.032 88.4499 104.853C88.4444 104.668 88.3065 101.223 89.4613 102.434C90.8335 103.874 91.265 106.696 91.6822 108.565C91.8299 109.227 93.3614 116.451 92.0576 116.688C91.728 116.748 90.713 114.398 90.6187 114.217C89.2395 111.57 87.9866 108.868 86.7191 106.167C86.6649 106.052 85.2752 103.127 85.3427 104.051C85.4561 105.6 85.6247 107.11 85.5826 108.67C85.5282 110.681 85.1443 111.384 83.3408 110.4" stroke="#96D3FF" stroke-width="3.72229" stroke-linecap="round" stroke-linejoin="round"/>
<path d="M48.0568 102.33C48.0568 103.776 47.2528 105.606 46.9307 107.033C46.5011 108.935 45.8799 111.029 45.8046 112.986C45.737 114.744 45.576 109.466 45.2311 107.742C45.0333 106.753 45.0108 104.583 44.3448 103.769C43.6896 102.968 44.5228 105.832 44.6785 106.855C44.7826 107.54 45.2594 114.652 45.9923 114.738C46.9127 114.846 45.6127 104.934 45.5126 104.144C45.4997 104.042 45.1999 102.042 45.2833 102.685C45.502 104.373 45.4016 106.077 45.5335 107.773C45.6201 108.887 45.6333 115.635 47.4937 115.635C49.6242 115.635 49.3095 110.657 48.87 109.525C47.8334 106.852 45.9689 106.88 45.0643 109.504C44.0347 112.49 45.395 115.221 48.8283 115.197C53.2531 115.165 58.1343 113.287 62.1537 111.568C62.8487 111.271 64.9148 110.923 64.2182 110.63C63.9449 110.515 63.3525 110.663 63.1025 110.692C61.8644 110.839 60.6371 110.92 59.3906 110.964C56.8231 111.053 54.2613 111.233 51.727 111.673C49.3783 112.08 51.1581 112.344 52.5715 112.455C57.3394 112.826 62.1784 112.658 66.9395 112.267C68.7303 112.12 70.5183 111.942 72.3093 111.798C72.4811 111.784 73.6436 111.559 73.915 111.756C74.3102 112.043 72.9438 111.905 72.4553 111.892C69.4658 111.807 66.471 111.349 63.5091 110.964C60.4982 110.572 57.482 110.207 54.4588 109.921C53.6159 109.841 49.3936 108.959 48.5989 109.754C48.4908 109.862 51.7443 110.853 51.8625 110.88C55.9424 111.827 60.0965 112.315 64.2807 112.423C67.3141 112.501 70.363 112.373 73.3937 112.236C74.2981 112.195 76.9954 112.231 76.1046 112.069C69.579 110.882 62.9894 109.896 56.5337 108.357C55.3335 108.071 54.1344 107.776 52.9365 107.481C52.6244 107.404 51.7485 107.262 52.0398 107.126C52.5013 106.911 53.403 107.063 53.854 107.106C56.0067 107.31 58.1292 107.772 60.2769 108.023C64.4615 108.513 68.7157 108.572 72.9245 108.513C74.1326 108.496 75.3362 108.437 76.5425 108.378C77.0709 108.352 78.3423 108.778 78.1274 108.294C77.9186 107.824 74.042 107.579 73.6231 107.502C69.4849 106.743 65.3355 105.916 61.1631 105.364C60.3191 105.253 56.4539 104.649 57.6076 106.689C58.8027 108.801 61.7953 109.939 63.9784 110.567C66.8284 111.388 69.8387 111.721 72.7994 111.6C74.2464 111.54 76.9381 111.795 78.2317 110.964C78.6279 110.709 75.7225 110.269 75.6041 110.255C71.4009 109.752 67.132 109.53 62.9044 109.785C60.8526 109.909 55.763 109.707 54.3336 111.673C53.7907 112.419 57.3308 112.982 57.6076 113.028C61.5152 113.682 65.5141 113.582 69.4524 113.299C72.2664 113.097 75.1745 112.489 78.0023 112.694C78.2065 112.709 79.8424 113.012 78.9615 113.445C76.99 114.414 74.3322 114.321 72.2155 114.321C67.8924 114.321 63.6226 113.646 59.4219 112.653C58.2403 112.373 57.0745 112.033 55.8976 111.735C55.1793 111.553 53.4079 110.541 53.7393 111.203C53.9998 111.724 56.3235 112.318 56.8152 112.507C59.8854 113.683 62.9176 114.434 66.1784 114.863C69.0843 115.246 72.2142 115.531 75.1349 115.082C76.2617 114.909 76.4181 114.4 76.5843 113.403" stroke="#96D3FF" stroke-width="3.72229" stroke-linecap="round" stroke-linejoin="round"/>
<path d="M79.5872 119.034C79.1406 118.922 76.3879 118.211 77.8981 118.658C79.9642 119.271 84.8776 121.107 86.74 119.555C87.9132 118.577 84.5064 116.582 83.9978 116.312C81.1567 114.807 77.6704 113.543 74.4156 113.633C72.9853 113.672 71.4541 114.035 73.2582 115.186C75.34 116.514 78.1451 117.19 80.5986 117.042C81.8203 116.969 83.8167 116.896 83.7371 115.176C83.6316 112.897 80.1762 111.233 78.3986 110.64C75.6738 109.732 72.2865 109.585 70.4117 112.173C68.732 114.492 70.4406 116.86 72.8724 117.553C75.1345 118.198 78.0566 117.578 79.8792 116.104C81.1917 115.042 81.5974 114.045 80.2546 112.882C78.3655 111.246 75.3408 110.124 72.8516 110.672C70.4768 111.194 68.3366 113.869 69.2335 116.365C70.3033 119.341 75.6618 117.622 74.2488 115.374C73.171 113.659 70.0214 113.055 68.243 112.778C65.9372 112.419 62.4842 112.141 60.7253 114.092C59.6233 115.313 60.1045 117.09 61.695 117.491C63.2948 117.894 65.1015 117.42 66.4496 116.511C67.602 115.733 66.4624 114.733 65.6572 114.238C63.2473 112.755 60.2148 112.16 57.42 112.173C56.4815 112.178 53.4813 112.6 54.9281 114.238C56.1819 115.656 58.9367 115.951 60.694 115.76C63.8253 115.419 59.8169 114.306 58.8485 114.092C56.5428 113.581 52.802 112.806 50.5384 113.8C49.4453 114.28 50.8916 115.803 51.3934 116.135C52.6275 116.953 54.5213 117.531 56.002 117.428C58.6288 117.245 57.4457 115.971 55.9395 115.093" stroke="#96D3FF" stroke-width="3.72229" stroke-linecap="round" stroke-linejoin="round"/>
<path d="M46.3677 110.588C46.3677 109.93 45.9829 105.902 45.2416 105.98C44.1743 106.092 43.6944 110.101 43.5107 110.901C43.253 112.024 42.9702 113.142 42.7287 114.269C42.673 114.529 42.6598 115.305 42.76 114.592C43.1427 111.87 42.9894 109.051 42.9894 106.313C42.9894 105.416 42.8151 101.187 42.2804 104.395C41.7704 107.455 41.918 110.7 41.7173 113.8C41.689 114.238 41.3711 115.458 41.6027 115.875C41.6428 115.947 41.9421 113.968 41.9572 113.768C42.219 110.312 42.051 106.806 42.051 103.342C42.051 103.231 42.1578 101.403 41.905 101.371C41.8185 101.36 41.9568 103.43 41.9572 103.436C42.1397 106.539 42.1881 109.581 42.0614 112.684C41.9447 115.543 42.2289 111.204 42.197 110.484C42.0589 107.369 41.8441 104.194 41.4463 101.1C41.3215 100.129 41.3043 101.48 41.3107 101.673C41.357 103.062 41.4791 104.444 41.488 105.834C41.4964 107.151 41.5114 108.472 41.3941 109.785C41.3517 110.26 41.0443 111.586 41.342 111.214C41.714 110.749 41.4304 109.462 41.3837 108.962C41.2043 107.039 41.0059 105.119 40.8311 103.196C40.7137 101.904 40.5496 100.605 40.5496 99.3066C40.5496 98.432 40.8093 99.8113 40.8311 99.9322C41.2575 102.301 41.7527 104.742 41.8529 107.147C41.9185 108.721 41.9156 108.987 41.8529 107.168C41.7525 104.258 41.1942 101.358 40.8415 98.4724C40.7455 97.6868 40.9035 95.4081 40.5496 96.116C40.3086 96.5979 40.5991 97.8287 40.6538 98.3369C40.8805 100.441 40.9249 102.511 40.9249 104.624C40.9249 105.157 40.9191 105.017 40.9249 104.562C40.9388 103.475 41.0917 102.395 41.0917 101.308C41.0917 98.437 40.6797 95.5735 40.7372 92.696C40.7393 92.5937 41.208 95.4871 41.2586 96.262C41.3622 97.8505 41.3003 102.629 41.3003 101.037C41.3003 98.8651 41.3384 96.6921 41.0709 94.5311C40.8036 92.3726 39.5691 85.9674 39.8093 88.1291C40.174 91.4117 40.5416 101.289 40.7477 97.9928C40.9575 94.635 40.7048 91.3849 40.5704 88.0249C40.5268 86.9344 40.5602 85.8542 40.6955 84.7717C40.7308 84.4893 40.8991 83.853 40.7372 84.5006" stroke="#96D3FF" stroke-width="3.72229" stroke-linecap="round" stroke-linejoin="round"/>
<path d="M41.1126 64.9818C40.8068 64.9818 41.3003 64.8208 41.3003 64.3249C41.3003 63.7306 41.3003 63.1363 41.3003 62.542C41.3003 61.5222 40.9249 60.4544 40.9249 59.3514C40.9249 58.8822 40.9249 58.413 40.9249 57.9438C40.9249 57.1695 41.2297 57.3931 42.1344 57.0054C43.7772 56.3013 45.3807 55.9357 47.108 55.5039C49.604 54.8799 52.1564 54.4664 54.6256 53.721C56.0974 53.2766 57.5316 53.4466 59.0361 53.3352C60.1825 53.2503 61.3347 53.023 62.4978 53.1683C63.3369 53.2732 64.1991 53.4821 65.0315 53.6793C68.336 54.4619 72.1302 53.7795 75.4165 53.3039C77.8348 52.9539 79.5998 53.1819 81.9228 53.7627C82.8873 54.0038 84.1507 54.0981 85.0195 54.576C86.0109 55.1212 86.8463 55.8157 88.0224 55.9627C89.3251 56.1255 90.5432 56.3485 91.7864 56.3485C92.4598 56.3485 92.156 56.9501 92.6414 57.0888C93.2963 57.2759 92.957 56.9355 93.1836 57.7665C93.4973 58.9167 93.1002 60.9473 93.1002 62.1666C93.1002 64.3361 92.9125 66.446 92.9125 68.6103C92.9125 71.3888 92.1618 74.1062 92.1618 76.8891C92.1618 79.8612 91.4075 82.7592 91.7447 85.7101C92.213 89.8077 92.114 94.3815 91.2234 98.389" stroke="#96D3FF" stroke-width="3.72229" stroke-linecap="round" stroke-linejoin="round"/>
<path d="M68.8893 57.2868C70.4516 57.2868 72.0306 57.6642 73.5813 57.8499C76.5085 58.2003 79.4865 58.4868 82.4336 58.5902C82.7049 58.5997 84.4122 58.6777 83.2156 58.5068C81.9116 58.3205 80.6109 58.1113 79.3056 57.9333C77.1849 57.6441 74.9767 57.4252 72.914 56.8281C71.8033 56.5065 72.5138 56.5377 73.2685 56.4944C77.2974 56.2632 81.356 56.5454 85.3844 56.3067C85.5294 56.2981 87.2868 56.1745 86.2393 56.1607C84.161 56.1334 82.0711 55.9673 79.9937 55.8792C78.2631 55.8059 76.5025 55.6996 74.7699 55.7958C73.5029 55.8662 75.6622 56.6223 75.9169 56.7238C80.2395 58.4461 85.1542 58.2207 89.4716 60.0916C92.4182 61.3685 86.8439 60.8499 86.1559 60.7381C84.9219 60.5376 83.6914 60.1903 82.5587 59.6537C82.5323 59.6412 84.5567 60.0243 85.0924 60.102C85.7865 60.2028 90.8189 60.7387 90.9522 59.539C91.0273 58.8635 83.2622 59.4044 82.8715 59.4556C82.4566 59.5099 80.4516 59.7219 80.6923 60.5817C80.9394 61.4641 82.6611 62.0383 83.4241 62.2187C83.8997 62.3311 89.2498 62.0606 88.1787 60.8111C86.7778 59.1767 86.9361 64.7067 87.0109 65.305C87.1053 66.06 88.3869 69.1516 87.4697 66.8586" stroke="#96D3FF" stroke-width="3.72229" stroke-linecap="round" stroke-linejoin="round"/>
<path d="M89.7219 62.1666C91.1118 60.7766 92.2 64.7398 92.3078 65.4406C92.3524 65.731 92.2275 67.4166 92.0158 66.3581C91.8618 65.5879 91.8956 63.4149 90.848 64.0434" stroke="#96D3FF" stroke-width="3.72229" stroke-linecap="round" stroke-linejoin="round"/>
<path d="M44.4909 59.5391C42.8367 59.5391 43.6045 58.4808 44.4909 58.0376C44.8523 57.8569 45.5886 57.2279 45.9507 57.1826C46.973 57.0548 44.1148 58.1288 43.2606 58.7049C42.5499 59.1842 40.3828 60.3714 40.3828 61.4159C40.3828 62.4958 43.2837 60.8158 43.563 60.6547C44.9549 59.8517 46.6882 59.1853 47.9213 58.1419C48.3718 57.7607 47.8058 58.5812 47.6815 58.7883" stroke="#96D3FF" stroke-width="3.72229" stroke-linecap="round" stroke-linejoin="round"/>
<path d="M48.0569 59.1637C48.0569 58.4462 47.6564 56.8728 46.7535 57.3807C44.2243 58.8034 43.7862 62.4536 43.3649 64.9818" stroke="#96D3FF" stroke-width="3.72229" stroke-linecap="round" stroke-linejoin="round"/>
<path d="M42.0509 115.093C42.0509 114.559 41.269 113.716 41.0187 113.216C40.8619 112.902 40.3618 111.193 40.3618 112.382C40.3618 113.483 40.6583 114.56 40.7268 115.656C40.8013 116.848 41.0545 118.163 41.3106 119.315C41.6281 120.744 41.4195 120.841 43.0311 120.035C45.0207 119.04 46.922 119.367 49.0369 118.992C51.4485 118.564 53.591 117.226 56.127 117.157C58.4491 117.094 60.7802 117.345 63.1129 117.345C63.86 117.345 70.312 117.375 70.0154 116.782" stroke="#96D3FF" stroke-width="3.72229" stroke-linecap="round" stroke-linejoin="round"/>
<path d="M43.3647 116.406C43.05 116.406 41.2154 116.788 42.1552 116.959C45.0905 117.493 48.8395 117.262 51.6227 116.219" stroke="#96D3FF" stroke-width="3.72229" stroke-linecap="round" stroke-linejoin="round"/>
<path d="M45.2416 118.283C45.2416 119.082 47.2953 120.452 48.0568 120.452C49.3115 120.452 50.6832 120.546 51.9042 120.358C53.4477 120.121 54.8119 120.948 56.3147 120.733C58.4715 120.425 60.8324 120.913 62.9253 120.389C63.5517 120.233 64.6593 120.535 65.3651 120.535C66.1506 120.535 66.9361 120.535 67.7216 120.535C68.6927 120.535 69.6321 120.659 70.5785 120.869C71.5725 121.09 72.7603 120.898 73.6752 121.39C75.2915 122.261 76.991 122.682 78.6905 123.205C80.4432 123.744 82.3584 123.714 84.0915 124.195C86.9573 124.991 89.6039 125.203 92.5372 125.04C93.1884 125.004 94.9309 124.697 94.977 123.914C95.0757 122.236 94.4464 120.138 94.2159 118.294C94.0339 116.838 93.6632 115.05 93.6632 113.581C93.6632 111.561 92.4582 109.634 92.0158 107.731C91.5544 105.748 91.5879 103.857 91.3277 101.861C90.9555 99.0079 92.7199 96.1285 91.0357 93.3217" stroke="#96D3FF" stroke-width="3.72229" stroke-linecap="round" stroke-linejoin="round"/>
<path d="M73.5813 118.471C72.6464 118.471 71.7115 118.471 70.7765 118.471C69.5309 118.471 70.8217 118.926 71.4126 119.221C75.685 121.358 80.7825 122.224 85.5512 122.224C88.3571 122.224 91.542 121.594 94.2262 122.787C94.8822 123.079 96.68 123.18 95.9153 122.224" stroke="#96D3FF" stroke-width="3.72229" stroke-linecap="round" stroke-linejoin="round"/>
<path d="M93.1001 98.2013C93.1001 99.4818 93.4755 100.787 93.4755 102.101C93.4755 104.963 93.7791 107.922 94.0385 110.776" stroke="#96D3FF" stroke-width="3.72229" stroke-linecap="round" stroke-linejoin="round"/>
<path d="M48.9953 34.3899C48.9953 35.3584 48.1169 39.0452 47.1602 40.9587C46.7743 41.7304 46.7134 42.7486 45.9924 43.3151C45.2356 43.9098 44.5161 44.6872 43.8341 45.3692C42.5919 46.6113 41.6036 48.159 40.8833 49.7797C40.4522 50.7497 42.0609 49.5624 42.6141 49.4043C44.1726 48.9591 45.5847 48.8413 47.2123 48.8413C48.366 48.8413 49.5666 48.9119 50.6844 49.1749C52.1883 49.5288 53.499 49.2167 55.0011 49.2167C57.9819 49.2167 60.9883 48.0906 63.9681 48.0906C65.3679 48.0906 66.7959 47.5275 68.2222 47.5275C69.4918 47.5275 70.7428 47.3398 71.9862 47.3398C73.2574 47.3398 74.4019 47.9029 75.6877 47.9029C76.929 47.9029 78.458 47.785 79.5873 48.32C80.7526 48.872 82.3692 49.0874 83.6328 49.5086C84.9794 49.9575 86.1329 49.6624 87.4699 49.592C88.228 49.5521 89.0754 49.3708 89.8159 49.2062C90.1966 49.1216 91.7125 49.0745 91.9742 48.7474C92.8021 47.7126 92.7249 46.3804 92.7249 45.046C92.7249 43.4355 93.6556 42.2772 94.0804 40.771C94.3025 39.9836 95.7947 34.9529 94.3202 34.9529C93.261 34.9529 92.2031 35.3701 91.1818 35.6619C89.6119 36.1105 87.8691 36.3031 86.2499 36.4439C84.6705 36.5813 83.0944 36.2667 81.5058 36.2667C79.5525 36.2667 77.5992 36.2667 75.646 36.2667C66.9199 36.2667 58.2809 34.7652 49.5583 34.7652" stroke="#96D3FF" stroke-width="3.72229" stroke-linecap="round" stroke-linejoin="round"/>
<path d="M94.977 34.3897C93.7811 34.3897 92.7235 34.3544 91.5883 34.2125C89.896 34.001 88.3881 34.9528 86.719 34.9528C82.8309 34.9528 78.9799 35.0641 75.0828 34.9528C74.0389 34.923 72.7816 34.6115 71.7462 34.4315C70.7771 34.2629 69.7626 34.5281 68.7955 34.3793C66.5376 34.032 64.4973 33.076 62.1432 33.076C58.4128 33.076 54.3817 33.3612 50.8719 34.7651" stroke="#96D3FF" stroke-width="3.72229" stroke-linecap="round" stroke-linejoin="round"/>
<path d="M74.8951 33.639C75.6087 33.639 76.4388 33.4513 77.2099 33.4513C79.2536 33.4513 81.3875 33.5943 83.4242 33.3575C85.3049 33.1388 87.2912 33.2534 89.1589 33.5452C89.4793 33.5952 91.7745 33.645 91.4111 33.8267" stroke="#96D3FF" stroke-width="3.72229" stroke-linecap="round" stroke-linejoin="round"/>
<path d="M51.0599 42.2724C49.7978 42.9034 48.717 43.9382 47.5356 44.7122C47.0491 45.031 47.2374 45.0121 47.5773 44.5871C48.8309 43.0201 50.2564 41.5017 51.2892 39.7804C51.4716 39.4765 52.6561 37.3188 51.5186 38.4562C50.0981 39.8767 49.0766 41.8439 47.9631 43.5027C47.6896 43.9102 45.5009 46.6735 45.9299 47.2251C46.3879 47.814 48.5661 45.0773 48.7243 44.8999C50.4856 42.9244 52.5887 40.8049 53.604 38.3102C54.2372 36.7542 51.8196 39.4254 51.6437 39.624C49.6703 41.8521 47.5231 44.0428 45.8673 46.5265C44.6882 48.2952 47.4718 46.9037 48.0048 46.5265C50.5872 44.699 53.2028 42.5484 55.4391 40.3122C55.7187 40.0326 58.5213 36.5251 56.8988 37.8306C54.571 39.7036 52.7868 42.3194 51.2058 44.8165C51.1421 44.9172 49.4118 47.9791 50.7158 47.3815C52.5862 46.5242 54.502 44.394 55.95 42.9814C56.7286 42.2218 60.3638 39.0909 59.7349 37.6534C59.6063 37.3594 50.5056 45.6533 52.4153 46.881C53.3577 47.4868 56.4224 44.6873 57.0448 44.2118C58.0962 43.4084 62.8 39.9825 61.8098 38.1121C61.3345 37.2144 57.8572 40.8239 57.5661 41.1463C56.8271 41.9649 53.1751 45.8107 54.3338 47.0687C55.3337 48.1542 58.6987 45.4854 59.4012 44.9625C61.4635 43.4272 64.3293 41.3488 65.0942 38.7482C65.6954 36.704 64.1037 37.3908 63.1757 38.3102C61.5199 39.9506 59.3977 42.0758 58.7131 44.3786C58.244 45.9565 60.4055 44.735 60.8818 44.4828C63.5798 43.0545 66.1979 40.9942 67.7426 38.3102C67.8685 38.0914 68.6428 36.7988 68.3473 36.4751C68.0649 36.1658 66.727 37.7143 66.6374 37.8098C65.5467 38.9708 64.5298 40.2131 63.5928 41.5008C62.6848 42.7485 61.2137 44.4344 61.0695 46.0573C60.9301 47.6257 62.7984 46.8284 63.4989 46.4431C65.902 45.1214 68.3789 43.3322 70.0677 41.1567C70.4091 40.717 72.7253 36.9067 70.5161 37.3927C68.2249 37.8968 65.8371 41.0369 64.844 43.0231C64.4338 43.8435 63.5701 46.3851 65.4487 45.9009C67.8029 45.2941 70.3413 43.3456 72.1218 41.7719C72.3597 41.5617 75.8289 37.9201 74.7702 37.4761C73.6476 37.0053 70.1231 41.7556 69.5881 42.5435C69.2332 43.0662 67.2023 45.947 68.9729 46.0677C71.2194 46.2209 73.9432 44.1699 75.6252 42.9084C76.9315 41.9287 80.7069 39.1421 80.3693 37.1841C80.1059 35.6562 75.7839 40.155 75.5209 40.5416C74.8514 41.5259 71.9656 46.5322 75.2915 45.4004C78.6178 44.2685 82.5173 40.9305 84.1021 37.8515C84.3288 37.411 85.0597 35.5579 83.7685 35.8495C81.7451 36.3064 80.1279 38.8472 79.0451 40.3747C78.4688 41.1879 76.2571 44.0958 77.502 45.1293C78.9649 46.3438 81.8728 44.403 83.1324 43.6696C84.979 42.5943 87.9306 40.8499 88.4292 38.5813C88.5617 37.9784 88.05 37.6216 87.4908 37.6429C86.0345 37.6984 84.686 39.0923 83.7372 40.0411C82.4854 41.2928 80.1806 43.7939 80.4736 45.7862C80.7148 47.4265 83.9068 45.5351 84.4879 45.1919C87.0199 43.6964 89.2668 41.7529 90.6188 39.0818C91.5848 37.1733 91.1668 34.9905 89.1382 37.2988C87.3582 39.3243 85.7339 41.7151 84.8007 44.2535C84.3395 45.508 84.5159 46.5042 86.0102 45.8905C88.2916 44.9535 90.3177 42.8935 91.5989 40.8335C91.8704 40.3971 93.3404 36.0788 91.5572 37.2676C89.7347 38.4825 88.4891 41.1594 87.5534 43.044C87.3842 43.3847 85.9292 46.6122 87.4074 46.2554C89.7222 45.6967 93.4414 40.4803 92.725 38.3311" stroke="#96D3FF" stroke-width="3.72229" stroke-linecap="round" stroke-linejoin="round"/>
<path d="M90.6603 43.3985C90.294 44.2533 89.7219 46.956 89.7219 46.026" stroke="#96D3FF" stroke-width="3.72229" stroke-linecap="round" stroke-linejoin="round"/>
<path d="M91.5989 45.6507C91.5989 44.6562 92.2688 47.9563 91.7866 47.7152" stroke="#96D3FF" stroke-width="3.72229" stroke-linecap="round" stroke-linejoin="round"/>
<path d="M47.3063 25.3812C47.7874 25.3812 47.7144 24.7114 47.911 24.9641C48.3074 25.4738 48.3083 26.6168 48.5783 27.258C49.3718 29.1424 49.9589 28.1964 51.7689 28.1964C52.8443 28.1964 53.9204 27.821 55.0429 27.821C56.8676 27.821 58.6608 27.6334 60.4856 27.6334C63.5795 27.6334 66.6027 27.6334 69.682 27.6334C76.0485 27.6334 82.4589 27.6121 88.7838 27.4457C90.7725 27.3933 92.7767 27.258 94.7895 27.258C96.5747 27.258 95.7372 25.2573 95.2066 24.2551C94.7089 23.3149 89.8817 25.0576 89.0131 25.2352C86.3944 25.7709 83.2991 25.8701 80.6301 25.9442C77.9692 26.0181 75.2899 26.3931 72.6432 26.3196C69.5869 26.2347 66.4934 26.644 63.3843 26.695C60.5232 26.7419 57.7035 26.5854 54.8135 26.5073C53.0447 26.4595 47.8011 25.9633 49.5584 25.7566C50.7599 25.6152 51.9225 24.9614 53.1661 25.0058C54.9727 25.0704 56.7817 25.3812 58.6088 25.3812C60.1768 25.3812 61.6733 25.3461 63.2174 25.3812C64.7367 25.4157 66.5194 24.9721 67.9512 25.3812" stroke="#96D3FF" stroke-width="3.72229" stroke-linecap="round" stroke-linejoin="round"/>
<path d="M38.4851 53.5332C42.4498 53.5332 46.1384 51.8316 50.163 52.6365C53.3278 53.2694 56.2463 52.6784 59.422 52.5948C62.6895 52.5088 65.9586 51.4246 69.2439 51.9379C72.3024 52.4158 75.4662 52.2194 78.555 52.2194C81.7391 52.2194 84.9406 52.2194 88.1371 52.2194C90.3053 52.2194 92.4149 52.2194 94.5913 52.2194C95.2993 52.2194 95.8979 52.1921 96.5723 52.0422C96.7959 51.9925 97.9742 52.0924 97.2292 51.8441" stroke="#1E1E1E" stroke-width="3.72229" stroke-linecap="round" stroke-linejoin="round"/>
<path d="M44.1155 22.3782C44.1155 22.7575 44.4113 23.0651 44.6368 23.3584C45.2206 24.1173 45.6555 25.4767 45.9923 26.403C46.167 26.8834 47.1562 30.4485 47.5876 30.4485C48.3268 30.4485 49.1687 29.9809 49.9336 29.8959C51.4489 29.7275 52.9265 29.4004 54.4379 29.1765C57.6764 28.6967 60.78 29.3224 64.0097 29.3224C67.5991 29.3224 71.0313 28.9794 74.6136 29.5101C77.6636 29.962 80.7382 30.0732 83.8204 30.0732C86.642 30.0732 89.5173 30.2608 92.3495 30.2608C94.5375 30.2608 96.709 30.8239 98.8766 30.8239C99.3477 30.8239 100.044 31.1364 100.044 30.4485C100.044 29.4889 99.669 28.5893 99.669 27.6333C99.669 26.5727 99.241 25.3502 98.96 24.3385C98.6856 23.3504 97.6603 22.8548 97.4169 22.0029C97.2053 21.2624 96.6419 20.6968 96.4889 19.855C96.3547 19.1171 96.0086 19 95.2689 19C92.2902 19 89.3957 20.0662 86.4897 20.6474C82.8316 21.379 79.1475 21.9853 75.4478 22.4721C71.1746 23.0344 66.4721 24.3554 62.1433 23.7859C58.8124 23.3476 55.4643 23.2113 52.1441 22.6076C50.9114 22.3835 49.6658 22.4025 48.4426 22.0967C47.9669 21.9778 46.403 22.2612 46.18 21.8152" stroke="#1E1E1E" stroke-width="3.72229" stroke-linecap="round" stroke-linejoin="round"/>
<path d="M45.8045 32.3253C45.2217 32.3253 45.0769 34.7459 44.9078 35.1405C43.8813 37.5358 42.3001 40.5934 42.0509 43.2108C41.9435 44.3378 41.3013 45.1854 40.7475 46.1199C40.0149 47.3562 39.4857 48.6817 38.8603 49.9673C38.5328 50.6404 37.6852 51.5977 37.5569 52.3029C37.4806 52.7229 37.6333 52.9561 37.5465 52.7826" stroke="#1E1E1E" stroke-width="3.72229" stroke-linecap="round" stroke-linejoin="round"/>
<path d="M97.7922 31.1993C97.0894 31.902 97.1214 34.1085 96.9476 35.0467C96.417 37.9119 95.3583 40.6555 94.831 43.5028C94.4472 45.5754 94.0386 47.8638 94.0386 49.9674C94.0386 50.8134 94.0135 52.6742 93.2878 53.1579" stroke="#1E1E1E" stroke-width="3.72229" stroke-linecap="round" stroke-linejoin="round"/>
<path d="M97.0413 54.6593C97.0413 54.1939 97.2369 55.2289 97.229 55.4517C97.1767 56.9166 96.9153 58.4609 96.7076 59.9144C96.4003 62.0658 96.8753 64.4199 97.083 66.5666C97.3152 68.966 97.3448 71.3653 97.5626 73.761C97.9655 78.1931 98.5454 82.6318 97.938 87.0864C97.3679 91.2672 97.5606 95.5112 97.9797 99.7027C98.3405 103.311 98.1674 107.082 98.1674 110.724C98.1674 113.622 98.3551 116.517 98.3551 119.399C98.3551 121.425 98.5416 123.31 98.1778 125.311C98.0726 125.89 97.9797 127.55 97.9797 125.978" stroke="#1E1E1E" stroke-width="3.72229" stroke-linecap="round" stroke-linejoin="round"/>
<path d="M42.6139 80.747C42.6139 83.4917 42.6139 86.3572 42.6139 89.1509C42.6139 90.7943 42.7879 92.4661 43.1352 94.0723C43.4336 95.4525 43.1769 96.6441 43.1769 98.0136" stroke="white" stroke-width="3.72229" stroke-linecap="round" stroke-linejoin="round"/>
<path d="M44.3032 105.709C44.3032 108.174 44.8663 110.563 44.8663 113.028" stroke="white" stroke-width="3.72229" stroke-linecap="round" stroke-linejoin="round"/>
<path d="M50.6843 37.0173C50.6843 36.0447 50.4966 36.5653 50.4966 37.205C50.4966 38.3674 50.0098 39.7236 49.7042 40.8543C49.2544 42.5186 48.3514 44.0239 47.7856 45.6402C47.4337 46.6457 47.1 47.7457 46.5553 48.6535" stroke="white" stroke-width="3.72229" stroke-linecap="round" stroke-linejoin="round"/>
<path d="M113.933 90.8817C113.875 90.8817 115.271 95.2114 115.351 95.4903C116.467 99.4114 116.831 103.068 114.684 106.647" stroke="white" stroke-width="3.72229" stroke-linecap="round" stroke-linejoin="round"/>
</svg>
