<svg width="79" height="75" viewBox="0 0 79 75" fill="none" xmlns="http://www.w3.org/2000/svg">
<path d="M34.7132 15.6885C32.7847 13.7981 29.6957 13.8062 27.7771 15.7067L15.9799 27.3926C14.065 29.2894 14.0235 32.3708 15.8865 34.3185L35.1492 54.4567L55.0009 35.5744L34.7132 15.6885Z" fill="#B06BCE"/>
<path d="M43.5891 63.2803H48.7777C50.0882 63.2803 51.345 62.7597 52.2716 61.833L63.3542 50.7505C65.2975 48.8072 65.2817 45.6516 63.319 43.7279L55.0009 35.5744L35.1492 54.4567L43.5891 63.2803Z" fill="white"/>
<path d="M43.5891 63.2803H48.7777C50.0882 63.2803 51.345 62.7597 52.2716 61.833L63.3542 50.7505C65.2975 48.8072 65.2817 45.6516 63.3191 43.7279L55.0009 35.5744M43.5891 63.2803H12.5303M43.5891 63.2803L35.1492 54.4567M35.1492 54.4567L15.8865 34.3185C14.0235 32.3708 14.065 29.2894 15.9799 27.3926L27.7771 15.7067C29.6957 13.8062 32.7847 13.7981 34.7132 15.6885L55.0009 35.5744M35.1492 54.4567L55.0009 35.5744" stroke="black" stroke-width="2.76923"/>
</svg>
