<svg width="373" height="311" viewBox="0 0 373 311" fill="none" xmlns="http://www.w3.org/2000/svg">
<path d="M168.954 35.4307V104.632H186.5V16.0057C126.844 -21.2257 110.468 24.5041 109.737 52.0229H124.724C131.158 18.0291 156.891 26.7973 168.954 35.4307Z" fill="#D6EFEC"/>
<path d="M68.7968 104.632V220.778H297.989L308.59 104.632H186.5H168.954H68.7968Z" fill="#5D80D9"/>
<path d="M68.7968 220.778L38.8227 309H340.026L297.989 220.778H68.7968Z" fill="#6B87CE"/>
<path d="M370 309L308.59 104.632L297.989 220.778L340.026 309H370Z" fill="#4345AC"/>
<path d="M68.7968 104.632L3 309H38.8227L68.7968 220.778V104.632Z" fill="#4345AC"/>
<path d="M68.7968 104.632L3 309H38.8227M68.7968 104.632V220.778M68.7968 104.632H168.954M308.59 104.632L370 309H340.026M308.59 104.632L297.989 220.778M308.59 104.632H186.5M68.7968 220.778L38.8227 309M68.7968 220.778H297.989M38.8227 309H340.026M297.989 220.778L340.026 309M168.954 104.632V35.4307C156.891 26.7973 131.158 18.0291 124.724 52.0229H109.737C110.468 24.5041 126.844 -21.2257 186.5 16.0057V104.632M168.954 104.632H186.5" stroke="black" stroke-width="4"/>
</svg>
